<svg width="48" height="48" viewBox="0 0 48 48" fill="none" xmlns="http://www.w3.org/2000/svg">
<path opacity="0.6" d="M24.0001 10.0001C24.0025 9.20016 23.8449 8.40783 23.5365 7.6697C23.2282 6.93157 22.7754 6.26255 22.2047 5.70199C21.634 5.14143 20.957 4.70065 20.2135 4.40556C19.4699 4.11048 18.6749 3.96705 17.8751 3.98372C17.0754 4.0004 16.287 4.17682 15.5564 4.50263C14.8258 4.82844 14.1678 5.29706 13.621 5.88091C13.0741 6.46476 12.6496 7.15207 12.3723 7.90241C12.0949 8.65274 11.9705 9.45096 12.0061 10.2501C10.8306 10.5524 9.73915 11.1182 8.81461 11.9047C7.89007 12.6912 7.15663 13.6778 6.66984 14.7898C6.18304 15.9017 5.95567 17.1099 6.00493 18.3227C6.05419 19.5356 6.37879 20.7213 6.95415 21.7901C5.94251 22.612 5.147 23.6686 4.63683 24.868C4.12665 26.0674 3.91726 27.3733 4.02688 28.6721C4.13649 29.9709 4.56178 31.2232 5.26576 32.3201C5.96974 33.4171 6.93108 34.3254 8.06615 34.9661C7.92598 36.0506 8.00963 37.1523 8.31192 38.2031C8.61422 39.254 9.12874 40.2318 9.82372 41.076C10.5187 41.9202 11.3794 42.613 12.3526 43.1116C13.3258 43.6102 14.3909 43.904 15.4821 43.9748C16.5733 44.0456 17.6674 43.8919 18.6969 43.5233C19.7264 43.1547 20.6694 42.579 21.4677 41.8316C22.2659 41.0843 22.9025 40.1812 23.3381 39.1782C23.7737 38.1752 23.999 37.0936 24.0001 36.0001V10.0001Z" stroke="white" stroke-width="2" stroke-linecap="round" stroke-linejoin="round"/>
<path opacity="0.6" d="M18 26C19.6791 25.4093 21.1454 24.334 22.2133 22.91C23.2813 21.486 23.9031 19.7773 24 18" stroke="white" stroke-width="2" stroke-linecap="round" stroke-linejoin="round"/>
<path opacity="0.6" d="M12.0059 10.25C12.0454 11.2175 12.3185 12.161 12.8019 13" stroke="white" stroke-width="2" stroke-linecap="round" stroke-linejoin="round"/>
<path opacity="0.6" d="M6.9541 21.792C7.31998 21.494 7.71151 21.229 8.1241 21" stroke="white" stroke-width="2" stroke-linecap="round" stroke-linejoin="round"/>
<path opacity="0.6" d="M11.9999 36C10.6216 36.0007 9.26645 35.6452 8.06592 34.968" stroke="white" stroke-width="2" stroke-linecap="round" stroke-linejoin="round"/>
<path opacity="0.6" d="M24 26H32" stroke="white" stroke-width="2" stroke-linecap="round" stroke-linejoin="round"/>
<path opacity="0.6" d="M24 36H36C37.0609 36 38.0783 36.4214 38.8284 37.1716C39.5786 37.9217 40 38.9391 40 40V42" stroke="white" stroke-width="2" stroke-linecap="round" stroke-linejoin="round"/>
<path opacity="0.6" d="M24 16H40" stroke="white" stroke-width="2" stroke-linecap="round" stroke-linejoin="round"/>
<path opacity="0.6" d="M32 16V10C32 8.93913 32.4214 7.92172 33.1716 7.17157C33.9217 6.42143 34.9391 6 36 6" stroke="white" stroke-width="2" stroke-linecap="round" stroke-linejoin="round"/>
<path opacity="0.6" d="M32 27C32.5523 27 33 26.5523 33 26C33 25.4477 32.5523 25 32 25C31.4477 25 31 25.4477 31 26C31 26.5523 31.4477 27 32 27Z" stroke="white" stroke-width="2" stroke-linecap="round" stroke-linejoin="round"/>
<path opacity="0.6" d="M36 7C36.5523 7 37 6.55228 37 6C37 5.44772 36.5523 5 36 5C35.4477 5 35 5.44772 35 6C35 6.55228 35.4477 7 36 7Z" stroke="white" stroke-width="2" stroke-linecap="round" stroke-linejoin="round"/>
<path opacity="0.6" d="M40 43C40.5523 43 41 42.5523 41 42C41 41.4477 40.5523 41 40 41C39.4477 41 39 41.4477 39 42C39 42.5523 39.4477 43 40 43Z" stroke="white" stroke-width="2" stroke-linecap="round" stroke-linejoin="round"/>
<path opacity="0.6" d="M40 17C40.5523 17 41 16.5523 41 16C41 15.4477 40.5523 15 40 15C39.4477 15 39 15.4477 39 16C39 16.5523 39.4477 17 40 17Z" stroke="white" stroke-width="2" stroke-linecap="round" stroke-linejoin="round"/>
</svg>
