<svg width="48" height="48" viewBox="0 0 48 48" fill="none" xmlns="http://www.w3.org/2000/svg">
<path opacity="0.6" d="M8 18C6.93913 18 5.92172 18.4214 5.17157 19.1716C4.42143 19.9217 4 20.9391 4 22V26C4 27.0609 4.42143 28.0783 5.17157 28.8284C5.92172 29.5786 6.93913 30 8 30H16C16.5304 30 17.0391 30.2107 17.4142 30.5858C17.7893 30.9609 18 31.4696 18 32V40C18 41.0609 18.4214 42.0783 19.1716 42.8284C19.9217 43.5786 20.9391 44 22 44H26C27.0609 44 28.0783 43.5786 28.8284 42.8284C29.5786 42.0783 30 41.0609 30 40V32C30 31.4696 30.2107 30.9609 30.5858 30.5858C30.9609 30.2107 31.4696 30 32 30H40C41.0609 30 42.0783 29.5786 42.8284 28.8284C43.5786 28.0783 44 27.0609 44 26V22C44 20.9391 43.5786 19.9217 42.8284 19.1716C42.0783 18.4214 41.0609 18 40 18H32C31.4696 18 30.9609 17.7893 30.5858 17.4142C30.2107 17.0391 30 16.5304 30 16V8C30 6.93913 29.5786 5.92172 28.8284 5.17157C28.0783 4.42143 27.0609 4 26 4H22C20.9391 4 19.9217 4.42143 19.1716 5.17157C18.4214 5.92172 18 6.93913 18 8V16C18 16.5304 17.7893 17.0391 17.4142 17.4142C17.0391 17.7893 16.5304 18 16 18H8Z" stroke="white" stroke-width="2" stroke-linecap="round" stroke-linejoin="round"/>
</svg>
