<svg width="48" height="48" viewBox="0 0 48 48" fill="none" xmlns="http://www.w3.org/2000/svg">
<path opacity="0.6" d="M7.6999 17.24C7.40798 15.925 7.4528 14.5576 7.83021 13.2646C8.20762 11.9716 8.90539 10.7948 9.85883 9.84339C10.8123 8.89195 11.9905 8.19664 13.2843 7.82194C14.5781 7.44724 15.9456 7.40528 17.2599 7.69995C17.9833 6.56855 18.9799 5.63747 20.1578 4.99252C21.3357 4.34758 22.657 4.00952 23.9999 4.00952C25.3428 4.00952 26.6641 4.34758 27.842 4.99252C29.0199 5.63747 30.0165 6.56855 30.7399 7.69995C32.0562 7.404 33.426 7.44577 34.7219 7.82138C36.0178 8.19699 37.1976 8.89423 38.1516 9.84826C39.1056 10.8023 39.8029 11.9821 40.1785 13.278C40.5541 14.5738 40.5958 15.9436 40.2999 17.26C41.4313 17.9834 42.3624 18.98 43.0073 20.1579C43.6523 21.3357 43.9903 22.657 43.9903 24C43.9903 25.3429 43.6523 26.6642 43.0073 27.842C42.3624 29.0199 41.4313 30.0165 40.2999 30.74C40.5946 32.0543 40.5526 33.4217 40.1779 34.7155C39.8032 36.0093 39.1079 37.1876 38.1565 38.141C37.205 39.0945 36.0282 39.7922 34.7352 40.1696C33.4422 40.547 32.0748 40.5919 30.7599 40.2999C30.0374 41.4357 29.0401 42.3708 27.8601 43.0186C26.6802 43.6664 25.356 44.0061 24.0099 44.0061C22.6638 44.0061 21.3396 43.6664 20.1596 43.0186C18.9797 42.3708 17.9824 41.4357 17.2599 40.2999C15.9456 40.5946 14.5781 40.5527 13.2843 40.178C11.9905 39.8033 10.8123 39.108 9.85883 38.1565C8.90539 37.2051 8.20762 36.0283 7.83021 34.7353C7.4528 33.4423 7.40798 32.0749 7.6999 30.76C6.55981 30.0384 5.62073 29.0403 4.96999 27.8584C4.31926 26.6765 3.97803 25.3492 3.97803 24C3.97803 22.6507 4.31926 21.3234 4.96999 20.1415C5.62073 18.9596 6.55981 17.9615 7.6999 17.24Z" stroke="white" stroke-width="2" stroke-linecap="round" stroke-linejoin="round"/>
<path opacity="0.6" d="M18 24L22 28L30 20" stroke="white" stroke-width="2" stroke-linecap="round" stroke-linejoin="round"/>
</svg>
