<svg width="48" height="48" viewBox="0 0 48 48" fill="none" xmlns="http://www.w3.org/2000/svg">
<path opacity="0.6" d="M22.0339 5.62791C22.1196 5.16911 22.3631 4.75474 22.7221 4.45654C23.0811 4.15835 23.5332 3.99512 23.9999 3.99512C24.4666 3.99512 24.9187 4.15835 25.2777 4.45654C25.6368 4.75474 25.8802 5.16911 25.9659 5.62791L28.0679 16.7439C28.2172 17.5342 28.6013 18.2611 29.17 18.8298C29.7387 19.3986 30.4656 19.7826 31.2559 19.9319L42.3719 22.0339C42.8307 22.1196 43.2451 22.3631 43.5433 22.7221C43.8415 23.0811 44.0047 23.5332 44.0047 23.9999C44.0047 24.4666 43.8415 24.9187 43.5433 25.2777C43.2451 25.6368 42.8307 25.8802 42.3719 25.9659L31.2559 28.0679C30.4656 28.2172 29.7387 28.6013 29.17 29.17C28.6013 29.7387 28.2172 30.4656 28.0679 31.2559L25.9659 42.3719C25.8802 42.8307 25.6368 43.2451 25.2777 43.5433C24.9187 43.8415 24.4666 44.0047 23.9999 44.0047C23.5332 44.0047 23.0811 43.8415 22.7221 43.5433C22.3631 43.2451 22.1196 42.8307 22.0339 42.3719L19.9319 31.2559C19.7826 30.4656 19.3986 29.7387 18.8298 29.17C18.2611 28.6013 17.5342 28.2172 16.7439 28.0679L5.62791 25.9659C5.16911 25.8802 4.75474 25.6368 4.45654 25.2777C4.15835 24.9187 3.99512 24.4666 3.99512 23.9999C3.99512 23.5332 4.15835 23.0811 4.45654 22.7221C4.75474 22.3631 5.16911 22.1196 5.62791 22.0339L16.7439 19.9319C17.5342 19.7826 18.2611 19.3986 18.8298 18.8298C19.3986 18.2611 19.7826 17.5342 19.9319 16.7439L22.0339 5.62791Z" stroke="white" stroke-width="2" stroke-linecap="round" stroke-linejoin="round"/>
</svg>
