<svg width="48" height="48" viewBox="0 0 48 48" fill="none" xmlns="http://www.w3.org/2000/svg">
<path opacity="0.6" d="M24 36V10" stroke="white" stroke-width="2" stroke-linecap="round" stroke-linejoin="round"/>
<path opacity="0.6" d="M30 26C28.2696 25.4942 26.7497 24.4413 25.668 22.999C24.5863 21.5567 24.0011 19.8028 24 18C23.9989 19.8028 23.4137 21.5567 22.332 22.999C21.2503 24.4413 19.7304 25.4942 18 26" stroke="white" stroke-width="2" stroke-linecap="round" stroke-linejoin="round"/>
<path opacity="0.6" d="M35.196 13.0003C35.6562 12.2032 35.9269 11.311 35.9871 10.3927C36.0474 9.47428 35.8955 8.55435 35.5433 7.70405C35.1912 6.85375 34.6481 6.09586 33.9561 5.48902C33.2642 4.88218 32.4419 4.44266 31.5529 4.20445C30.6639 3.96624 29.7321 3.93574 28.8294 4.1153C27.9267 4.29486 27.0775 4.67967 26.3473 5.23995C25.6172 5.80024 25.0257 6.52099 24.6187 7.34644C24.2116 8.17189 24 9.07991 24 10.0003C24 9.07991 23.7884 8.17189 23.3813 7.34644C22.9743 6.52099 22.3828 5.80024 21.6527 5.23995C20.9225 4.67967 20.0733 4.29486 19.1706 4.1153C18.2679 3.93574 17.3361 3.96624 16.4471 4.20445C15.5581 4.44266 14.7358 4.88218 14.0439 5.48902C13.3519 6.09586 12.8088 6.85375 12.4567 7.70405C12.1045 8.55435 11.9526 9.47428 12.0129 10.3927C12.0731 11.311 12.3438 12.2032 12.804 13.0003" stroke="white" stroke-width="2" stroke-linecap="round" stroke-linejoin="round"/>
<path opacity="0.6" d="M35.9941 10.25C37.1697 10.5523 38.2611 11.1181 39.1857 11.9046C40.1102 12.6911 40.8437 13.6777 41.3305 14.7897C41.8172 15.9016 42.0446 17.1098 41.9954 18.3226C41.9461 19.5355 41.6215 20.7212 41.0461 21.79" stroke="white" stroke-width="2" stroke-linecap="round" stroke-linejoin="round"/>
<path opacity="0.6" d="M36 36.0003C37.761 36.0002 39.4728 35.4191 40.8699 34.347C42.2669 33.2749 43.2713 31.7718 43.727 30.0708C44.1828 28.3698 44.0646 26.566 43.3908 24.939C42.7169 23.312 41.525 21.9528 40 21.0723" stroke="white" stroke-width="2" stroke-linecap="round" stroke-linejoin="round"/>
<path opacity="0.6" d="M39.934 34.9661C40.0742 36.0505 39.9905 37.1522 39.6882 38.2031C39.3859 39.254 38.8714 40.2317 38.1764 41.076C37.4814 41.9202 36.6208 42.613 35.6476 43.1116C34.6743 43.6102 33.6092 43.9039 32.518 43.9747C31.4268 44.0455 30.3327 43.8919 29.3032 43.5233C28.2737 43.1547 27.3307 42.5789 26.5325 41.8316C25.7342 41.0842 25.0976 40.1812 24.6621 39.1782C24.2265 38.1752 24.0012 37.0936 24 36.0001C23.9988 37.0936 23.7735 38.1752 23.3379 39.1782C22.9023 40.1812 22.2658 41.0842 21.4675 41.8316C20.6693 42.5789 19.7263 43.1547 18.6968 43.5233C17.6673 43.8919 16.5731 44.0455 15.4819 43.9747C14.3907 43.9039 13.3257 43.6102 12.3524 43.1116C11.3792 42.613 10.5185 41.9202 9.82357 41.076C9.12859 40.2317 8.61406 39.254 8.31177 38.2031C8.00948 37.1522 7.92583 36.0505 8.066 34.9661" stroke="white" stroke-width="2" stroke-linecap="round" stroke-linejoin="round"/>
<path opacity="0.6" d="M12.0001 36.0003C10.2391 36.0002 8.52735 35.4191 7.13027 34.347C5.73319 33.2749 4.72888 31.7718 4.27309 30.0708C3.8173 28.3698 3.93551 26.566 4.60937 24.939C5.28324 23.312 6.47511 21.9528 8.00014 21.0723" stroke="white" stroke-width="2" stroke-linecap="round" stroke-linejoin="round"/>
<path opacity="0.6" d="M12.0059 10.25C10.8303 10.5523 9.73886 11.1181 8.81432 11.9046C7.88978 12.6911 7.15634 13.6777 6.66955 14.7897C6.18276 15.9016 5.95538 17.1098 6.00464 18.3226C6.0539 19.5355 6.3785 20.7212 6.95386 21.79" stroke="white" stroke-width="2" stroke-linecap="round" stroke-linejoin="round"/>
</svg>
