<svg width="48" height="48" viewBox="0 0 48 48" fill="none" xmlns="http://www.w3.org/2000/svg">
<path opacity="0.6" d="M34 6H38C39.0609 6 40.0783 6.42143 40.8284 7.17157C41.5786 7.92172 42 8.93913 42 10V14" stroke="white" stroke-width="2" stroke-linecap="round" stroke-linejoin="round"/>
<path opacity="0.6" d="M42 34V38C42 39.0609 41.5786 40.0783 40.8284 40.8284C40.0783 41.5786 39.0609 42 38 42H34" stroke="white" stroke-width="2" stroke-linecap="round" stroke-linejoin="round"/>
<path opacity="0.6" d="M6 14V10C6 8.93913 6.42143 7.92172 7.17157 7.17157C7.92172 6.42143 8.93913 6 10 6H14" stroke="white" stroke-width="2" stroke-linecap="round" stroke-linejoin="round"/>
<path opacity="0.6" d="M14 42H10C8.93913 42 7.92172 41.5786 7.17157 40.8284C6.42143 40.0783 6 39.0609 6 38V34" stroke="white" stroke-width="2" stroke-linecap="round" stroke-linejoin="round"/>
<path opacity="0.6" d="M15.6559 26.1403C14.5838 25.0188 13.9878 23.5256 13.993 21.9741C13.9981 20.4226 14.6041 18.9334 15.6838 17.8191C16.7634 16.7048 18.2327 16.052 19.7832 15.9978C21.3338 15.9436 22.8451 16.4921 23.9999 17.5283C25.1547 16.4921 26.666 15.9436 28.2166 15.9978C29.7672 16.052 31.2365 16.7048 32.3161 17.8191C33.3957 18.9334 34.0017 20.4226 34.0069 21.9741C34.0121 23.5256 33.4161 25.0188 32.3439 26.1403L25.4499 33.3803C25.2631 33.5766 25.0383 33.733 24.7892 33.8398C24.5402 33.9466 24.272 34.0017 24.0009 34.0017C23.7299 34.0017 23.4617 33.9466 23.2126 33.8398C22.9635 33.733 22.7387 33.5766 22.5519 33.3803L15.6559 26.1403Z" stroke="white" stroke-width="2" stroke-linecap="round" stroke-linejoin="round"/>
</svg>
