<svg width="48" height="48" viewBox="0 0 48 48" fill="none" xmlns="http://www.w3.org/2000/svg">
<path opacity="0.6" d="M22 30H26C27.0609 30 28.0783 29.5786 28.8284 28.8284C29.5786 28.0783 30 27.0609 30 26C30 24.9391 29.5786 23.9217 28.8284 23.1716C28.0783 22.4214 27.0609 22 26 22H20C18.8 22 17.8 22.4 17.2 23.2L6 34" stroke="white" stroke-width="2" stroke-linecap="round" stroke-linejoin="round"/>
<path opacity="0.6" d="M14 41.9996L17.2 39.1996C17.8 38.3996 18.8 37.9996 20 37.9996H28C30.2 37.9996 32.2 37.1996 33.6 35.5996L42.8 26.7996C43.5718 26.0702 44.0222 25.0642 44.0522 24.0027C44.0822 22.9412 43.6893 21.9113 42.96 21.1396C42.2307 20.3678 41.2246 19.9173 40.1631 19.8873C39.1017 19.8573 38.0718 20.2502 37.3 20.9796L28.9 28.7796" stroke="white" stroke-width="2" stroke-linecap="round" stroke-linejoin="round"/>
<path opacity="0.6" d="M4 32L16 44" stroke="white" stroke-width="2" stroke-linecap="round" stroke-linejoin="round"/>
<path opacity="0.6" d="M32 23.8C35.2032 23.8 37.7999 21.2032 37.7999 18C37.7999 14.7967 35.2032 12.2 32 12.2C28.7967 12.2 26.2 14.7967 26.2 18C26.2 21.2032 28.7967 23.8 32 23.8Z" stroke="white" stroke-width="2" stroke-linecap="round" stroke-linejoin="round"/>
<path opacity="0.6" d="M12 16C15.3137 16 18 13.3137 18 10C18 6.68629 15.3137 4 12 4C8.68629 4 6 6.68629 6 10C6 13.3137 8.68629 16 12 16Z" stroke="white" stroke-width="2" stroke-linecap="round" stroke-linejoin="round"/>
</svg>
