<svg width="48" height="48" viewBox="0 0 48 48" fill="none" xmlns="http://www.w3.org/2000/svg">
<path opacity="0.6" d="M29 44H36C37.0609 44 38.0783 43.5786 38.8284 42.8284C39.5786 42.0783 40 41.0609 40 40V16C40.0016 15.3662 39.8776 14.7384 39.6352 14.1528C39.3929 13.5672 39.037 13.0354 38.588 12.588L31.412 5.41201C30.9647 4.96305 30.4328 4.60713 29.8472 4.36478C29.2616 4.12243 28.6338 3.99846 28 4.00001H12C10.9391 4.00001 9.92172 4.42144 9.17157 5.17159C8.42143 5.92173 8 6.93915 8 8.00001V15.6" stroke="white" stroke-width="2" stroke-linecap="round" stroke-linejoin="round"/>
<path opacity="0.6" d="M28 4V14C28 14.5304 28.2107 15.0391 28.5858 15.4142C28.9609 15.7893 29.4696 16 30 16H40" stroke="white" stroke-width="2" stroke-linecap="round" stroke-linejoin="round"/>
<path opacity="0.6" d="M23.4001 28.4004L14.0001 34.0004L4.6001 28.4004" stroke="white" stroke-width="2" stroke-linecap="round" stroke-linejoin="round"/>
<path opacity="0.6" d="M6.00015 26.1996C5.38416 26.5556 4.87428 27.0695 4.52307 27.6882C4.17187 28.307 3.99204 29.0082 4.00215 29.7196V36.1996C3.97879 36.9118 4.14612 37.6174 4.48684 38.2432C4.82755 38.8691 5.32929 39.3926 5.94015 39.7596L12.0002 43.3996C12.6135 43.7649 13.3135 43.9595 14.0274 43.963C14.7414 43.9665 15.4432 43.7789 16.0602 43.4196L22.0002 39.7996C22.6165 39.4438 23.1268 38.9301 23.4784 38.3113C23.8299 37.6925 24.0101 36.9912 24.0002 36.2796V29.7996C24.0233 29.0872 23.8557 28.3815 23.5146 27.7556C23.1735 27.1297 22.6714 26.6063 22.0602 26.2396L16.0002 22.5996C15.3868 22.2342 14.6868 22.0397 13.9729 22.0362C13.2589 22.0327 12.5571 22.2203 11.9402 22.5796L6.00015 26.1996Z" stroke="white" stroke-width="2" stroke-linecap="round" stroke-linejoin="round"/>
<path opacity="0.6" d="M14 34V44" stroke="white" stroke-width="2" stroke-linecap="round" stroke-linejoin="round"/>
</svg>
