<svg width="48" height="48" viewBox="0 0 48 48" fill="none" xmlns="http://www.w3.org/2000/svg">
<path opacity="0.6" d="M38.14 9.85961C35.0257 6.74204 30.9691 4.74024 26.6002 4.16519C22.2313 3.59015 17.7949 4.47406 13.98 6.67961" stroke="white" stroke-width="2" stroke-linecap="round" stroke-linejoin="round"/>
<path opacity="0.6" d="M8 12H8.02" stroke="white" stroke-width="2" stroke-linecap="round" stroke-linejoin="round"/>
<path opacity="0.6" d="M4.57997 19.24C3.83016 22.2941 3.81113 25.482 4.52442 28.5448C5.23772 31.6077 6.66323 34.4592 8.68524 36.8678C10.7072 39.2764 13.2687 41.1742 16.1618 42.4072C19.0548 43.6402 22.1978 44.1736 25.3356 43.9641C28.4735 43.7545 31.5177 42.808 34.2211 41.2014C36.9245 39.5947 39.211 37.3731 40.8948 34.7171C42.5786 32.061 43.6124 29.0453 43.9121 25.9148C44.2119 22.7843 43.7692 19.6273 42.62 16.7" stroke="white" stroke-width="2" stroke-linecap="round" stroke-linejoin="round"/>
<path opacity="0.6" d="M32.4801 15.5201C31.3291 14.3624 29.954 13.4518 28.439 12.8438C26.9239 12.2359 25.3008 11.9435 23.6688 11.9845C22.0369 12.0255 20.4304 12.3991 18.9478 13.0823C17.4652 13.7655 16.1376 14.7441 15.0462 15.9581C13.9548 17.1721 13.1226 18.5961 12.6005 20.1428C12.0784 21.6895 11.8774 23.3265 12.0097 24.9536C12.1421 26.5807 12.605 28.1637 13.3702 29.6057C14.1354 31.0477 15.1868 32.3184 16.4601 33.3401" stroke="white" stroke-width="2" stroke-linecap="round" stroke-linejoin="round"/>
<path opacity="0.6" d="M24 36H24.02" stroke="white" stroke-width="2" stroke-linecap="round" stroke-linejoin="round"/>
<path opacity="0.6" d="M35.98 23.3203C36.0888 25.2231 35.7429 27.1243 34.9708 28.8668C34.1987 30.6092 33.0226 32.1427 31.54 33.3403" stroke="white" stroke-width="2" stroke-linecap="round" stroke-linejoin="round"/>
<path opacity="0.6" d="M24 28C26.2091 28 28 26.2091 28 24C28 21.7909 26.2091 20 24 20C21.7909 20 20 21.7909 20 24C20 26.2091 21.7909 28 24 28Z" stroke="white" stroke-width="2" stroke-linecap="round" stroke-linejoin="round"/>
<path opacity="0.6" d="M26.8201 21.1804L38.1401 9.86035" stroke="white" stroke-width="2" stroke-linecap="round" stroke-linejoin="round"/>
</svg>
