<svg width="33" height="18" viewBox="0 0 33 18" fill="none" xmlns="http://www.w3.org/2000/svg">
<g clip-path="url(#clip0_86_1054)">
<path d="M33 0H0V17.3547H33V0Z" fill="#B22234"/>
<path d="M0 2.00195H33H0ZM33 4.67191H0H33ZM0 7.34186H33H0ZM33 10.0118H0H33ZM0 12.6818H33H0ZM33 15.3517H0H33Z" fill="black"/>
<path d="M0 2.00195H33M33 4.67191H0M0 7.34186H33M33 10.0118H0M0 12.6818H33M33 15.3517H0" stroke="white" stroke-width="1.44864"/>
<path d="M13.2 0H0V9.34484H13.2V0Z" fill="#3C3B6E"/>
<path d="M1.10005 0.394531L1.41417 1.36053L0.591797 0.76351H1.60831L0.785934 1.36053L1.10005 0.394531Z" fill="white"/>
<path d="M1.10005 2.26367L1.41417 3.22967L0.591797 2.63265H1.60831L0.785934 3.22967L1.10005 2.26367Z" fill="white"/>
<path d="M1.10005 4.13281L1.41417 5.09881L0.591797 4.50179H1.60831L0.785934 5.09881L1.10005 4.13281Z" fill="white"/>
<path d="M1.10005 6.00195L1.41417 6.96795L0.591797 6.37093H1.60831L0.785934 6.96795L1.10005 6.00195Z" fill="white"/>
<path d="M1.10005 7.87109L1.41417 8.83709L0.591797 8.24007H1.60831L0.785934 8.83709L1.10005 7.87109Z" fill="white"/>
<path d="M2.19966 1.33203L2.51378 2.29803L1.69141 1.70101H2.70792L1.88554 2.29803L2.19966 1.33203Z" fill="white"/>
<path d="M2.19966 3.20117L2.51378 4.16717L1.69141 3.57015H2.70792L1.88554 4.16717L2.19966 3.20117Z" fill="white"/>
<path d="M2.19966 5.07031L2.51378 6.03631L1.69141 5.43929H2.70792L1.88554 6.03631L2.19966 5.07031Z" fill="white"/>
<path d="M2.19966 6.93945L2.51378 7.90545L1.69141 7.30843H2.70792L1.88554 7.90545L2.19966 6.93945Z" fill="white"/>
<path d="M3.29927 0.394531L3.61339 1.36053L2.79102 0.76351H3.80753L2.98515 1.36053L3.29927 0.394531Z" fill="white"/>
<path d="M3.29927 2.26367L3.61339 3.22967L2.79102 2.63265H3.80753L2.98515 3.22967L3.29927 2.26367Z" fill="white"/>
<path d="M3.29927 4.13281L3.61339 5.09881L2.79102 4.50179H3.80753L2.98515 5.09881L3.29927 4.13281Z" fill="white"/>
<path d="M3.29927 6.00195L3.61339 6.96795L2.79102 6.37093H3.80753L2.98515 6.96795L3.29927 6.00195Z" fill="white"/>
<path d="M3.29927 7.87109L3.61339 8.83709L2.79102 8.24007H3.80753L2.98515 8.83709L3.29927 7.87109Z" fill="white"/>
<path d="M4.39888 1.33203L4.713 2.29803L3.89062 1.70101H4.90714L4.08476 2.29803L4.39888 1.33203Z" fill="white"/>
<path d="M4.39888 3.20117L4.713 4.16717L3.89062 3.57015H4.90714L4.08476 4.16717L4.39888 3.20117Z" fill="white"/>
<path d="M4.39888 5.07031L4.713 6.03631L3.89062 5.43929H4.90714L4.08476 6.03631L4.39888 5.07031Z" fill="white"/>
<path d="M4.39888 6.93945L4.713 7.90545L3.89062 7.30843H4.90714L4.08476 7.90545L4.39888 6.93945Z" fill="white"/>
<path d="M5.50044 0.394531L5.81456 1.36053L4.99219 0.76351H6.0087L5.18632 1.36053L5.50044 0.394531Z" fill="white"/>
<path d="M5.50044 2.26367L5.81456 3.22967L4.99219 2.63265H6.0087L5.18632 3.22967L5.50044 2.26367Z" fill="white"/>
<path d="M5.50044 4.13281L5.81456 5.09881L4.99219 4.50179H6.0087L5.18632 5.09881L5.50044 4.13281Z" fill="white"/>
<path d="M5.50044 6.00195L5.81456 6.96795L4.99219 6.37093H6.0087L5.18632 6.96795L5.50044 6.00195Z" fill="white"/>
<path d="M5.50044 7.87109L5.81456 8.83709L4.99219 8.24007H6.0087L5.18632 8.83709L5.50044 7.87109Z" fill="white"/>
<path d="M6.60005 1.33203L6.91417 2.29803L6.0918 1.70101H7.10831L6.28593 2.29803L6.60005 1.33203Z" fill="white"/>
<path d="M6.60005 3.20117L6.91417 4.16717L6.0918 3.57015H7.10831L6.28593 4.16717L6.60005 3.20117Z" fill="white"/>
<path d="M6.60005 5.07031L6.91417 6.03631L6.0918 5.43929H7.10831L6.28593 6.03631L6.60005 5.07031Z" fill="white"/>
<path d="M6.60005 6.93945L6.91417 7.90545L6.0918 7.30843H7.10831L6.28593 7.90545L6.60005 6.93945Z" fill="white"/>
<path d="M7.69966 0.394531L8.01378 1.36053L7.19141 0.76351H8.20792L7.38554 1.36053L7.69966 0.394531Z" fill="white"/>
<path d="M7.69966 2.26367L8.01378 3.22967L7.19141 2.63265H8.20792L7.38554 3.22967L7.69966 2.26367Z" fill="white"/>
<path d="M7.69966 4.13281L8.01378 5.09881L7.19141 4.50179H8.20792L7.38554 5.09881L7.69966 4.13281Z" fill="white"/>
<path d="M7.69966 6.00195L8.01378 6.96795L7.19141 6.37093H8.20792L7.38554 6.96795L7.69966 6.00195Z" fill="white"/>
<path d="M7.69966 7.87109L8.01378 8.83709L7.19141 8.24007H8.20792L7.38554 8.83709L7.69966 7.87109Z" fill="white"/>
<path d="M8.79927 1.33203L9.11339 2.29803L8.29102 1.70101H9.30753L8.48515 2.29803L8.79927 1.33203Z" fill="white"/>
<path d="M8.79927 3.20117L9.11339 4.16717L8.29102 3.57015H9.30753L8.48515 4.16717L8.79927 3.20117Z" fill="white"/>
<path d="M8.79927 5.07031L9.11339 6.03631L8.29102 5.43929H9.30753L8.48515 6.03631L8.79927 5.07031Z" fill="white"/>
<path d="M8.79927 6.93945L9.11339 7.90545L8.29102 7.30843H9.30753L8.48515 7.90545L8.79927 6.93945Z" fill="white"/>
<path d="M9.90084 0.394531L10.215 1.36053L9.39258 0.76351H10.4091L9.58672 1.36053L9.90084 0.394531Z" fill="white"/>
<path d="M9.90084 2.26367L10.215 3.22967L9.39258 2.63265H10.4091L9.58672 3.22967L9.90084 2.26367Z" fill="white"/>
<path d="M9.90084 4.13281L10.215 5.09881L9.39258 4.50179H10.4091L9.58672 5.09881L9.90084 4.13281Z" fill="white"/>
<path d="M9.90084 6.00195L10.215 6.96795L9.39258 6.37093H10.4091L9.58672 6.96795L9.90084 6.00195Z" fill="white"/>
<path d="M9.90084 7.87109L10.215 8.83709L9.39258 8.24007H10.4091L9.58672 8.83709L9.90084 7.87109Z" fill="white"/>
<path d="M11.0004 1.33203L11.3146 2.29803L10.4922 1.70101H11.5087L10.6863 2.29803L11.0004 1.33203Z" fill="white"/>
<path d="M11.0004 3.20117L11.3146 4.16717L10.4922 3.57015H11.5087L10.6863 4.16717L11.0004 3.20117Z" fill="white"/>
<path d="M11.0004 5.07031L11.3146 6.03631L10.4922 5.43929H11.5087L10.6863 6.03631L11.0004 5.07031Z" fill="white"/>
<path d="M11.0004 6.93945L11.3146 7.90545L10.4922 7.30843H11.5087L10.6863 7.90545L11.0004 6.93945Z" fill="white"/>
<path d="M12.1001 0.400391L12.4142 1.36639L11.5918 0.769369H12.6083L11.7859 1.36639L12.1001 0.400391Z" fill="white"/>
<path d="M12.1001 2.26953L12.4142 3.23553L11.5918 2.63851H12.6083L11.7859 3.23553L12.1001 2.26953Z" fill="white"/>
<path d="M12.1001 4.13672L12.4142 5.10272L11.5918 4.5057H12.6083L11.7859 5.10272L12.1001 4.13672Z" fill="white"/>
<path d="M12.1001 6.00586L12.4142 6.97186L11.5918 6.37484H12.6083L11.7859 6.97186L12.1001 6.00586Z" fill="white"/>
<path d="M12.1001 7.87695L12.4142 8.84295L11.5918 8.24593H12.6083L11.7859 8.84295L12.1001 7.87695Z" fill="white"/>
</g>
<defs>
<clipPath id="clip0_86_1054">
<rect width="33" height="17.3547" fill="white"/>
</clipPath>
</defs>
</svg>
