<svg width="210" height="26" viewBox="0 0 210 26" fill="none" xmlns="http://www.w3.org/2000/svg">
<g clip-path="url(#clip0_86_992)">
<path d="M60.8473 7.50381V18.5148H63.5061C64.1847 18.5044 64.8543 18.3536 65.4754 18.0713C66.0965 17.789 66.6565 17.3809 67.1221 16.8712C68.078 15.8263 68.601 14.4374 68.5797 13.0002C68.5999 12.2864 68.4834 11.5754 68.2368 10.9082C67.9901 10.241 67.6183 9.63075 67.1425 9.11241C66.6749 8.60201 66.111 8.19587 65.4856 7.91898C64.8602 7.64209 64.1866 7.50032 63.5061 7.50241H60.8487L60.8473 7.50381ZM63.5061 4.05141C68.4617 4.05141 72.2106 8.01621 72.2106 13.0002C72.2106 17.9842 68.4617 21.9714 63.5061 21.9714H57.6421C57.5862 21.9707 57.531 21.9586 57.4796 21.9358C57.4282 21.913 57.3817 21.88 57.3426 21.8387C57.3036 21.7974 57.2728 21.7485 57.2521 21.6949C57.2314 21.6413 57.2211 21.5839 57.2218 21.5262V4.51481C57.2218 4.26841 57.4102 4.06821 57.6421 4.06821L63.5061 4.05141ZM84.984 18.8984C87.2347 18.9054 89.2672 17.476 90.1335 15.2766C90.5579 14.202 90.6714 13.0234 90.4601 11.8835C90.2488 10.7437 89.7218 9.69162 88.9431 8.85481C88.178 8.03174 87.1891 7.46771 86.107 7.23725C85.0249 7.00678 83.9005 7.12072 82.8825 7.56401C80.8026 8.47121 79.4441 10.6174 79.44 13.0002C79.44 16.2482 81.9171 18.883 84.984 18.8984ZM84.9854 3.64541C90.2013 3.64541 94.1889 7.89021 94.1889 13.0002C94.1889 18.1102 90.2013 22.355 84.984 22.355C79.7681 22.355 75.8145 18.1312 75.8145 13.0002C75.8145 7.86921 79.8034 3.64541 84.9854 3.64541ZM106.859 18.8984C109.928 18.89 112.41 16.2524 112.407 13.0044C112.403 9.75361 109.915 7.12161 106.848 7.12021C103.779 7.12021 101.289 9.75081 101.285 13.0002C101.285 14.5654 101.872 16.0662 102.918 17.1722C103.429 17.7173 104.042 18.1509 104.719 18.4474C105.395 18.7438 106.124 18.8972 106.859 18.8984ZM106.858 3.64541C112.058 3.64541 116.045 7.86921 116.045 13.0002C116.045 18.1312 112.041 22.355 106.858 22.355C101.676 22.355 97.6544 18.1312 97.6544 13.0002C97.6544 7.86921 101.642 3.64541 106.858 3.64541ZM128.207 7.50381H124.458V12.2428H128.207C128.503 12.2564 128.799 12.2071 129.076 12.098C129.353 11.9889 129.605 11.8224 129.818 11.6086C130.252 11.1746 130.498 10.5726 130.504 9.93981C130.515 9.61877 130.463 9.29877 130.351 8.999C130.239 8.69924 130.07 8.42591 129.853 8.19541C129.64 7.96857 129.384 7.79023 129.1 7.67184C128.817 7.55345 128.513 7.49764 128.207 7.50801V7.50381ZM120.831 4.51481C120.831 4.26841 121.021 4.06821 121.253 4.06821H128.311C131.677 4.06821 134.112 6.67921 134.112 9.95801C134.137 12.1756 132.965 14.2126 131.092 15.2052L134.348 21.2994C134.393 21.3695 134.418 21.451 134.421 21.535C134.424 21.6191 134.404 21.7023 134.364 21.7754C134.325 21.8474 134.266 21.9063 134.196 21.945C134.125 21.9837 134.045 22.0007 133.965 21.9938H131.109C131.029 21.995 130.951 21.973 130.884 21.9304C130.816 21.8878 130.761 21.8263 130.726 21.753L127.589 15.7218H124.445V21.5122C124.445 21.5701 124.435 21.6275 124.415 21.6813C124.394 21.7351 124.363 21.7841 124.324 21.8256C124.285 21.8671 124.239 21.9002 124.187 21.9231C124.136 21.9459 124.08 21.9581 124.024 21.9588H121.272C121.216 21.9581 121.16 21.9459 121.109 21.9231C121.058 21.9002 121.011 21.8671 120.972 21.8256C120.933 21.7841 120.902 21.7351 120.881 21.6813C120.861 21.6275 120.851 21.5701 120.852 21.5122L120.833 4.51621L120.831 4.51481ZM143.565 7.58781V18.6002H146.222C146.9 18.5907 147.57 18.4409 148.191 18.1595C148.813 17.8782 149.373 17.4711 149.839 16.9622C150.796 15.9185 151.32 14.5306 151.3 13.094C151.321 12.3793 151.206 11.6672 150.96 10.9988C150.714 10.3303 150.342 9.71872 149.867 9.19921C149.398 8.68795 148.833 8.2813 148.207 8.00439C147.58 7.72747 146.905 7.58617 146.223 7.58921L143.565 7.58781ZM146.222 4.13121C151.178 4.13121 154.927 8.10021 154.927 13.094C154.927 18.0878 151.178 22.0568 146.222 22.0568H140.376C140.32 22.0561 140.264 22.0439 140.213 22.0211C140.161 21.9982 140.115 21.9651 140.076 21.9236C140.037 21.8821 140.006 21.8331 139.985 21.7793C139.965 21.7255 139.954 21.6681 139.955 21.6102V4.60021C139.955 4.35241 140.144 4.15221 140.376 4.15221L146.222 4.13121ZM165.985 8.51041L163.928 14.3988H168.038L165.985 8.51041ZM162.721 17.7266L161.375 21.6466C161.348 21.7388 161.292 21.8192 161.216 21.8749C161.14 21.9307 161.048 21.9587 160.955 21.9546H158.034C157.96 21.9618 157.885 21.9481 157.817 21.9151C157.75 21.8821 157.692 21.831 157.65 21.767C157.608 21.7023 157.582 21.6274 157.576 21.5494C157.569 21.4714 157.582 21.393 157.614 21.3218L163.924 4.32721C163.953 4.23759 164.01 4.16036 164.086 4.10728C164.162 4.05421 164.253 4.0282 164.344 4.03321H167.612C167.704 4.02788 167.795 4.05375 167.871 4.10685C167.947 4.15994 168.004 4.23735 168.034 4.32721L174.344 21.3218C174.375 21.3931 174.388 21.4716 174.381 21.5496C174.375 21.6275 174.349 21.7024 174.306 21.767C174.264 21.8307 174.206 21.8816 174.139 21.9143C174.071 21.9471 173.996 21.9605 173.922 21.9532H171.003C170.91 21.9573 170.818 21.9293 170.742 21.8735C170.666 21.8178 170.61 21.7374 170.583 21.6452L169.236 17.7252H162.721V17.7266ZM177.729 8.89261C177.729 6.07861 180.026 3.64541 183.653 3.64541C185.606 3.60038 187.497 4.35478 188.914 5.74401C188.957 5.78614 188.991 5.83693 189.015 5.89326C189.038 5.94959 189.05 6.01028 189.05 6.07161C189.05 6.13295 189.038 6.19363 189.015 6.24996C188.991 6.30629 188.957 6.35708 188.914 6.39921L187.296 8.10021C187.257 8.14153 187.211 8.1744 187.16 8.19684C187.109 8.21928 187.053 8.23085 186.998 8.23085C186.942 8.23085 186.887 8.21928 186.836 8.19684C186.785 8.1744 186.738 8.14153 186.699 8.10021C185.938 7.36286 184.937 6.94509 183.893 6.92841C182.442 6.92841 181.37 7.82021 181.37 8.84921C181.37 12.1756 189.943 10.2562 189.943 16.657C189.939 19.9008 187.624 22.355 183.532 22.355C182.396 22.367 181.269 22.1429 180.218 21.6961C179.167 21.2492 178.214 20.5887 177.416 19.7538C177.373 19.7117 177.338 19.6609 177.315 19.6046C177.291 19.5482 177.279 19.4875 177.279 19.4262C177.279 19.3649 177.291 19.3042 177.315 19.2479C177.338 19.1915 177.373 19.1407 177.416 19.0986L178.981 17.441C179.02 17.3977 179.067 17.3631 179.119 17.3395C179.172 17.3158 179.228 17.3036 179.286 17.3036C179.343 17.3036 179.4 17.3158 179.452 17.3395C179.505 17.3631 179.552 17.3977 179.591 17.441C180.576 18.4489 181.902 19.0213 183.288 19.037C185.101 19.037 186.295 18.0122 186.295 16.7284C186.295 13.4006 177.727 15.3214 177.727 8.91921M205.489 4.49241V11.218H198.232V4.49241C198.233 4.43468 198.223 4.37737 198.202 4.32375C198.181 4.27013 198.15 4.22126 198.111 4.17992C198.072 4.13857 198.026 4.10558 197.974 4.08281C197.923 4.06004 197.868 4.04794 197.812 4.04721H195.06C195.004 4.04794 194.948 4.06004 194.897 4.08281C194.846 4.10558 194.799 4.13857 194.76 4.17992C194.721 4.22126 194.69 4.27013 194.67 4.32375C194.649 4.37737 194.639 4.43468 194.639 4.49241V21.4842C194.639 21.7306 194.829 21.9308 195.06 21.9308H197.812C198.042 21.9308 198.232 21.7306 198.232 21.4842V14.6522H205.483V21.4842C205.483 21.7306 205.673 21.9308 205.904 21.9308H208.656C208.888 21.9308 209.076 21.7306 209.076 21.4842V4.49241C209.077 4.43468 209.067 4.37737 209.046 4.32375C209.025 4.27013 208.995 4.22126 208.955 4.17992C208.916 4.13857 208.87 4.10558 208.819 4.08281C208.767 4.06004 208.712 4.04794 208.656 4.04721H205.904C205.792 4.05015 205.685 4.09853 205.608 4.18186C205.53 4.26519 205.487 4.37677 205.489 4.49241ZM41.7719 6.31521C39.8629 2.66121 36.1276 0.386211 32.0654 0.400211H1.33117C1.12362 0.401081 0.920897 0.464996 0.748272 0.583993C0.575648 0.70299 0.440751 0.871808 0.36039 1.06941C0.281204 1.26575 0.26058 1.48202 0.301161 1.69053C0.341741 1.89905 0.441678 2.0903 0.588172 2.23981L7.28333 9.09981C7.87448 9.70741 8.67985 10.0476 9.51776 10.0476H31.1841C32.7285 10.0308 33.9907 11.2936 34.007 12.8658C34.0233 14.438 32.7854 15.726 31.2411 15.7414H16.3038C16.096 15.7415 15.893 15.8047 15.7198 15.9233C15.5467 16.0418 15.4112 16.2103 15.3303 16.4078C15.2503 16.6044 15.2292 16.8211 15.2695 17.0302C15.3099 17.2393 15.4099 17.4311 15.5567 17.581L22.2559 24.4466C22.8508 25.0539 23.6538 25.394 24.4903 25.393H31.2465C40.0365 25.393 46.6828 15.817 41.7719 6.31101" fill="white" fill-opacity="0.6"/>
</g>
<defs>
<clipPath id="clip0_86_992">
<rect width="208.8" height="25.2" fill="white" transform="translate(0.264282 0.400024)"/>
</clipPath>
</defs>
</svg>
