<svg width="71" height="28" viewBox="0 0 71 28" fill="none" xmlns="http://www.w3.org/2000/svg">
<g clip-path="url(#clip0_86_988)">
<path d="M5.70441 0.876587H0.666565V5.91444H5.70441V0.876587Z" fill="white" fill-opacity="0.6"/>
<path d="M5.57874 27.1235V8.98008H0.809814V27.1235H5.57874ZM37.2759 27.3028V22.8566C36.5767 22.8566 35.9851 22.8207 35.5548 22.749C35.0528 22.6773 34.6763 22.498 34.4254 22.247C34.1744 21.996 34.013 21.6374 33.9234 21.1713C33.8516 20.7231 33.8158 20.1315 33.8158 19.4143V13.0677H37.2759V8.98008H33.8158V1.89841H29.0289V19.4502C29.0289 20.9382 29.1544 22.1932 29.4054 23.1972C29.6564 24.1833 30.0867 24.99 30.6783 25.5996C31.27 26.2092 32.0588 26.6394 33.009 26.9084C33.9771 27.1773 35.1963 27.3028 36.6485 27.3028H37.2759ZM64.6704 27.1235V0.5H59.8835V27.1235H64.6704ZM24.4214 10.755C23.0947 9.32072 21.2301 8.60359 18.8636 8.60359C17.7162 8.60359 16.6763 8.83665 15.7261 9.30279C14.7939 9.76892 13.9871 10.4143 13.3596 11.239L13.0907 11.5797V11.2749V8.98008H8.37555V27.1235H13.1265V17.4602V18.1235C13.1265 18.0159 13.1265 17.9084 13.1265 17.8008C13.1803 16.0976 13.5927 14.8426 14.3815 14.0359C15.2242 13.1753 16.2461 12.745 17.4114 12.745C18.7919 12.745 19.8497 13.1753 20.5489 14C21.2301 14.8247 21.5887 15.99 21.5887 17.4781V17.5139V27.1056H26.4114V16.8147C26.4293 14.2331 25.7481 12.1892 24.4214 10.755ZM57.4094 18.0159C57.4094 16.7072 57.1763 15.488 56.7281 14.3406C56.262 13.2112 55.6166 12.2072 54.8098 11.3466C53.9851 10.4861 52.9991 9.82271 51.8516 9.33864C50.7042 8.85458 49.4313 8.62151 48.0508 8.62151C46.7421 8.62151 45.505 8.87251 44.3576 9.35657C43.2102 9.85857 42.2062 10.5219 41.3636 11.3645C40.521 12.2072 39.8397 13.2112 39.3556 14.3586C38.8536 15.506 38.6206 16.743 38.6206 18.0518C38.6206 19.3606 38.8536 20.5976 39.3198 21.745C39.7859 22.8924 40.4493 23.8964 41.274 24.739C42.0987 25.5817 43.1206 26.2629 44.3038 26.747C45.4871 27.249 46.7959 27.5 48.1943 27.5C52.2461 27.5 54.756 25.6534 56.262 23.9323L52.8198 21.3147C52.1026 22.1753 50.3815 23.3406 48.2301 23.3406C46.8855 23.3406 45.774 23.0359 44.9313 22.4084C44.0887 21.7988 43.515 20.9382 43.2102 19.8805L43.1564 19.7191H57.4094V18.0159ZM43.1923 16.3486C43.1923 15.0219 44.7162 12.7092 47.9971 12.6912C51.2779 12.6912 52.8198 15.004 52.8198 16.3307L43.1923 16.3486Z" fill="white" fill-opacity="0.6"/>
<path d="M70.1207 24.7573C70.0311 24.5422 69.9056 24.3629 69.7442 24.2016C69.5829 24.0402 69.4036 23.9147 69.1885 23.8251C68.9733 23.7354 68.7403 23.6816 68.5072 23.6816C68.2562 23.6816 68.0411 23.7354 67.8259 23.8251C67.6108 23.9147 67.4315 24.0402 67.2701 24.2016C67.1088 24.3629 66.9833 24.5422 66.8936 24.7573C66.804 24.9725 66.7502 25.2055 66.7502 25.4386C66.7502 25.6896 66.804 25.9047 66.8936 26.1199C66.9833 26.335 67.1088 26.5143 67.2701 26.6757C67.4315 26.837 67.6108 26.9625 67.8259 27.0522C68.0411 27.1418 68.2741 27.1956 68.5072 27.1956C68.7582 27.1956 68.9733 27.1418 69.1885 27.0522C69.4036 26.9625 69.5829 26.837 69.7442 26.6757C69.9056 26.5143 70.0311 26.335 70.1207 26.1199C70.2104 25.9047 70.2642 25.6717 70.2642 25.4386C70.2642 25.2055 70.2104 24.9725 70.1207 24.7573ZM69.8339 26.0123C69.7622 26.1916 69.6546 26.353 69.5291 26.4785C69.4036 26.6039 69.2422 26.7115 69.063 26.7832C68.8837 26.8549 68.7044 26.8908 68.4893 26.8908C68.292 26.8908 68.0948 26.8549 67.9156 26.7832C67.7363 26.7115 67.5749 26.6039 67.4494 26.4785C67.3239 26.353 67.2163 26.1916 67.1446 26.0123C67.0729 25.833 67.0371 25.6538 67.0371 25.4386C67.0371 25.2414 67.0729 25.0442 67.1446 24.8649C67.2163 24.6856 67.3239 24.5243 67.4494 24.3988C67.5749 24.2733 67.7363 24.1657 67.9156 24.094C68.0948 24.0223 68.2741 23.9864 68.4893 23.9864C68.6865 23.9864 68.8837 24.0223 69.063 24.094C69.2422 24.1657 69.4036 24.2733 69.5291 24.3988C69.6546 24.5243 69.7622 24.6856 69.8339 24.8649C69.9056 25.0442 69.9414 25.2235 69.9414 25.4386C69.9594 25.6538 69.9056 25.833 69.8339 26.0123ZM68.8299 25.582C68.9733 25.5641 69.0809 25.5103 69.1705 25.4207C69.2602 25.331 69.314 25.2055 69.314 25.0263C69.314 24.8291 69.2602 24.6856 69.1347 24.5781C69.0271 24.4705 68.8299 24.4167 68.5968 24.4167H67.808V26.4426H68.1845V25.6179H68.4534L68.9554 26.4426H69.3498L68.8299 25.582ZM68.6327 25.2952C68.5789 25.2952 68.5251 25.2952 68.4534 25.2952H68.1845V24.7215H68.4534C68.5072 24.7215 68.561 24.7215 68.6327 24.7215C68.6865 24.7215 68.7403 24.7394 68.794 24.7573C68.8478 24.7753 68.8837 24.8111 68.9016 24.847C68.9195 24.8828 68.9375 24.9366 68.9375 25.0083C68.9375 25.08 68.9195 25.1338 68.9016 25.1697C68.8658 25.2055 68.8299 25.2414 68.794 25.2593C68.7403 25.2773 68.6865 25.2952 68.6327 25.2952Z" fill="white" fill-opacity="0.6"/>
</g>
<defs>
<clipPath id="clip0_86_988">
<rect width="69.5976" height="27" fill="white" transform="translate(0.666534 0.5)"/>
</clipPath>
</defs>
</svg>
