<svg width="122" height="36" viewBox="0 0 122 36" fill="none" xmlns="http://www.w3.org/2000/svg">
<g clip-path="url(#clip0_86_1000)">
<path d="M0.526855 25.44V0.584839H5.01032V25.44H0.526855Z" fill="white" fill-opacity="0.6"/>
<path d="M16.4869 7.40735C10.7385 7.40735 6.7605 11.7114 6.7605 16.6379C6.7605 22.1361 11.0881 25.9237 16.5315 25.9237C21.6977 25.9237 26.1807 22.2058 26.1807 16.626C26.1807 11.9339 22.4659 7.40735 16.4869 7.40735ZM16.4341 11.6192C19.4424 11.6192 21.6567 13.8996 21.6567 16.6537C21.6567 19.5738 19.2153 21.704 16.5153 21.704C13.3249 21.704 11.3171 19.2415 11.3171 16.6616C11.3171 13.8337 13.5839 11.6192 16.4341 11.6192Z" fill="white" fill-opacity="0.6"/>
<path d="M37.4452 7.40735C31.6968 7.40735 27.7189 11.7114 27.7189 16.6379C27.7189 22.1361 32.0464 25.9237 37.4899 25.9237C42.6561 25.9237 47.1391 22.2058 47.1391 16.626C47.1391 13.3402 45.6779 11.8823 45.6779 11.8823L46.9206 11.4673V7.9238H40.5528C40.5528 7.9238 39.1723 7.40735 37.4452 7.40735ZM37.3924 11.6192C40.4007 11.6192 42.615 13.8996 42.615 16.6537C42.615 19.5738 40.1737 21.704 37.4737 21.704C34.2833 21.704 32.2754 19.2415 32.2754 16.6616C32.2754 13.8337 34.5423 11.6192 37.3924 11.6192Z" fill="white" fill-opacity="0.6"/>
<path d="M42.5834 26.6544C42.5834 29.5745 40.1421 31.7205 37.442 31.7205C34.2516 31.7205 32.2357 29.2343 32.2357 26.6544H27.6873C27.6873 32.1526 32.0148 35.9403 37.4583 35.9403C42.6244 35.9403 47.1075 32.2342 47.1075 26.6544H42.5834Z" fill="white" fill-opacity="0.6"/>
<path d="M48.9348 25.4391V7.92407H53.4183V25.4391H48.9348Z" fill="white" fill-opacity="0.6"/>
<path d="M57.7708 25.4396V11.8477H55.3666V7.92455H57.7708V2.54602H62.2542V7.92455H64.7234V11.8477H62.2542V25.4396H57.7708Z" fill="white" fill-opacity="0.6"/>
<path d="M54.1361 2.94908C54.1361 4.54586 52.8069 5.8403 51.1672 5.8403C49.5275 5.8403 48.1982 4.54586 48.1982 2.94908C48.1982 1.35231 49.5275 0.0578613 51.1672 0.0578613C52.8069 0.0578613 54.1361 1.35231 54.1361 2.94908Z" fill="white" fill-opacity="0.6"/>
<path d="M74.8038 7.39587C69.0281 7.39587 65.3048 11.7022 65.3048 16.7965C65.3048 22.0608 69.0405 25.936 74.8972 25.936C80.3604 25.936 83.0478 22.614 83.0478 22.614L80.0507 19.6914C80.0507 19.6914 77.7878 22.0682 74.954 22.0682C72.5918 22.0682 70.7031 20.7843 70.0441 18.4298H84.0143V17.2275C84.0143 12.4303 81.1631 7.39587 74.8038 7.39587ZM74.6616 11.2399C76.727 11.2399 78.8392 12.316 79.3116 14.8863H69.9223C70.2942 13.0795 71.9173 11.2399 74.6616 11.2399Z" fill="white" fill-opacity="0.6"/>
<path d="M95.2292 25.9385C89.4373 25.9385 85.4907 21.6426 85.4907 16.5775C85.4907 11.3503 89.951 7.39282 95.2106 7.39282C100.295 7.39282 102.898 10.8882 102.898 10.8882L99.7702 13.9202C99.7702 13.9202 97.9584 11.6406 95.1893 11.6406C92.1203 11.6406 90.0218 13.9269 90.0218 16.6445C90.0218 19.5141 92.2541 21.7156 95.1548 21.7156C97.9685 21.7156 99.7658 19.4397 99.7658 19.4397L102.925 22.4701C102.925 22.4701 100.347 25.9385 95.2292 25.9385Z" fill="white" fill-opacity="0.6"/>
<path d="M104.556 25.4522V0.521118H109.039V9.68091C109.039 9.68091 110.756 7.39289 114.491 7.39289C119.185 7.39289 121.905 10.7914 121.905 15.1381V25.4522H117.422V15.798C117.422 12.8778 115.555 11.6663 113.486 11.6663C111.13 11.6663 109.039 12.9722 109.039 16.024V25.4522H104.556Z" fill="white" fill-opacity="0.6"/>
</g>
<defs>
<clipPath id="clip0_86_1000">
<rect width="121.5" height="36" fill="white" transform="translate(0.464111)"/>
</clipPath>
</defs>
</svg>
