<svg width="142" height="18" viewBox="0 0 142 18" fill="none" xmlns="http://www.w3.org/2000/svg">
<path d="M61.2846 11.712H70.6068L65.6827 3.91198L56.6297 18H52.513L63.5234 1.09798C63.7634 0.760706 64.0824 0.484765 64.4535 0.293274C64.8246 0.101783 65.2371 0.000318046 65.6564 -0.00261987C66.0757 -0.00555779 66.4897 0.0901166 66.8635 0.276388C67.2374 0.46266 67.5603 0.734104 67.8052 1.06798L78.8462 18H74.7295L72.7905 14.85H63.3583L61.303 11.712M104.078 14.85V0.16798H100.579V16.296C100.579 16.5201 100.625 16.742 100.714 16.9483C100.803 17.1546 100.934 17.3409 101.099 17.496C101.265 17.6622 101.463 17.794 101.682 17.8837C101.9 17.9734 102.135 18.019 102.372 18.018H118.276L120.349 14.868H104.06M46.231 12.228C47.8614 12.228 49.425 11.5927 50.5779 10.4618C51.7308 9.33099 52.3785 7.79724 52.3785 6.19798C52.3785 4.59872 51.7308 3.06497 50.5779 1.93413C49.425 0.803282 47.8614 0.16798 46.231 0.16798H30.9388V18H34.4315V3.32398H46.0169C46.7972 3.32398 47.5456 3.62804 48.0974 4.16927C48.6491 4.7105 48.9591 5.44457 48.9591 6.20998C48.9591 6.97539 48.6491 7.70946 48.0974 8.25069C47.5456 8.79192 46.7972 9.09598 46.0169 9.09598H36.1626L46.598 18H51.6689L44.6589 12.228H46.231ZM9.45628 18H20.0201C22.3892 17.9397 24.6407 16.9742 26.2946 15.3092C27.9485 13.6443 28.874 11.4116 28.874 9.08698C28.874 6.76236 27.9485 4.52966 26.2946 2.86472C24.6407 1.19978 22.3892 0.234279 20.0201 0.17398H9.45628C8.24317 0.143104 7.03604 0.35081 5.90607 0.784848C4.7761 1.21889 3.74617 1.87047 2.87703 2.70117C2.00788 3.53188 1.31712 4.52488 0.845461 5.62162C0.373806 6.71837 0.130814 7.89665 0.130814 9.08698C0.130814 10.2773 0.373806 11.4556 0.845461 12.5523C1.31712 13.6491 2.00788 14.6421 2.87703 15.4728C3.74617 16.3035 4.7761 16.9551 5.90607 17.3891C7.03604 17.8232 8.24317 18.0309 9.45628 18ZM19.7816 14.862H9.68872C8.16171 14.8137 6.71372 14.1847 5.65095 13.1081C4.58819 12.0315 3.99398 10.5916 3.99398 9.09298C3.99398 7.59437 4.58819 6.15451 5.65095 5.07789C6.71372 4.00126 8.16171 3.37229 9.68872 3.32398H19.7816C20.5699 3.29904 21.3553 3.4298 22.091 3.7085C22.8268 3.98719 23.498 4.40813 24.0646 4.9463C24.6312 5.48446 25.0818 6.12887 25.3895 6.84122C25.6972 7.55357 25.8557 8.31933 25.8557 9.09298C25.8557 9.86663 25.6972 10.6324 25.3895 11.3447C25.0818 12.0571 24.6312 12.7015 24.0646 13.2397C23.498 13.7778 22.8268 14.1988 22.091 14.4775C21.3553 14.7562 20.5699 14.8869 19.7816 14.862ZM86.1436 18H96.9277L98.9707 14.862H86.3822C85.5939 14.8869 84.8085 14.7562 84.0727 14.4775C83.337 14.1988 82.6658 13.7778 82.0992 13.2397C81.5326 12.7015 81.082 12.0571 80.7743 11.3447C80.4666 10.6324 80.3081 9.86663 80.3081 9.09298C80.3081 8.31933 80.4666 7.55357 80.7743 6.84122C81.082 6.12887 81.5326 5.48446 82.0992 4.9463C82.6658 4.40813 83.337 3.98719 84.0727 3.7085C84.8085 3.4298 85.5939 3.29904 86.3822 3.32398H96.628L98.6955 0.17398H86.1436C84.9305 0.143104 83.7234 0.35081 82.5934 0.784848C81.4635 1.21889 80.4335 1.87047 79.5644 2.70117C78.6952 3.53188 78.0045 4.52488 77.5328 5.62162C77.0612 6.71837 76.8182 7.89665 76.8182 9.08698C76.8182 10.2773 77.0612 11.4556 77.5328 12.5523C78.0045 13.6491 78.6952 14.6421 79.5644 15.4728C80.4335 16.3035 81.4635 16.9551 82.5934 17.3891C83.7234 17.8232 84.9305 18.0309 86.1436 18ZM128.882 14.862C127.601 14.8625 126.354 14.4525 125.332 13.6944C124.309 12.9363 123.567 11.8716 123.218 10.662H138.156L140.211 7.51798H123.218C123.566 6.30787 124.308 5.24255 125.331 4.48432C126.353 3.72609 127.6 3.31651 128.882 3.31798H139.134L141.183 0.16798H128.644C126.275 0.228279 124.023 1.19378 122.369 2.85872C120.715 4.52366 119.79 6.75636 119.79 9.08098C119.79 11.4056 120.715 13.6383 122.369 15.3032C124.023 16.9682 126.275 17.9337 128.644 17.994H139.428L141.477 14.856H128.876" fill="white" fill-opacity="0.6"/>
</svg>
