<svg width="78" height="28" viewBox="0 0 78 28" fill="none" xmlns="http://www.w3.org/2000/svg">
<g clip-path="url(#clip0_86_994)">
<path d="M4.51961 19.7829C4.84669 20.6552 5.29953 21.4009 5.87821 22.0203C6.45689 22.6397 7.14246 23.1137 7.93491 23.4424C8.72744 23.771 9.58911 23.9353 10.52 23.9353C11.4258 23.9353 12.2748 23.7647 13.0674 23.4233C13.8599 23.082 14.5517 22.6017 15.1429 21.9824C15.7341 21.3629 16.1933 20.6235 16.5204 19.764C16.8475 18.9044 17.011 17.9438 17.011 16.8819V0.499878H20.9735V27.0448H17.0487V24.5799C16.1682 25.5153 15.1303 26.2358 13.9353 26.7415C12.7402 27.2471 11.4509 27.4999 10.0672 27.4999C8.65821 27.4999 7.3437 27.2534 6.12346 26.7604C4.90331 26.2674 3.84657 25.5659 2.9535 24.6558C2.06043 23.7456 1.35591 22.6524 0.840189 21.3756C0.324387 20.0989 0.0665283 18.6769 0.0665283 17.1094V0.499878H4.02903V16.8819C4.02903 17.9438 4.19253 18.9107 4.51961 19.7829Z" fill="white" fill-opacity="0.6"/>
<path d="M27.8032 0.5V10.1699C28.6838 9.28511 29.7028 8.58363 30.86 8.06532C32.0173 7.54702 33.2753 7.28791 34.6338 7.28791C36.0428 7.28791 37.3635 7.55331 38.5963 8.0842C39.8291 8.6151 40.8983 9.33562 41.804 10.2458C42.7098 11.1559 43.4268 12.2303 43.9552 13.4691C44.4835 14.7079 44.7476 16.0225 44.7476 17.413C44.7476 18.8033 44.4835 20.1116 43.9552 21.3377C43.4268 22.5639 42.7098 23.632 41.804 24.542C40.8983 25.4522 39.8291 26.1727 38.5963 26.7036C37.3635 27.2345 36.0427 27.4999 34.6338 27.4999C33.2752 27.4999 32.0111 27.2408 30.8412 26.7225C29.6713 26.2043 28.646 25.5027 27.7655 24.6179V27.0449H23.9917V0.5H27.8032ZM28.2372 20.0295C28.5768 20.8385 29.0486 21.5464 29.6524 22.1531C30.2562 22.7599 30.9607 23.2403 31.7657 23.5942C32.5709 23.9481 33.4388 24.1251 34.3697 24.1251C35.2755 24.1251 36.1308 23.9481 36.9358 23.5942C37.7409 23.2403 38.439 22.76 39.0304 22.1531C39.6216 21.5465 40.0933 20.8385 40.4455 20.0295C40.7977 19.2205 40.9738 18.3484 40.9738 17.413C40.9738 16.4775 40.7977 15.599 40.4455 14.7774C40.0933 13.9557 39.6216 13.2416 39.0304 12.6348C38.4391 12.0282 37.741 11.5541 36.9358 11.2128C36.1307 10.8716 35.2754 10.7008 34.3697 10.7008C33.464 10.7008 32.6086 10.8715 31.8035 11.2128C30.9985 11.5542 30.2941 12.0282 29.6902 12.6348C29.0864 13.2416 28.6084 13.9557 28.2561 14.7774C27.9039 15.599 27.7278 16.4775 27.7278 17.413C27.7277 18.3484 27.8976 19.2205 28.2372 20.0295Z" fill="white" fill-opacity="0.6"/>
<path d="M46.8983 13.5071C47.4014 12.2936 48.0934 11.2256 48.9739 10.3028C49.8543 9.38006 50.8985 8.65324 52.1062 8.12235C53.3138 7.59145 54.6221 7.32605 56.0309 7.32605C57.4147 7.32605 58.6978 7.57887 59.8803 8.08442C61.0627 8.59006 62.0816 9.29162 62.937 10.1891C63.7924 11.0865 64.4592 12.1484 64.9371 13.3745C65.4151 14.6006 65.6541 15.9342 65.6541 17.3752V18.6267H49.9929C50.1187 19.4104 50.3703 20.1372 50.7476 20.807C51.1251 21.477 51.5967 22.0585 52.1628 22.5514C52.7289 23.0445 53.3704 23.43 54.0875 23.708C54.8045 23.9861 55.5655 24.1252 56.3706 24.1252C58.6601 24.1252 60.5093 23.1771 61.9182 21.281L64.673 23.3288C63.717 24.6181 62.5346 25.6294 61.1257 26.3625C59.7168 27.0956 58.1318 27.4622 56.3707 27.4622C54.9366 27.4622 53.597 27.2093 52.3516 26.7038C51.1062 26.1982 50.0244 25.4903 49.1061 24.5801C48.1878 23.6699 47.4645 22.6019 46.9362 21.3758C46.4079 20.1497 46.1437 18.8161 46.1437 17.3751C46.1435 16.01 46.3952 14.7206 46.8983 13.5071ZM52.2005 12.0092C51.1313 12.9067 50.4206 14.1012 50.0683 15.5928H61.8049C61.4779 14.1012 60.7797 12.9067 59.7104 12.0092C58.6412 11.1118 57.3895 10.663 55.9555 10.663C54.5214 10.663 53.2698 11.1118 52.2005 12.0092Z" fill="white" fill-opacity="0.6"/>
<path d="M72.7866 12.4446C71.9816 13.3295 71.579 14.5303 71.579 16.0472V27.0445H67.7674V7.70453H71.5412V10.0936C72.0192 9.30987 72.6419 8.69046 73.4092 8.23542C74.1765 7.7803 75.0886 7.55273 76.1453 7.55273H77.4661V11.1174H75.8811C74.6232 11.1174 73.5917 11.5598 72.7866 12.4446Z" fill="white" fill-opacity="0.6"/>
</g>
<defs>
<clipPath id="clip0_86_994">
<rect width="77.4" height="27" fill="white" transform="translate(0.06427 0.5)"/>
</clipPath>
</defs>
</svg>
