<svg width="64" height="64" viewBox="0 0 64 64" fill="none" xmlns="http://www.w3.org/2000/svg">
<path d="M19.0052 15.0888L19.0219 15.0999V15.0833C19.0219 15.0833 19.0108 15.0833 19.0052 15.0833V15.0888Z" stroke="#E0E0E0" stroke-opacity="0.6" stroke-linecap="round" stroke-linejoin="round"/>
<path d="M34.5099 37.7334C34.5099 38.4012 34.3152 38.8465 33.92 39.0691C33.5305 39.2917 33.0407 39.236 32.4619 38.9021C31.8832 38.5682 31.399 38.0618 31.0038 37.3828C30.6143 36.7094 30.4139 36.036 30.4139 35.3738C30.4139 34.7115 30.6143 34.2607 31.0038 34.0381C31.399 33.8155 31.8832 33.8711 32.4619 34.2051C33.0407 34.539 33.5305 35.0454 33.92 35.7188C34.3152 36.3978 34.5099 37.0711 34.5099 37.7334Z" stroke="#E0E0E0" stroke-opacity="0.6" stroke-linecap="round" stroke-linejoin="round"/>
<path d="M46.7924 43.1263V56.5771L44.7499 55.392V62.4429L24.2755 50.6226V45.92L40.6539 55.3809V38.6963C40.6539 37.7336 40.5927 36.7708 40.4647 35.7969C40.4202 35.4073 40.3589 35.0122 40.2866 34.617C40.025 33.0977 39.6021 31.5617 39.04 30.0202C38.3833 28.2337 37.5318 26.4417 36.48 24.6275C34.9106 21.9228 33.152 19.6188 31.1986 17.7043C29.6848 16.224 28.0598 14.983 26.3179 13.9756C26.1565 13.8866 26.0007 13.7976 25.8448 13.7085C25.0768 13.2911 24.3367 12.9516 23.6188 12.679C23.5909 12.6678 23.5687 12.6623 23.5408 12.6567C21.9826 12.0723 20.5357 11.8442 19.1945 11.961C18.1148 12.0445 17.1019 12.3617 16.1614 12.896C14.9815 13.5694 14.0577 14.5099 13.3732 15.7176C12.4494 17.3704 11.9875 19.513 11.9875 22.1454V36.4814L5.84351 32.9308V19.4852L7.89147 20.665L8.00831 18.4056L8.04731 17.6431C8.32001 15.1332 8.9934 13.0574 10.0675 11.4045C11.1249 9.77948 12.455 8.58852 14.0466 7.84278L14.1356 7.79826C15.7551 7.06365 17.6028 6.82434 19.6898 7.09704C19.9402 7.13043 20.1906 7.16939 20.4411 7.21948C22.0105 7.50887 23.6411 8.09321 25.3273 8.96695C25.6557 9.13948 25.984 9.31756 26.3179 9.51235C26.8633 9.82956 27.3975 10.1635 27.9318 10.5252C27.9708 10.5475 28.0153 10.5753 28.0542 10.6031C29.7461 11.7607 31.3655 13.1353 32.9238 14.7325C33.113 14.9273 33.3022 15.1221 33.4803 15.3224C35.3391 17.3092 37.0142 19.4908 38.5001 21.8616C39.8469 24.0042 40.999 26.2414 41.9451 28.5677C41.9562 28.5788 41.9617 28.5899 41.9617 28.601C42.1676 29.0963 42.3625 29.5917 42.5461 30.0981C42.9023 31.072 43.2195 32.0459 43.4866 33.0198C43.52 33.12 43.5478 33.2257 43.5756 33.3259C43.648 33.5986 43.7203 33.8657 43.7871 34.1384C44.16 35.6577 44.4327 37.1715 44.5941 38.6797L44.7499 41.9409L46.7924 43.1263Z" stroke="#E0E0E0" stroke-opacity="0.6" stroke-linecap="round" stroke-linejoin="round"/>
<path d="M18.9106 15.033L18.2038 15.3891C18.4654 15.2667 18.7324 15.1665 19.0051 15.0886L18.9106 15.033Z" stroke="#E0E0E0" stroke-opacity="0.6" stroke-linecap="round" stroke-linejoin="round"/>
<path d="M23.5409 12.6567C23.5409 12.6567 23.5297 12.7012 23.5242 12.7235L19.0275 14.9774L18.9107 15.033L18.2039 15.3892L17.8143 15.584C17.6641 15.6675 17.5138 15.7565 17.3635 15.8511C17.23 15.9402 17.102 16.0292 16.974 16.1294C14.8258 17.76 13.8575 20.6038 14.0856 24.6497C15.1152 24.7555 16.078 24.7276 16.974 24.5551C17.5862 24.4438 18.1704 24.2713 18.7214 24.0264L19.4505 23.6591L23.1179 21.8337V24.7443L18.8439 26.8814L18.7214 26.9426C18.3764 27.1429 18.1816 27.5047 18.1427 28.0389C18.1371 28.1169 18.1315 28.1948 18.1315 28.2782C18.1315 28.9461 18.3263 29.6139 18.7214 30.2929C19.111 30.9718 19.6008 31.4727 20.1795 31.8122C20.4022 31.9402 20.6136 32.0292 20.8084 32.0682L11.9875 36.4814V22.1454C11.9875 19.513 12.4494 17.3704 13.3732 15.7231C14.0577 14.5099 14.9816 13.5694 16.1614 12.896C17.1019 12.3617 18.1148 12.0445 19.1945 11.961C20.5357 11.8442 21.9826 12.0723 23.5409 12.6567Z" stroke="#E0E0E0" stroke-opacity="0.6" stroke-linecap="round" stroke-linejoin="round"/>
<path d="M40.6539 43.3877V55.3808L24.2755 45.92L35.4059 40.3547L40.6539 43.3877Z" stroke="#E0E0E0" stroke-opacity="0.6" stroke-linecap="round" stroke-linejoin="round"/>
<path d="M57.9229 37.5611L51.7844 40.6332L46.7924 43.1263L44.75 41.9409L51.7844 38.4237L55.8804 36.3757L57.9229 37.5611Z" stroke="#E0E0E0" stroke-opacity="0.6" stroke-linecap="round" stroke-linejoin="round"/>
<path d="M8.00831 18.4055L7.89147 20.665L5.84351 19.4852L8.00831 18.4055Z" stroke="#E0E0E0" stroke-opacity="0.6" stroke-linecap="round" stroke-linejoin="round"/>
<path d="M22.2274 30.6436C22.2274 30.9552 22.1829 31.2168 22.0938 31.4283C21.9992 31.6732 21.8435 31.8568 21.6375 31.9793C21.3982 32.1128 21.1255 32.1462 20.8138 32.0683C20.619 32.0293 20.4076 31.9403 20.185 31.8123C19.6062 31.4728 19.1164 30.9719 18.7269 30.293C18.3317 29.614 18.137 28.9462 18.137 28.2784C18.137 28.1949 18.1426 28.117 18.1481 28.0391C18.1871 27.5048 18.3818 27.1431 18.7269 26.9427L18.8494 26.8815C19.2167 26.7368 19.6618 26.8092 20.185 27.1097C20.7637 27.4492 21.2479 27.95 21.643 28.629C21.9825 29.2245 22.1773 29.8088 22.2218 30.3932C22.2274 30.4766 22.233 30.5601 22.233 30.6436H22.2274Z" stroke="#E0E0E0" stroke-opacity="0.6" stroke-linecap="round" stroke-linejoin="round"/>
<path d="M38.6059 35.4574C37.1422 34.5947 35.7342 33.5596 34.3819 32.352C32.8904 31.0219 31.4712 29.4859 30.1133 27.7384C30.0855 27.705 30.0577 27.666 30.0299 27.6327C28.85 26.1022 27.8038 24.5161 26.8744 22.8633C26.4459 22.112 26.0507 21.3384 25.6778 20.5537C25.0489 19.2514 24.498 17.9047 24.0194 16.5245C23.8079 17.6041 23.5074 18.5836 23.1179 19.4629C22.5001 20.8709 21.6486 22.0174 20.5634 22.8967C20.2072 23.1861 19.8399 23.442 19.4504 23.6591L18.7213 24.0264C18.1703 24.2713 17.586 24.4438 16.9739 24.5551C16.0779 24.7276 15.1151 24.7554 14.0855 24.6497C13.8573 20.6038 14.8257 17.76 16.9739 16.1294C17.1019 16.0292 17.2299 15.9401 17.3634 15.8511C17.5137 15.7565 17.664 15.6674 17.8143 15.584L18.2038 15.3892C18.4653 15.2667 18.7325 15.1666 19.0052 15.0887L19.0219 15.0998V15.0831C20.274 14.7214 21.6543 14.7547 23.168 15.1833C23.8525 15.3836 24.5648 15.6619 25.2994 16.0181C25.6667 16.2017 26.0452 16.3965 26.4236 16.6191C27.4365 17.2034 28.4048 17.888 29.3342 18.6671C29.3509 18.6838 29.3676 18.6949 29.3787 18.706C31.2264 20.2699 32.9071 22.2233 34.4319 24.5662C35.762 26.6087 36.786 28.6845 37.5094 30.7881C38.0381 32.3297 38.4055 33.888 38.6059 35.4574Z" stroke="#E0E0E0" stroke-opacity="0.6" stroke-linecap="round" stroke-linejoin="round"/>
<path d="M22.0938 31.4282C22.1828 31.2167 22.2273 30.9551 22.2273 30.6435C22.2273 30.56 22.2218 30.4765 22.2162 30.393C22.1717 29.8087 21.977 29.2243 21.6375 28.6288C21.2424 27.9499 20.7582 27.449 20.1794 27.1095C19.6563 26.809 19.2111 26.7367 18.8438 26.8814L23.1178 24.7443L26.8743 22.8633C27.8037 24.5162 28.85 26.1022 30.0298 27.6327C30.0576 27.6661 30.0855 27.705 30.1133 27.7384L21.6375 31.9791C21.8434 31.8567 21.9992 31.673 22.0938 31.4282Z" stroke="#E0E0E0" stroke-opacity="0.6" stroke-linecap="round" stroke-linejoin="round"/>
<path d="M34.5099 37.7336C34.5099 37.0714 34.3152 36.398 33.92 35.719C33.5305 35.0456 33.0407 34.5392 32.4619 34.2053C31.8832 33.8714 31.399 33.8157 31.0038 34.0383L34.3819 32.3521C35.7342 33.5597 37.1423 34.5948 38.6059 35.4574L40.2866 34.6171C40.3589 35.0122 40.4202 35.4074 40.4647 35.7969L33.92 39.0693C34.3152 38.8467 34.5099 38.4014 34.5099 37.7336Z" stroke="#E0E0E0" stroke-opacity="0.6" stroke-linecap="round" stroke-linejoin="round"/>
<path d="M57.9229 37.561V51.0122L55.8804 52.0362L51.3837 54.2845L46.7924 56.5776V43.1263L51.7844 40.633L57.9229 37.561Z" stroke="#E0E0E0" stroke-opacity="0.6" stroke-linecap="round" stroke-linejoin="round"/>
<path d="M55.8803 52.0361V56.8776L44.7499 62.4429V55.392L46.7924 56.5771L51.3837 54.2845L55.8803 52.0361Z" stroke="#E0E0E0" stroke-opacity="0.6" stroke-linecap="round" stroke-linejoin="round"/>
<path d="M25.6779 20.5539L23.1179 21.8339L19.4504 23.6593C19.84 23.4422 20.2073 23.1862 20.5635 22.8968C21.6487 22.0175 22.5001 20.8711 23.1179 19.4631C23.5074 18.5838 23.8079 17.6043 24.0194 16.5247C24.498 17.9048 25.049 19.2516 25.6779 20.5539Z" stroke="#E0E0E0" stroke-opacity="0.6" stroke-linecap="round" stroke-linejoin="round"/>
<path d="M55.8803 36.3757L51.7843 38.4237L44.7499 41.941L44.5941 38.6797C44.4327 37.1716 44.16 35.6578 43.7871 34.1385C43.7203 33.8658 43.648 33.5987 43.5756 33.326C43.5478 33.2258 43.52 33.1201 43.4866 33.0199C43.2194 32.046 42.9023 31.0721 42.5461 30.0982C42.3625 29.5917 42.1676 29.0964 41.9617 28.6011C41.9617 28.59 41.9618 28.5789 41.9451 28.5677C40.999 26.2415 39.8469 24.0043 38.5001 21.8616C37.0142 19.4909 35.3391 17.3093 33.4803 15.3225C33.3022 15.1222 33.113 14.9274 32.9238 14.7326C31.3655 13.1354 29.7461 11.7608 28.0542 10.6032C28.0153 10.5754 27.9708 10.5476 27.9318 10.5253C27.3975 10.1636 26.8633 9.82965 26.3179 9.51243C25.984 9.31765 25.6557 9.13956 25.3273 8.96704C23.6411 8.0933 22.0105 7.50895 20.4411 7.21956C20.1906 7.16947 19.9402 7.13052 19.6898 7.09713C17.6028 6.82443 15.7551 7.06374 14.1356 7.79834L24.7485 2.49467H24.7541C24.9155 2.40006 25.0769 2.32215 25.2439 2.24423C26.8633 1.4985 28.7221 1.25919 30.8202 1.53189C32.9239 1.80458 35.1332 2.60597 37.4483 3.94719C39.769 5.28841 41.9728 7.03035 44.0542 9.16739C46.1356 11.31 47.9944 13.6863 49.6306 16.2964C51.2723 18.9065 52.6192 21.6502 53.6765 24.533C54.7339 27.4157 55.4185 30.2763 55.7245 33.1145L55.8803 36.3757Z" stroke="#E0E0E0" stroke-opacity="0.6" stroke-linecap="round" stroke-linejoin="round"/>
<path d="M40.2865 34.617L38.6059 35.4574C38.4056 33.888 38.0382 32.3297 37.5095 30.7882C36.786 28.6845 35.7621 26.6087 34.432 24.5663C32.9071 22.2233 31.2264 20.2699 29.3787 18.7061C29.3676 18.695 29.351 18.6838 29.3343 18.6671C28.4049 17.888 27.4365 17.2035 26.4236 16.6191C26.0452 16.3965 25.6668 16.2017 25.2995 16.0181C24.5649 15.6619 23.8525 15.3837 23.168 15.1833C21.6543 14.7548 20.274 14.7214 19.0219 15.0831V14.9774L23.5241 12.729L23.6187 12.679C24.3366 12.9517 25.0768 13.2911 25.8448 13.7085C26.0006 13.7976 26.1565 13.8866 26.3179 13.9757C28.0598 14.983 29.6848 16.224 31.1985 17.7043C33.1519 19.6188 34.9105 21.9228 36.4799 24.6275C37.5318 26.4417 38.3832 28.2337 39.0399 30.0202C39.602 31.5617 40.025 33.0977 40.2865 34.617Z" stroke="#E0E0E0" stroke-opacity="0.6" stroke-linecap="round" stroke-linejoin="round"/>
</svg>
