<svg width="64" height="64" viewBox="0 0 64 64" fill="none" xmlns="http://www.w3.org/2000/svg">
<g clip-path="url(#clip0_86_938)">
<path d="M40.484 62.0417C40.9216 61.8667 41.3428 61.6588 41.7585 61.4236C41.8078 61.3962 41.857 61.3689 41.9063 61.3361L40.484 62.0417Z" stroke="#E0E0E0" stroke-opacity="0.6" stroke-linecap="round" stroke-linejoin="round"/>
<path d="M51.7361 56.4349C52.0643 56.2926 52.3871 56.134 52.6989 55.9535L51.7361 56.4349Z" stroke="#E0E0E0" stroke-opacity="0.6" stroke-linecap="round" stroke-linejoin="round"/>
<path d="M47.9343 44.9148L39.4995 40.0464L35.2001 37.563L33.1378 36.3705L28.5593 33.7285V11.5035C30.9443 13.1664 33.1652 15.1029 35.2001 17.3128C36.7371 18.9593 38.1648 20.7589 39.4995 22.7063C40.2653 23.8222 40.9983 24.9873 41.7039 26.2071C42.6174 27.7825 43.427 29.3579 44.1436 30.9388C45.0899 33.0283 45.8612 35.1234 46.4684 37.2184C47.2123 39.7729 47.6991 42.3384 47.9343 44.9148Z" stroke="#E0E0E0" stroke-opacity="0.6" stroke-linecap="round" stroke-linejoin="round"/>
<path d="M58.874 44.3788C58.3653 50.0349 56.3034 53.8967 52.6986 55.9535L51.7358 56.4349L51.6373 56.4786L41.9279 61.3196C43.5525 60.3624 44.8599 59.0222 45.8281 57.2991C46.9659 55.3135 47.666 52.8301 47.934 49.8489L58.874 44.3788Z" stroke="#E0E0E0" stroke-opacity="0.6" stroke-linecap="round" stroke-linejoin="round"/>
<path d="M58.8745 44.3787L47.9343 49.8488L39.4995 44.9804L35.2001 42.497L28.5593 38.6625L33.1378 36.3705L35.2001 37.563L39.4995 40.0464L47.9343 44.9148L54.2961 41.7366L58.8745 44.3787Z" stroke="#E0E0E0" stroke-opacity="0.6" stroke-linecap="round" stroke-linejoin="round"/>
<path d="M47.9343 49.8488C47.6663 52.83 46.9661 55.3135 45.8284 57.2991C44.8602 59.0222 43.5528 60.3624 41.9281 61.3196L41.9064 61.336L40.4841 62.0417C37.1309 63.4092 33.1542 63.0263 28.5593 60.893V38.6625L35.2001 42.497L39.4995 44.9805L47.9343 49.8488Z" stroke="#E0E0E0" stroke-opacity="0.6" stroke-linecap="round" stroke-linejoin="round"/>
<path d="M28.559 11.5036V33.7285L33.1376 36.3706L28.559 38.6625V56.2598L24.2596 58.4095V9.02014L35.1998 3.55005V8.18322L28.559 11.5036Z" stroke="#E0E0E0" stroke-opacity="0.6" stroke-linecap="round" stroke-linejoin="round"/>
<path d="M24.2598 9.02009V58.4095C18.746 54.6023 14.1346 49.2744 10.415 42.4204C6.69534 35.5719 4.83546 28.9421 4.83546 22.5312C4.83546 16.1203 6.69534 11.5746 10.415 9.01462C10.7651 8.77393 11.1206 8.55513 11.4871 8.36368L11.859 8.17769C13.7079 7.27513 15.7537 6.94146 18.0019 7.16573C19.9383 7.36812 22.028 7.98077 24.2598 9.02009Z" stroke="#E0E0E0" stroke-opacity="0.6" stroke-linecap="round" stroke-linejoin="round"/>
<path d="M35.1999 3.55L24.2598 9.0201C22.028 7.98078 19.9383 7.36813 18.0019 7.16574C15.7537 6.94146 13.7079 7.27514 11.859 8.1777L22.3452 2.93735L22.5804 2.81702C26.0758 1.02283 30.2769 1.2635 35.1999 3.55Z" stroke="#E0E0E0" stroke-opacity="0.6" stroke-linecap="round" stroke-linejoin="round"/>
<path d="M58.8745 39.4447L54.2961 41.7367L47.9343 44.9148C47.6991 42.3384 47.2123 39.7729 46.4684 37.2184C45.8612 35.1234 45.0899 33.0283 44.1436 30.9387C43.427 29.3579 42.6174 27.7825 41.7039 26.2071C40.9983 24.9873 40.2653 23.8222 39.4995 22.7063C38.1648 20.7589 36.7371 18.9593 35.2001 17.3128C33.1652 15.1028 30.9443 13.1664 28.5593 11.5035L39.4995 6.03345C44.6906 9.64917 49.0667 14.5504 52.6441 20.737C56.2161 26.9182 58.2947 33.1541 58.8745 39.4447Z" stroke="#E0E0E0" stroke-opacity="0.6" stroke-linecap="round" stroke-linejoin="round"/>
<path d="M11.4871 8.36371L11.4487 8.38012" stroke="#E0E0E0" stroke-opacity="0.6" stroke-linecap="round" stroke-linejoin="round"/>
</g>
<defs>
<clipPath id="clip0_86_938">
<rect width="64" height="64" fill="white"/>
</clipPath>
</defs>
</svg>
