<svg width="64" height="64" viewBox="0 0 64 64" fill="none" xmlns="http://www.w3.org/2000/svg">
<path d="M50.1135 50.9215C50.4674 50.9215 50.8231 50.7138 51.0418 50.4252C51.3994 49.9509 51.4545 49.3673 51.5032 48.8516C51.5143 48.7368 51.5253 48.6219 51.5391 48.5088C51.5961 48.0612 51.801 47.5097 52.1935 47.4289C52.2909 47.4086 52.4104 47.4151 52.5354 47.4215C52.6521 47.4261 52.7688 47.4325 52.8819 47.4252C53.3663 47.3939 53.8277 47.1072 54.1163 46.6586C54.4058 46.2083 54.4747 45.6669 54.301 45.2101C54.1595 44.8406 53.8929 44.5428 53.6567 44.2809C53.3764 43.9675 53.1337 43.6972 53.1466 43.3948C53.1641 43.0336 53.5207 42.7809 54.062 42.4362C54.1981 42.3498 54.3323 42.2643 54.4563 42.1761C55.3552 41.5364 55.9582 40.4334 56.0703 39.2266C56.1668 38.1844 55.9177 37.0658 55.3497 35.9914C55.2872 35.8719 55.2211 35.7542 55.154 35.6357C54.9196 35.2184 54.6981 34.825 54.6448 34.4068C54.5657 33.7772 54.8635 33.154 55.1788 32.495L55.3571 32.1173C55.881 30.9656 56.1926 29.6936 56.2578 28.438C56.2744 28.109 56.2863 27.8553 56.3966 27.6834C56.483 27.5437 56.6512 27.4353 56.8194 27.3379C56.9076 27.2873 57.0087 27.1825 57.0345 27.0851C57.0593 26.9868 57.0823 26.8618 57.0299 26.7754C54.9223 23.2864 51.9407 20.3902 48.4067 18.3985C48.2983 18.336 48.1659 18.3333 48.0538 18.3902L47.9012 18.4629L48.0106 18.8277L47.8525 18.4858C46.6255 19.0557 45.5786 19.2542 44.6576 19.0961C44.0124 18.984 43.4113 18.6963 42.7744 18.3912C42.5234 18.2708 42.2716 18.1504 42.017 18.041C40.779 17.5033 39.7201 17.4206 38.869 17.7919C38.5905 17.9132 38.3415 18.0796 38.1006 18.2413C37.7348 18.4858 37.3893 18.7175 37.0271 18.7202C36.7036 18.7073 36.3488 18.5621 35.9986 18.404C35.4049 18.1366 34.7339 17.8323 34.0915 18.2634C33.2983 18.7993 33.4619 19.9013 33.8433 20.6825C34.3415 21.6972 35.0593 22.6145 35.9196 23.336C36.0124 23.4132 36.1457 23.5244 36.154 23.5851C36.1576 23.6108 36.1301 23.6945 35.9995 23.8232C35.4766 24.3434 34.7394 24.5676 33.9591 24.8048C33.3562 24.9877 32.733 25.177 32.176 25.5162C31.9858 25.6301 31.7109 25.8195 31.551 26.1246C31.4003 26.4077 31.3755 26.7285 31.4793 27.0493C31.6714 27.6393 32.2431 28.0925 32.7137 28.3213C33.4766 28.6936 34.2973 28.904 35.0905 29.1081C35.5905 29.2368 36.1071 29.3691 36.5924 29.5391C37.2624 29.7754 38.8589 30.4757 39.2054 31.8792C39.2597 32.0989 39.2808 32.3259 39.3029 32.5539C39.3212 32.734 39.3387 32.9151 39.369 33.0934C39.5859 34.4123 40.4646 35.6062 41.6622 36.2083C41.7477 36.2496 41.8378 36.2928 41.8663 36.3268C41.9407 36.4197 41.7211 36.7891 41.6393 36.9279C40.9334 38.1173 40.9416 39.5823 41.6604 40.5741C41.995 41.0345 42.4361 41.3259 42.9012 41.3939C43.3451 41.4573 43.7495 41.3195 44.1098 41.1991C44.4104 41.098 44.688 41.0033 44.9518 41.0318C45.6301 41.1072 46.0014 42.0189 46.1291 42.4068L46.2302 42.7211C46.4426 43.3948 46.6825 44.1577 47.312 44.6366C47.6429 44.8847 48.0124 45.007 48.37 45.1255C48.5124 45.1733 48.6558 45.2202 48.7937 45.2763C49.1383 45.4151 49.5143 45.6807 49.5363 46.0107C49.5492 46.1936 49.4563 46.4013 49.3589 46.6209L49.2946 46.768C48.8415 47.8397 48.813 49.0787 49.2155 50.166C49.2881 50.3654 49.4021 50.6173 49.6411 50.779C49.7891 50.8774 49.9508 50.9215 50.1135 50.9215ZM52.3571 46.6623C52.256 46.6623 52.1494 46.6687 52.0409 46.6917C51.3782 46.8277 50.9113 47.472 50.7927 48.4151C50.7771 48.5355 50.7652 48.6577 50.7541 48.7809C50.7109 49.2368 50.6696 49.6678 50.4407 49.9711C50.3277 50.1209 50.1301 50.2009 50.0611 50.154C49.9959 50.1099 49.9407 49.9573 49.9223 49.9068C49.585 48.995 49.6089 47.9583 49.9876 47.0612L50.0473 46.9261C50.1714 46.6458 50.313 46.3287 50.2881 45.9592C50.2477 45.3838 49.7955 44.8682 49.0758 44.5777C48.9233 44.5162 48.7643 44.4629 48.6062 44.4105C48.2927 44.3066 47.9968 44.2092 47.7661 44.0355C47.3286 43.7037 47.1438 43.1164 46.9481 42.495L46.8442 42.1706C46.472 41.0428 45.8295 40.3719 45.0354 40.2836C44.6218 40.2331 44.2183 40.3673 43.869 40.4849C43.5621 40.5888 43.2753 40.6862 43.0097 40.6494C42.7514 40.6108 42.4812 40.4224 42.2698 40.132C41.7339 39.3921 41.7404 38.2322 42.2863 37.3121C42.4848 36.9776 42.8543 36.3535 42.4508 35.8526C42.3148 35.6862 42.1411 35.6026 42.0014 35.5355C41.0143 35.0401 40.29 34.0566 40.1117 32.9702C40.0841 32.8066 40.0685 32.643 40.0529 32.4794C40.0262 32.2165 39.9995 31.9546 39.937 31.6991C39.6301 30.4592 38.5023 29.4132 36.8424 28.8296C36.3258 28.6476 35.7937 28.5116 35.278 28.3792C34.4867 28.1752 33.7385 27.9831 33.0437 27.6439C32.6383 27.4482 32.2909 27.1072 32.1953 26.8158C32.154 26.689 32.1613 26.5814 32.2165 26.4766C32.2725 26.3691 32.3828 26.2698 32.5648 26.1605C33.0427 25.87 33.5942 25.7018 34.1779 25.5244C35.0124 25.2717 35.8755 25.0088 36.529 24.3581C36.8148 24.0777 36.9407 23.7827 36.9003 23.4831C36.8516 23.1329 36.5942 22.9187 36.4067 22.7616C35.6227 22.1044 34.972 21.2717 34.5198 20.3507C34.2606 19.8195 34.1475 19.1347 34.5124 18.8875C34.7918 18.6991 35.1411 18.8425 35.688 19.0897C36.0942 19.2735 36.5758 19.4812 37.0363 19.4739C37.6218 19.4675 38.0988 19.1485 38.5198 18.8663C38.7431 18.7175 38.9536 18.5759 39.1705 18.4812C39.8231 18.1972 40.6788 18.2809 41.7183 18.7322C41.9646 18.8379 42.2073 18.9546 42.449 19.0704C43.1043 19.3838 43.7817 19.7083 44.5299 19.8388C45.6089 20.0244 46.8001 19.8048 48.1687 19.1697C48.1696 19.1687 48.1705 19.1687 48.1714 19.1678L48.1475 19.1173C51.4122 20.9812 54.1843 23.6458 56.1889 26.8452C56.0262 26.9601 55.8736 27.098 55.7587 27.2818C55.5446 27.6191 55.5253 28.0033 55.5087 28.3415C55.4453 29.5612 55.1567 30.7386 54.6714 31.8048L54.4995 32.1697C54.1512 32.8985 53.7909 33.6522 53.8984 34.5005C53.9692 35.0649 54.2376 35.5428 54.4977 36.0051C54.5611 36.1173 54.6245 36.2294 54.6843 36.3425C55.1834 37.2873 55.403 38.2607 55.3203 39.1568C55.2284 40.1494 54.7431 41.0483 54.0207 41.5621C53.9058 41.643 53.7826 41.722 53.6576 41.8011C53.1117 42.1485 52.4315 42.5805 52.3948 43.3599C52.3681 43.9711 52.7551 44.4022 53.097 44.7836C53.3075 45.018 53.506 45.2404 53.597 45.4785C53.6861 45.7129 53.6438 46.0015 53.483 46.2515C53.3231 46.4996 53.0804 46.6577 52.8332 46.6733C52.744 46.6807 52.6595 46.6743 52.5749 46.6697C52.506 46.666 52.4325 46.6623 52.3571 46.6623ZM48.0942 18.9527L48.0813 18.9766L48.0106 18.8277L48.0942 18.9527ZM40.188 59.1255C40.938 59.1255 41.7422 58.9472 42.4591 58.6026C43.1071 58.291 43.6659 57.8544 44.2063 57.4325C45.4793 56.439 46.7404 55.3379 46.96 53.7735C47.154 52.3774 46.4536 51.1651 45.7753 49.9932C45.4352 49.404 45.0832 48.7956 44.8617 48.1844C44.7992 48.0125 44.7459 47.836 44.6926 47.6605C44.6172 47.4132 44.5418 47.1669 44.4453 46.9279C43.7367 45.1697 42.0529 44.1246 40.7661 43.5575C39.9711 43.2073 39.1383 42.9408 38.3332 42.6825C37.6291 42.4564 36.9003 42.223 36.2128 41.9371C35.1365 41.4886 34.5115 40.9858 34.2468 40.3544C34.1631 40.1559 34.1062 39.9344 34.0492 39.7138C33.8938 39.12 33.7183 38.4472 33.074 38.1357C32.3681 37.7928 31.5547 38.1007 30.6549 39.0401L27.0161 42.8443C26.7082 43.1669 26.4269 43.4408 26.1016 43.5198C25.8957 43.5704 25.6475 43.5493 25.3856 43.5272C24.926 43.4904 24.403 43.4454 23.9701 43.7993C23.7229 44.0024 23.5961 44.2726 23.4848 44.5097C23.4453 44.5952 23.4058 44.6807 23.3598 44.7607C23.1365 45.1476 22.7385 45.4206 22.3166 45.7092C22.0896 45.8654 21.8617 46.0226 21.6549 46.1982C20.8222 46.904 20.3258 47.9941 20.2937 49.1899C20.2615 50.3857 20.6981 51.5015 21.4922 52.2515C22.4995 53.2037 23.9012 53.5548 25.1356 53.8094C25.5427 53.893 25.9426 53.9583 26.347 53.848C26.5382 53.7956 26.7073 53.7073 26.8562 53.6292C26.9848 53.5621 27.1062 53.4987 27.2211 53.4675C27.6089 53.3627 28.0473 53.5658 28.5106 53.7845C28.6466 53.848 28.7808 53.9114 28.915 53.9684C30.4426 54.6099 32.3148 54.3213 33.5786 53.2505C33.6549 53.1862 33.7541 53.1016 33.79 53.097C33.8084 53.097 33.8497 53.1072 33.9904 53.2009C35.4949 54.223 36.6677 55.7101 37.3837 57.5005C37.6411 58.1458 38.1356 58.6255 38.8139 58.8893C39.2211 59.0483 39.6935 59.1255 40.188 59.1255ZM32.495 38.7579C32.5823 38.7579 32.6668 38.7754 32.7468 38.814C33.0777 38.9739 33.1907 39.405 33.3203 39.904C33.3874 40.1595 33.4554 40.4151 33.5519 40.6458C34.0078 41.7312 35.1236 42.2993 35.9242 42.632C36.6402 42.9298 37.3837 43.1687 38.1034 43.3994C38.8902 43.6513 39.7036 43.9123 40.4628 44.2469C41.6218 44.7579 43.1328 45.6862 43.7468 47.2092C43.835 47.4279 43.903 47.654 43.972 47.8801C44.029 48.0676 44.0869 48.2561 44.154 48.4417C44.3984 49.1154 44.767 49.7533 45.1236 50.37C45.7661 51.4803 46.3727 52.53 46.2137 53.6687C46.0336 54.9546 44.8948 55.9399 43.7431 56.8388C43.2339 57.2368 42.7073 57.6476 42.1319 57.9243C41.3029 58.3241 40.04 58.5584 39.0869 58.188C38.6016 57.9987 38.2633 57.6743 38.0823 57.2211C37.3111 55.291 36.0427 53.6853 34.4122 52.5777C34.279 52.4877 34.0372 52.3176 33.7266 52.347C33.4518 52.37 33.256 52.5364 33.1135 52.6577C32.0382 53.5695 30.4784 53.8103 29.2073 53.2735C29.0823 53.222 28.9573 53.1623 28.8313 53.1035C28.2927 52.848 27.6834 52.5603 27.0225 52.7414C26.8304 52.7937 26.6595 52.8829 26.5087 52.9619C26.381 53.0281 26.2606 53.0906 26.1466 53.1219C25.9012 53.1899 25.6126 53.1393 25.2882 53.0722C24.1549 52.8388 22.8727 52.5208 22.0087 51.7037C21.3709 51.1007 21.0198 50.1917 21.0464 49.2101C21.0731 48.2285 21.472 47.3397 22.142 46.7717C22.3295 46.6127 22.5363 46.472 22.7431 46.3305C23.2146 46.007 23.7027 45.6715 24.0124 45.1366C24.0694 45.0373 24.1181 44.9334 24.1668 44.8296C24.256 44.6402 24.3323 44.4766 24.4481 44.382C24.6438 44.2211 24.9545 44.2469 25.324 44.2781C25.62 44.302 25.9536 44.3305 26.2799 44.2515C26.8461 44.1136 27.2597 43.6807 27.5611 43.3645L31.199 39.5603C31.5694 39.1733 32.0666 38.7579 32.495 38.7579Z" fill="#E0E0E0"/>
<path d="M36.8228 62.5814C48.5002 62.5814 58.6757 53.8994 60.2217 42.0198C61.9018 29.1163 52.7676 17.245 39.8596 15.5557C35.7557 15.0207 31.5756 15.5759 27.7695 17.1623C27.6013 17.2321 27.5075 17.4141 27.5471 17.5924C27.8191 18.802 27.9524 19.9794 27.9423 21.0924C27.934 24.1301 26.9276 26.381 25.1096 27.4334L21.8311 29.3388C21.7851 29.3489 21.741 29.3691 21.7015 29.3985C21.6969 29.4013 21.6923 29.404 21.6877 29.4077C21.604 29.4647 21.5121 29.5152 21.4202 29.5649C21.1509 29.7257 20.8761 29.8461 20.5903 29.9297C20.4699 29.9693 20.3559 29.9987 20.2465 30.0281C20.0324 30.0786 19.8743 30.1136 19.7162 30.1218C19.6013 30.1439 19.5489 30.1494 19.5002 30.1494C19.2943 30.1696 19.1289 30.1779 18.9552 30.1779H18.7943C18.7447 30.1779 18.684 30.1779 18.6022 30.1981C18.5636 30.2055 18.5103 30.2156 18.4496 30.2413C18.3945 30.2606 18.343 30.2891 18.3053 30.3231C18.196 30.3626 18.0489 30.5198 17.9745 30.7055C17.8853 30.8976 17.8559 31.1457 17.8945 31.4251L18.2428 34.1044C18.2493 34.1549 18.2483 34.1945 18.2483 34.2349C18.2263 34.2698 18.2116 34.3774 18.2024 34.4233C18.207 34.3865 18.1408 34.3948 18.0296 34.3314C17.9478 34.2854 17.8164 34.1825 17.6518 33.9509L15.4018 30.5171C15.3228 30.3985 15.184 30.3332 15.0452 30.3498C14.9037 30.3654 14.7842 30.4592 14.7336 30.5915C14.0829 32.3277 13.6362 34.12 13.4055 35.9187C12.5866 42.1706 14.2539 48.3672 18.1013 53.3682C21.9469 58.3663 27.5066 61.5676 33.7575 62.3819C34.7869 62.5161 35.8118 62.5814 36.8228 62.5814ZM36.8108 16.1108C37.7952 16.1108 38.7805 16.1742 39.7621 16.302C52.2585 17.938 61.1022 29.4307 59.4754 41.9224C57.8485 54.4196 46.354 63.2625 33.855 61.6356C27.8035 60.847 22.4211 57.7478 18.6978 52.9086C14.9735 48.0676 13.3596 42.0685 14.1518 36.0152C14.3439 34.5161 14.6914 33.0217 15.1868 31.563L17.0296 34.3755C17.2355 34.665 17.445 34.8663 17.6601 34.9867C18.0765 35.2229 18.5177 35.1807 18.7851 34.8792C18.8384 34.8268 18.889 34.7432 18.9193 34.6522C18.9919 34.507 19.002 34.3553 19.002 34.2349C19.002 34.1614 19.0011 34.0888 18.9892 34.0042L18.6408 31.325C18.6224 31.1908 18.6316 31.0777 18.6656 31.0033C18.6895 30.9932 18.7189 30.9555 18.7419 30.9362C18.7474 30.9334 18.7539 30.9307 18.7594 30.9279L18.9552 30.9316C19.1564 30.9316 19.3495 30.9215 19.5406 30.9003C19.6169 30.9022 19.729 30.8884 19.8302 30.8617C19.832 30.8626 19.8338 30.8626 19.8357 30.8626C19.9616 30.8626 20.1583 30.8222 20.3449 30.7808C20.3495 30.7799 20.434 30.757 20.4395 30.756C20.5636 30.7229 20.6923 30.6889 20.8145 30.6485C21.1491 30.5501 21.4827 30.404 21.7934 30.2183C21.8715 30.177 21.9579 30.1283 22.0425 30.075C22.0682 30.0676 22.093 30.0566 22.1178 30.0428L25.4873 28.0851C27.5471 26.893 28.6868 24.4114 28.696 21.097C28.7052 20.0244 28.5884 18.8957 28.3495 17.7386C31.0397 16.6614 33.9165 16.1108 36.8108 16.1108Z" fill="#E0E0E0"/>
<path d="M21.8222 30.1632C21.8755 30.1632 21.9297 30.1494 21.9831 30.119L22.1145 30.0446C22.2321 29.9784 22.3057 29.8534 22.3057 29.7174C22.3057 29.5648 22.2138 29.4177 22.0731 29.3598C21.9472 29.3065 21.8084 29.3194 21.7018 29.3984C21.6798 29.4122 21.6586 29.4279 21.6393 29.4472C21.6365 29.449 21.6329 29.4518 21.6301 29.4536L21.6117 29.4646L21.6136 29.4674C21.4711 29.5915 21.4114 29.8176 21.5134 29.9757C21.5888 30.0915 21.7018 30.1632 21.8222 30.1632Z" fill="#E0E0E0"/>
<path d="M4.74284 30.0145C4.68844 30.0125 4.63341 30.0005 4.58079 29.9776C4.49935 29.9428 4.41926 29.8989 4.33823 29.8531C4.21599 29.7758 4.17273 29.7451 4.13569 29.7101C3.9865 29.57 3.98045 29.3504 4.12195 29.2055C4.26449 29.0597 4.50735 29.0386 4.67755 29.1559C4.76715 29.2156 4.86605 29.2692 4.96498 29.322C5.15492 29.4236 5.22457 29.6418 5.12229 29.8173C5.0459 29.9474 4.89596 30.0201 4.74284 30.0145ZM14.2913 11.5769C14.514 11.4711 14.6938 11.5721 14.6861 11.8032L14.6667 12.3809C14.6614 12.538 14.7798 12.6045 14.9344 12.5311L17.0923 11.5061C17.3194 11.3982 17.4996 11.4946 17.4918 11.7256L17.4671 12.4604C17.4623 12.6037 17.3401 12.78 17.1992 12.8469L16.9131 12.9828C16.7904 13.0411 16.6828 13.1831 16.6559 13.3187C16.3838 14.7621 15.744 16.3758 14.7753 18.0638C14.6424 18.2951 14.648 18.5244 14.7931 18.601C15.4036 18.9249 16.1907 19.1832 17.2012 19.3126C17.4103 19.3406 17.4553 19.6012 17.294 19.8733L16.9099 20.5287C16.8243 20.6714 16.7015 20.7841 16.5802 20.8417C16.5069 20.8766 16.4342 20.8913 16.3705 20.8804C15.4054 20.734 14.5694 20.4672 13.8575 20.1004C13.7778 20.0581 13.6749 20.0672 13.5714 20.1164C13.4693 20.1649 13.3667 20.2523 13.2852 20.3677C12.7037 21.176 12.055 21.9889 11.3389 22.8111C11.2689 22.8924 11.1886 22.9538 11.109 22.9916C10.9928 23.0469 10.8784 23.0515 10.8007 22.994L10.4253 22.7221C10.2681 22.6103 10.3188 22.2997 10.528 22.0639C11.276 21.222 11.9016 20.4337 12.4313 19.7046C12.586 19.4902 12.6211 19.2416 12.5042 19.1288C11.8985 18.5298 11.476 17.7982 11.2448 16.9575C11.1854 16.7311 11.3803 16.3884 11.6397 16.2516L12.2995 15.9064C12.515 15.803 12.6696 15.8624 12.7066 16.0313C12.7805 16.36 12.9509 16.8793 13.3488 17.4088C13.4251 17.5068 13.5613 17.5092 13.6995 17.4436C13.8328 17.3803 13.9679 17.2536 14.0526 17.0882C14.808 15.6244 15.0571 14.6011 15.1403 14.1204C15.1684 13.948 15.0504 13.8676 14.8914 13.9431L10.3483 16.101C10.121 16.2089 9.94576 16.1057 9.95352 15.8746L9.97292 15.297C9.98068 15.0659 10.1685 14.7948 10.3958 14.6869L12.5537 13.6619C12.7082 13.5885 12.8351 13.4054 12.8404 13.2483L12.8598 12.6707C12.8675 12.4396 13.0601 12.1616 13.2827 12.0559L14.2913 11.5769Z" fill="#E0E0E0"/>
<path d="M18.4092 35.0916C18.4652 35.0916 18.5213 35.0787 18.5746 35.0529C18.5921 35.0447 18.6086 35.0355 18.6233 35.0254L22.2033 32.9408C22.3908 32.8268 22.684 32.5474 22.6132 31.916L22.3016 29.6467C22.2842 29.518 22.2015 29.4077 22.0829 29.3544C21.9643 29.3002 21.8265 29.3131 21.7189 29.3857C20.8945 29.9381 19.9027 30.1972 18.8035 30.1789C18.6684 30.1789 18.5599 30.1982 18.457 30.2386C18.4 30.2579 18.3448 30.2873 18.3053 30.3232C18.1913 30.3829 18.0728 30.5088 17.9882 30.6752C17.9643 30.7 17.9404 30.7763 17.9248 30.8268C17.9193 30.8443 17.8991 30.9096 17.8963 30.927C17.8715 31.0768 17.8715 31.2432 17.8945 31.4224L18.252 34.0961C18.2621 34.177 18.2612 34.2478 18.2474 34.3094C18.2327 34.336 18.2217 34.3636 18.2143 34.393C18.0434 34.496 17.9827 34.7156 18.0774 34.8921C18.1445 35.0189 18.275 35.0916 18.4092 35.0916ZM21.6325 30.3103L21.866 32.0088C21.8844 32.1706 21.854 32.2717 21.8182 32.2938L18.991 33.9408L18.6408 31.325C18.627 31.2202 18.627 31.1246 18.639 31.0484C18.6527 31.041 18.7152 30.9647 18.7401 30.9381C19.8458 30.9574 20.7925 30.7478 21.6325 30.3103Z" fill="#E0E0E0"/>
<path d="M21.6851 30.2367C21.7494 30.2367 21.8147 30.2201 21.8744 30.1852L25.4856 28.085C27.5417 26.8939 28.6814 24.4141 28.6952 21.1016C28.7209 14.4159 23.9948 6.23209 18.1594 2.85801C18.0757 2.80746 17.9856 2.75966 17.891 2.71003L17.755 2.6365C15.0426 1.18889 12.4489 1.02621 10.4461 2.17878L6.83216 4.2808C6.65293 4.38466 6.59135 4.61536 6.69521 4.79459C6.79999 4.97474 7.0316 5.03448 7.20901 4.93246C8.97922 3.91591 11.3147 4.08319 13.7853 5.39845C13.9038 5.4536 13.9958 5.50599 14.0913 5.55838L14.1915 5.61444C19.8046 8.85985 24.3561 16.7505 24.3303 23.199C24.3303 26.2128 23.3239 28.4619 21.4948 29.5354C21.3156 29.6402 21.255 29.8709 21.3597 30.0501C21.4296 30.1696 21.5564 30.2367 21.6851 30.2367ZM13.3983 2.17327C14.6345 2.17327 15.9939 2.5501 17.3965 3.29827L17.538 3.37455C17.6198 3.41775 17.698 3.45911 17.7761 3.50691C23.4094 6.76334 27.9673 14.654 27.9415 21.0979C27.9296 24.1319 26.9231 26.3819 25.1079 27.4343L23.9103 28.1301C24.6777 26.8405 25.084 25.165 25.084 23.2008C25.1097 16.5124 20.3891 8.3286 14.561 4.95819L14.4581 4.90121C14.345 4.83871 14.2356 4.77804 14.1189 4.72474C12.5629 3.89293 11.0702 3.46095 9.63547 3.52161L10.823 2.83043C11.5868 2.39202 12.4572 2.17327 13.3983 2.17327Z" fill="#E0E0E0"/>
<path d="M18.1981 35.1403C18.3581 35.1403 18.5088 35.0971 18.6384 35.0107C18.9242 34.8186 19.0538 34.4519 18.9932 34.0024L18.6402 31.325C18.6127 31.1274 18.6457 31.0098 18.6862 30.9647C18.6945 30.9546 18.7174 30.9381 18.7836 30.9344C20.4086 30.9822 21.8443 30.4381 22.9288 29.3829C24.3342 28.0153 25.0805 25.8774 25.0878 23.201C25.1062 16.507 20.381 8.32411 14.5547 4.95922C14.4178 4.8811 14.2818 4.80481 14.1448 4.7322C11.3746 3.25426 8.74225 3.11547 6.72846 4.34617C4.64574 5.61823 3.52809 8.15408 3.5814 11.4877C3.68159 17.8802 7.89574 25.4123 13.3847 29.0079C13.5327 29.109 13.6761 29.2552 13.7809 29.4169L17.0364 34.3737C17.2128 34.6412 17.427 34.8517 17.654 34.9831C17.8351 35.0879 18.0226 35.1403 18.1981 35.1403ZM18.7753 30.1817C18.518 30.1817 18.2873 30.2809 18.1246 30.4629C17.9215 30.6908 17.8397 31.0337 17.8939 31.4271L18.2468 34.1026C18.2726 34.2965 18.2312 34.3756 18.2193 34.3848C18.2055 34.3912 18.1366 34.3921 18.0309 34.3305C17.9049 34.2589 17.7753 34.1265 17.665 33.9592L14.4104 29.0043C14.2505 28.7598 14.04 28.5438 13.8029 28.382C8.58508 24.9638 4.42883 17.5392 4.33508 11.4758C4.28545 8.4197 5.27534 6.11639 7.12092 4.98863C8.89758 3.90316 11.2661 4.05022 13.791 5.39672C13.9215 5.46658 14.0502 5.53735 14.1779 5.6118C19.7965 8.85536 24.3525 16.7451 24.3342 23.1991C24.3277 25.6679 23.6604 27.6201 22.4031 28.8434C21.4684 29.7543 20.1991 30.2065 18.8029 30.1826C18.7937 30.1817 18.7845 30.1817 18.7753 30.1817Z" fill="#E0E0E0"/>
</svg>
