<svg width="64" height="64" viewBox="0 0 64 64" fill="none" xmlns="http://www.w3.org/2000/svg">
<path d="M32.8627 55.2158V61.2332L1.39136 43.0629V37.0454L32.8627 55.2158Z" stroke="#E0E0E0" stroke-opacity="0.6" stroke-linecap="round" stroke-linejoin="round"/>
<path d="M32.8627 45.9567V49.1984L6.97744 34.2558L1.39136 31.028V25.0037L12.5705 31.4593L15.3044 33.0384L26.0453 39.2368C27.047 40.5237 28.1183 41.7271 29.2592 42.8611C30.3931 43.995 31.5966 45.0245 32.8627 45.9567Z" stroke="#E0E0E0" stroke-opacity="0.6" stroke-linecap="round" stroke-linejoin="round"/>
<path d="M24.2713 28.03L23.1374 28.5934L20.4035 29.9639C19.8331 28.7326 19.3531 27.5013 18.9635 26.27C18.9496 26.2352 18.9427 26.2004 18.9287 26.1656C18.5461 24.976 18.2122 23.7517 17.9131 22.5065L20.654 21.1361L22.414 20.2595C22.4487 20.9273 22.5183 21.6022 22.6296 22.277C22.9148 24.1692 23.4644 26.0891 24.2713 28.03Z" stroke="#E0E0E0" stroke-opacity="0.6" stroke-linecap="round" stroke-linejoin="round"/>
<path d="M46.7758 48.2595V54.277L32.8628 61.2335V55.216L41.1897 51.0492L46.7758 48.2595Z" stroke="#E0E0E0" stroke-opacity="0.6" stroke-linecap="round" stroke-linejoin="round"/>
<path d="M46.7757 48.2596L41.1896 51.0491L32.8627 55.2161L1.39136 37.0457L6.97744 34.2561L32.8627 49.1986L35.6035 47.8283L41.1896 45.0318L46.7757 48.2596Z" stroke="#E0E0E0" stroke-opacity="0.6" stroke-linecap="round" stroke-linejoin="round"/>
<path d="M46.7758 41.637V42.2422L41.1897 45.0317L35.6037 47.8283L32.8628 49.1987V45.957L38.1845 43.2996L38.6089 43.0839C40.9254 43.8074 42.9776 43.6544 44.7654 42.6387L46.2124 41.9153L46.7758 41.637Z" stroke="#E0E0E0" stroke-opacity="0.6" stroke-linecap="round" stroke-linejoin="round"/>
<path d="M38.609 43.0838L38.1847 43.2995L32.8629 45.9569C31.5968 45.0247 30.3934 43.9951 29.2594 42.8612C28.1186 41.7273 27.0473 40.5239 26.0455 39.2369L28.7794 37.8664L30.0455 37.2334C31.6942 39.056 33.5099 40.5377 35.4855 41.6785C36.5707 42.3116 37.6142 42.7777 38.609 43.0838Z" stroke="#E0E0E0" stroke-opacity="0.6" stroke-linecap="round" stroke-linejoin="round"/>
<path d="M22.6087 16.2454C22.4487 17.1011 22.3722 18.0403 22.3722 19.0629C22.3722 19.4594 22.3861 19.8628 22.414 20.2594L20.654 21.1359L17.9131 22.5063L15.3044 21.0037L12.5635 19.4176L1.39136 12.969L15.3044 6.01245L24.9322 11.5707C23.7357 12.6838 22.9635 14.242 22.6087 16.2454Z" stroke="#E0E0E0" stroke-opacity="0.6" stroke-linecap="round" stroke-linejoin="round"/>
<path d="M62.5115 27.2508C62.5115 31.4108 61.2315 34.2212 58.6784 35.6821L58.108 35.9673L46.7758 41.6369L46.2124 41.9152L44.7654 42.6386C45.1967 42.3882 45.5932 42.103 45.955 41.769C46.2541 41.5047 46.5324 41.2056 46.7758 40.8787C47.9863 39.2995 48.5985 37.0803 48.5985 34.2282V34.2073C48.5985 30.3256 47.4854 26.3395 45.2732 22.249C45.1063 21.9499 44.9393 21.6438 44.7654 21.3447C42.3932 17.2612 39.5689 14.1726 36.2854 12.0787C36.0211 11.9048 35.7567 11.7378 35.4854 11.5848C32.0419 9.5952 29.0854 9.20556 26.6019 10.423L40.1185 3.67511C42.6785 2.21424 45.7671 2.53432 49.3985 4.62823C53.0228 6.72215 56.1184 9.97774 58.6784 14.3882C61.2315 18.7986 62.5115 23.0838 62.5115 27.2508Z" stroke="#E0E0E0" stroke-opacity="0.6" stroke-linecap="round" stroke-linejoin="round"/>
<path d="M45.2732 22.2489C45.1062 21.9497 44.9393 21.6436 44.7654 21.3445C42.3932 17.261 39.5688 14.1724 36.2854 12.0784C36.021 11.9045 35.7567 11.7376 35.4854 11.5845C32.0419 9.59497 29.0854 9.2054 26.6019 10.4228H26.581C26.4558 10.4924 26.3306 10.5619 26.2054 10.6314C25.7393 10.8958 25.308 11.2089 24.9323 11.5706C23.7358 12.6837 22.9636 14.2419 22.6088 16.2454C22.4488 17.1011 22.3723 18.0402 22.3723 19.0628C22.3723 19.4593 22.3862 19.8628 22.4141 20.2593C22.4488 20.9271 22.5184 21.6019 22.6297 22.2767C22.9149 24.1689 23.4645 26.0888 24.2714 28.0297C24.4941 28.5723 24.7445 29.1288 25.0158 29.6784C25.3706 30.4227 25.7671 31.1741 26.2054 31.9254C27.3741 33.9358 28.6471 35.7028 30.0454 37.2332C31.6941 39.0558 33.5097 40.5375 35.4854 41.6784C36.5706 42.3114 37.6141 42.7775 38.6088 43.0836C40.9254 43.8071 42.9775 43.654 44.7654 42.6384C45.1967 42.3879 45.5932 42.1027 45.9549 41.7688C46.2541 41.5045 46.5323 41.2054 46.7758 40.8784C47.9862 39.2993 48.5984 37.0802 48.5984 34.228V34.2071C48.5984 30.3253 47.4854 26.3393 45.2732 22.2489ZM41.8228 27.6193L36.8558 30.4924L33.6488 32.3428L30.421 26.7776L29.6071 25.3654L28.0767 22.7288L29.9132 21.6088L31.5271 24.3984L33.6488 28.0576L39.861 24.5167L41.0575 23.835L41.2941 24.2384L42.8941 27.0001L41.8228 27.6193Z" stroke="#E0E0E0" stroke-opacity="0.6" stroke-linecap="round" stroke-linejoin="round"/>
<path d="M41.294 24.2384L40.0558 24.8576L33.6488 28.0576L39.861 24.5167L41.0575 23.835L41.294 24.2384Z" stroke="#E0E0E0" stroke-opacity="0.6" stroke-linecap="round" stroke-linejoin="round"/>
<path d="M42.8942 27.0004L41.8229 27.6196L36.8559 30.4926L33.649 32.343L30.4211 26.7778L29.6072 25.3657L28.0768 22.7291L29.9133 21.6091L31.5272 24.3987L33.649 28.0578L40.0559 24.8578L41.2942 24.2387L42.8942 27.0004Z" stroke="#E0E0E0" stroke-opacity="0.6" stroke-linecap="round" stroke-linejoin="round"/>
<path d="M30.0453 37.2332L28.7792 37.8663L26.0453 39.2368L15.3044 33.0385L12.5705 31.4593L1.39136 25.0037L6.97744 22.2141L20.4035 29.9637L23.1374 28.5932L24.2714 28.0297C24.494 28.5723 24.7444 29.1288 25.0157 29.6784C25.3705 30.4227 25.767 31.1741 26.2053 31.9254C27.374 33.9359 28.647 35.7028 30.0453 37.2332Z" stroke="#E0E0E0" stroke-opacity="0.6" stroke-linecap="round" stroke-linejoin="round"/>
<path d="M20.4035 29.9637L6.97744 22.2141L1.39136 18.9863V12.969L12.5635 19.4176L15.3044 21.0037L17.9131 22.5063C18.2122 23.7515 18.5461 24.9759 18.9287 26.1654C18.9427 26.2002 18.9496 26.2351 18.9635 26.2699C19.3531 27.5012 19.8331 28.7324 20.4035 29.9637Z" stroke="#E0E0E0" stroke-opacity="0.6" stroke-linecap="round" stroke-linejoin="round"/>
</svg>
