<svg width="55" height="64" viewBox="0 0 55 64" fill="none" xmlns="http://www.w3.org/2000/svg">
<g clip-path="url(#clip0_381_2084)">
<path d="M30.7023 61.2476C30.7023 61.9336 30.5018 62.3893 30.0958 62.6197C29.6897 62.8501 29.186 62.7938 28.5846 62.4508C27.9832 62.1026 27.4794 61.5804 27.0733 60.884C26.6673 60.1877 26.4668 59.4965 26.4668 58.8104C26.4668 58.1244 26.6673 57.6636 27.0733 57.4332L27.2018 57.3717C27.5822 57.2181 28.0448 57.2949 28.5846 57.6021C29.186 57.9503 29.6897 58.4725 30.0958 59.1688C30.5018 59.8652 30.7023 60.5615 30.7023 61.2476Z" stroke="#E0E0E0" stroke-opacity="0.6"/>
<path d="M17.9858 53.9318C17.9858 54.6179 17.7853 55.0787 17.3741 55.3091C16.968 55.5395 16.4643 55.4832 15.868 55.135C15.2666 54.792 14.7629 54.2698 14.3568 53.5734C13.9507 52.872 13.7451 52.1808 13.7451 51.4947C13.7451 50.8087 13.9507 50.3479 14.3568 50.1175L14.4802 50.0561C14.8657 49.9025 15.3283 49.9793 15.868 50.2916C16.4643 50.6347 16.968 51.1569 17.3741 51.8582C17.7853 52.5546 17.9858 53.2458 17.9858 53.9318Z" stroke="#E0E0E0" stroke-opacity="0.6"/>
<path d="M11.6271 40.5833C11.6271 41.2694 11.4215 41.7302 11.0154 41.9606C10.6094 42.191 10.1056 42.1347 9.50423 41.7865C8.90797 41.4435 8.40423 40.9212 7.99816 40.2198C7.59208 39.5235 7.38647 38.8323 7.38647 38.1462C7.38647 37.4601 7.59208 36.9993 7.99816 36.7689L8.12152 36.7075C8.50704 36.5539 8.96965 36.6307 9.50423 36.943C10.1056 37.286 10.6094 37.8083 11.0154 38.5046C11.4215 39.206 11.6271 39.8972 11.6271 40.5833Z" stroke="#E0E0E0" stroke-opacity="0.6"/>
<path d="M40.9825 56.1275C40.9825 56.8136 40.782 57.2693 40.376 57.4997L40.2475 57.5611L30.0956 62.6197C30.5017 62.3893 30.7021 61.9336 30.7021 61.2475C30.7021 60.5614 30.5017 59.8651 30.0956 59.1688C29.6895 58.4725 29.1858 57.9502 28.5844 57.6021C28.0447 57.2949 27.582 57.2181 27.2017 57.3717L33.19 54.3867C33.2619 54.5403 33.339 54.6939 33.4316 54.8526C33.8376 55.549 34.3414 56.0712 34.9428 56.4142C35.5442 56.7624 36.0479 56.8187 36.454 56.5883L37.5386 56.0507L40.6175 54.5147C40.8591 55.0574 40.9825 55.595 40.9825 56.1275Z" stroke="#E0E0E0" stroke-opacity="0.6"/>
<path d="M28.266 48.8121C28.266 49.4982 28.0655 49.959 27.6543 50.1894L17.3739 55.3093C17.7851 55.0789 17.9856 54.6181 17.9856 53.932C17.9856 53.2459 17.7851 52.5547 17.3739 51.8584C16.9678 51.157 16.4641 50.6348 15.8678 50.2918C15.3281 49.9794 14.8655 49.9026 14.48 50.0562L20.4734 47.0713C20.5454 47.2249 20.6225 47.3836 20.715 47.5372C21.1211 48.2335 21.6248 48.7558 22.2262 49.1039C22.8276 49.447 23.3314 49.5033 23.7375 49.2729L24.8169 48.7353L27.8959 47.2044C28.1426 47.742 28.266 48.2796 28.266 48.8121Z" stroke="#E0E0E0" stroke-opacity="0.6"/>
<path d="M24.3439 47.8641V47.8999C24.3439 48.586 24.1435 49.0417 23.7374 49.2721C23.3313 49.5025 22.8276 49.4461 22.2262 49.1031C21.6248 48.7549 21.121 48.2327 20.715 47.5364C20.6224 47.3828 20.5453 47.2241 20.4734 47.0705C20.2266 46.5277 20.1033 45.9901 20.1033 45.4577C20.1033 44.7716 20.3089 44.3159 20.715 44.0855L20.8435 44.0241C21.2238 43.8705 21.6864 43.9473 22.2262 44.2545C22.7402 44.5514 23.1822 44.9764 23.5523 45.5345C23.6192 45.6266 23.6808 45.7188 23.7374 45.8212C23.8505 46.0157 23.9481 46.2052 24.0252 46.3997C24.236 46.8861 24.3388 47.3777 24.3439 47.8641Z" stroke="#E0E0E0" stroke-opacity="0.6"/>
<path d="M47.3461 50.0916C47.3461 50.7777 47.1404 51.2384 46.7344 51.4688L46.611 51.5303L40.6175 54.5152L37.5386 56.0512L36.454 56.5888C36.8601 56.3584 37.0657 55.8976 37.0657 55.2115V55.1859C37.0605 54.6995 36.9577 54.2131 36.747 53.7216C36.6647 53.5271 36.5671 53.3325 36.454 53.1328C36.3975 53.0355 36.3358 52.9383 36.2741 52.8512C35.904 52.2931 35.4619 51.8682 34.9428 51.5712C34.4031 51.2589 33.9404 51.1822 33.5549 51.3357L36.783 49.7281C38.2171 50.0507 39.5021 49.8868 40.633 49.2417L43.1208 48.0027L45.6498 46.7432C46.0661 47.0657 46.426 47.4907 46.7292 48.0129C47.1353 48.7144 47.3409 49.4056 47.3409 50.0916H47.3461Z" stroke="#E0E0E0" stroke-opacity="0.6"/>
<path d="M53.7048 37.9978C53.7048 41.0289 52.7744 43.0717 50.9187 44.1213L50.4613 44.3466L45.6552 46.7428L43.1262 48.0023L40.6384 49.2413C41.6253 48.6833 42.35 47.8436 42.8075 46.7274C43.2187 45.7444 43.4243 44.5361 43.4243 43.1178V42.9949C43.3986 40.1738 42.5659 37.2708 40.9314 34.2961C39.2711 31.2855 37.2201 28.9559 34.7837 27.3124L45.0641 22.1924C47.5005 23.8359 49.5514 26.1655 51.2117 29.1761C52.8721 32.1917 53.7048 35.1357 53.7048 37.9978Z" stroke="#E0E0E0" stroke-opacity="0.6"/>
<path d="M43.4243 42.9949V43.1178C43.4243 44.536 43.2187 45.7443 42.8075 46.7274C42.35 47.8435 41.6253 48.6832 40.6384 49.2413C39.5075 49.8864 38.2225 50.0502 36.7884 49.7277C35.8785 49.528 34.9173 49.1338 33.8893 48.5398L29.8645 46.2256L23.6243 42.6365L17.1426 38.9091L12.6912 36.3491C12.1206 36.0214 11.5655 35.6579 11.0257 35.2637C8.51733 33.441 6.32247 30.9219 4.45144 27.7014C2.1692 23.7846 1.02808 19.9907 1.02808 16.3146C1.02808 12.9661 1.99957 10.5955 3.94256 9.208C4.24069 8.99808 4.5491 8.81375 4.8678 8.66527C6.63088 7.82559 8.72294 7.91775 11.1491 8.93152C11.2879 8.72672 11.437 8.53216 11.5912 8.34784C12.1463 7.69248 12.7734 7.19072 13.4827 6.8272C13.5856 6.776 13.6884 6.7248 13.7912 6.67872C14.3977 6.41248 15.0608 6.24351 15.7856 6.17695C17.7491 5.99263 19.8926 6.5712 22.2262 7.91264C25.4028 9.74048 28.1683 12.4899 30.5173 16.1661C32.8664 19.8371 34.2902 23.5542 34.7837 27.3123C37.2201 28.9558 39.2711 31.2854 40.9313 34.296C42.5659 37.2707 43.3986 40.1738 43.4243 42.9949Z" stroke="#E0E0E0" stroke-opacity="0.6"/>
<path d="M20.3553 3.42318L16.86 5.15373L13.4829 6.82797C12.7735 7.19149 12.1464 7.69325 11.5913 8.34349C11.4371 8.53293 11.288 8.72749 11.1492 8.93229C8.72306 7.91853 6.631 7.82637 4.86792 8.66605L14.9787 3.6331L15.0249 3.6075C16.5464 2.8395 18.3198 2.77294 20.345 3.41806C20.345 3.41806 20.3485 3.41977 20.3553 3.42318Z" stroke="#E0E0E0" stroke-opacity="0.6"/>
<path d="M16.8598 5.15332L13.7911 6.67908C13.6883 6.72516 13.5855 6.77636 13.4827 6.82756L16.8598 5.15332Z" stroke="#E0E0E0" stroke-opacity="0.6"/>
<path d="M37.0658 55.1856V55.2112C37.0658 55.8973 36.8602 56.3581 36.4542 56.5885C36.0481 56.8189 35.5444 56.7626 34.9429 56.4144C34.3415 56.0714 33.8378 55.5491 33.4317 54.8528C33.3392 54.6941 33.2621 54.5405 33.1901 54.3869C32.9486 53.8442 32.8252 53.3066 32.8252 52.7741C32.8252 52.088 33.0257 51.6272 33.4317 51.3968L33.5551 51.3354C33.9406 51.1819 34.4032 51.2586 34.9429 51.5709C35.4621 51.8678 35.9042 52.2928 36.2743 52.8509C36.3359 52.9379 36.3976 53.0352 36.4542 53.1325C36.5672 53.3322 36.6649 53.5267 36.7472 53.7213C36.9579 54.2128 37.0607 54.6992 37.0658 55.1856Z" stroke="#E0E0E0" stroke-opacity="0.6"/>
<path d="M29.8592 46.2261L27.8956 47.204L24.8166 48.7349L23.7372 49.2725C24.1433 49.0421 24.3437 48.5864 24.3437 47.9003V47.8645C24.3386 47.3781 24.2358 46.8866 24.025 46.4002C23.9479 46.2056 23.8503 46.0162 23.7372 45.8216C23.6806 45.7192 23.619 45.627 23.5521 45.5349C23.182 44.9768 22.74 44.5518 22.226 44.2549C21.6863 43.9477 21.2236 43.8709 20.8433 44.0245L23.619 42.637L29.8592 46.2261Z" stroke="#E0E0E0" stroke-opacity="0.6"/>
<path d="M11.6269 40.5834C11.6269 39.8973 11.4213 39.2061 11.0153 38.5046C10.6092 37.8083 10.1054 37.2861 9.50405 36.943C8.96947 36.6307 8.50685 36.5539 8.12134 36.7075L11.0204 35.2637C11.5601 35.6579 12.1153 36.0214 12.6858 36.3491L17.1372 38.9091L11.0153 41.9606C11.4213 41.7302 11.6269 41.2694 11.6269 40.5834Z" stroke="#E0E0E0" stroke-opacity="0.6"/>
<path d="M45.0639 22.1932L34.7835 27.3132C34.2901 23.5551 32.8663 19.838 30.5172 16.1669C28.1681 12.4908 25.4027 9.74132 22.2261 7.91348C19.8924 6.57204 17.749 5.99348 15.7854 6.1778C15.0606 6.24436 14.3976 6.41332 13.791 6.67956L16.8597 5.1538L20.355 3.42326L23.3672 1.92821C24.1536 1.44181 25.0583 1.15509 26.0658 1.05781C28.0293 0.873494 30.1728 1.45206 32.5064 2.7935C35.6831 4.62133 38.4485 7.37076 40.7976 11.0469C43.1466 14.718 44.5705 18.4351 45.0639 22.1932Z" stroke="#E0E0E0" stroke-opacity="0.6"/>
<path d="M13.4829 6.82715L13.4058 6.86299" stroke="#E0E0E0" stroke-opacity="0.6"/>
</g>
<defs>
<clipPath id="clip0_381_2084">
<rect width="55" height="64" fill="white"/>
</clipPath>
</defs>
</svg>
