<svg width="64" height="64" viewBox="0 0 64 64" fill="none" xmlns="http://www.w3.org/2000/svg">
<path d="M39.1586 22.7816L35.5508 20.6965L28.325 16.5261L21.0992 12.3558L10.7766 6.39453V43.7055L43.2876 62.4773V25.1662L39.1586 22.7816ZM25.2282 43.7571L18.0024 39.5868V31.2926L21.0992 33.0836L25.2282 35.4681V43.7571ZM25.2282 31.3184L21.0992 28.9339L18.0024 27.1481V18.859L21.0992 20.6449L25.2282 23.0294V31.3184ZM36.0618 50.0126L28.836 45.8423V37.5533L36.0618 41.7236V50.0126ZM36.0618 37.579L35.5508 37.2849L28.836 33.4087V25.1145L36.0618 29.2849V37.579Z" stroke="#E0E0E0" stroke-opacity="0.6" stroke-linecap="round" stroke-linejoin="round"/>
<path d="M36.062 29.7959V37.5791L35.551 37.2849L28.8362 33.4088L35.3136 30.1675L36.062 29.7959Z" stroke="#E0E0E0" stroke-opacity="0.6" stroke-linecap="round" stroke-linejoin="round"/>
<path d="M25.2282 35.4682V35.974L18.0024 39.5869V31.2927L21.0992 33.0837L25.2282 35.4682Z" stroke="#E0E0E0" stroke-opacity="0.6" stroke-linecap="round" stroke-linejoin="round"/>
<path d="M25.2282 35.9739V43.7571L18.0024 39.5868L25.2282 35.9739Z" stroke="#E0E0E0" stroke-opacity="0.6" stroke-linecap="round" stroke-linejoin="round"/>
<path d="M36.062 42.2295V50.0127L28.8362 45.8424L31.4633 44.5263L36.062 42.2295Z" stroke="#E0E0E0" stroke-opacity="0.6" stroke-linecap="round" stroke-linejoin="round"/>
<path d="M36.062 41.7235V42.2294L31.4633 44.5261L28.8362 45.8423V37.5532L36.062 41.7235Z" stroke="#E0E0E0" stroke-opacity="0.6" stroke-linecap="round" stroke-linejoin="round"/>
<path d="M36.062 29.2851V29.796L35.3136 30.1676L28.8362 33.4089V25.1147L36.062 29.2851Z" stroke="#E0E0E0" stroke-opacity="0.6" stroke-linecap="round" stroke-linejoin="round"/>
<path d="M25.2282 23.5352V31.3184L21.0992 28.9339L18.0024 27.1481L25.2282 23.5352Z" stroke="#E0E0E0" stroke-opacity="0.6" stroke-linecap="round" stroke-linejoin="round"/>
<path d="M25.2282 23.0295V23.5353L18.0024 27.1482V18.8591L21.0992 20.6449L25.2282 23.0295Z" stroke="#E0E0E0" stroke-opacity="0.6" stroke-linecap="round" stroke-linejoin="round"/>
<path d="M53.6102 20.005L45.9147 23.8501L43.2876 25.1663L39.1586 22.7818L35.5508 20.6967L28.325 16.5263L21.0992 12.356L10.7766 6.39466L21.0992 1.2334L53.6102 20.005Z" stroke="#E0E0E0" stroke-opacity="0.6" stroke-linecap="round" stroke-linejoin="round"/>
<path d="M53.6104 20.0049V57.3161L43.2878 62.4773V25.1662L45.9149 23.85L53.6104 20.0049Z" stroke="#E0E0E0" stroke-opacity="0.6" stroke-linecap="round" stroke-linejoin="round"/>
</svg>
