<svg width="60" height="64" viewBox="0 0 60 64" fill="none" xmlns="http://www.w3.org/2000/svg">
<g clip-path="url(#clip0_381_2150)">
<path d="M34.3981 25.8248L21.2321 18.2851L12.4528 13.2606L1.13208 6.77637V41.7462L16.4944 50.5491L25.2736 45.5806L9.91133 36.7834V31.7869L12.4528 33.2409L14.5868 34.4648L29.6662 43.0992L35.9039 39.5736L40.2962 37.0922L40.6415 36.8957L41.3321 37.2887L45.0283 39.4051V31.9104L34.3981 25.8248ZM23.0774 34.3301L19.2623 32.1462L12.4528 28.2444L9.91133 26.7904V21.7939L12.4528 23.248L14.5868 24.4718L21.2321 28.2782L23.0774 29.3336V34.3301Z" stroke="white" stroke-opacity="0.6"/>
<path d="M23.0774 29.3335V34.33L19.2623 32.1461L12.4529 28.2443L9.91138 26.7903L12.4529 25.5328L14.5868 24.4717L21.2321 28.2781L23.0774 29.3335Z" stroke="white" stroke-opacity="0.6"/>
<path d="M43.7151 54.5174L39.7472 56.7631L29.117 62.7701L25.2737 60.5694V56.196L39.8717 47.9434L40.217 48.5328L43.7151 54.5174Z" stroke="white" stroke-opacity="0.6"/>
<path d="M55.0359 48.9033L40.4377 57.156L29.1169 62.77L39.7472 56.763L43.7151 54.5174L55.0359 48.9033Z" stroke="white" stroke-opacity="0.6"/>
<path d="M55.0358 48.9032L43.715 54.5173L40.2169 48.5327L39.8716 47.9433L41.2302 47.2695L41.5358 47.7861L45.0282 53.7706L54.9906 48.8302L55.0358 48.9032Z" stroke="white" stroke-opacity="0.6"/>
<path d="M47.2812 52.1258C47.2812 52.3728 47.1907 52.5524 47.0039 52.6535L45.0284 53.7707L41.536 47.7861L41.2304 47.2696L41.1907 47.1966L43.1661 46.0794C43.319 45.9952 43.4832 45.9896 43.6643 46.0625C43.6983 46.0794 43.7322 46.0963 43.7662 46.1131C43.8681 46.1749 43.97 46.2534 44.0662 46.3601C44.1737 46.4724 44.2756 46.6071 44.3719 46.7755L47.0039 51.278C47.1907 51.5924 47.2812 51.8731 47.2812 52.1258Z" stroke="white" stroke-opacity="0.6"/>
<path d="M56.3491 26.2959V33.7906L45.0283 39.4047V31.9099L56.3491 26.2959Z" stroke="white" stroke-opacity="0.6"/>
<path d="M41.3322 37.2885L40.987 37.485L29.6663 43.0991L35.904 39.5734L40.2963 37.092L40.6416 36.8955L41.3322 37.2885Z" stroke="white" stroke-opacity="0.6"/>
<path d="M36.5944 39.9658L27.8151 44.9343L16.4944 50.5483L25.2736 45.5799L27.2378 44.6031L36.5944 39.9658Z" stroke="white" stroke-opacity="0.6"/>
<path d="M36.5945 39.9656L27.2378 44.6028L25.2737 45.5797L9.91138 36.7825L12.4529 35.525L14.5868 34.4639L29.6662 43.0983L36.3114 39.8029L36.5945 39.9656Z" stroke="white" stroke-opacity="0.6"/>
<path d="M14.5868 24.4718L12.4529 25.5329L9.91138 26.7904V21.7939L12.4529 23.248L14.5868 24.4718Z" stroke="white" stroke-opacity="0.6"/>
<path d="M56.3491 26.2961L45.0283 31.9102L34.3981 25.8246L21.2321 18.2849L12.4528 13.2604L1.13208 6.77613L12.4528 1.16211L56.3491 26.2961Z" stroke="white" stroke-opacity="0.6"/>
<path d="M14.5868 34.465L12.4529 35.5261L9.91138 36.7836V31.7871L12.4529 33.2411L14.5868 34.465Z" stroke="white" stroke-opacity="0.6"/>
<path d="M58.6019 46.512C58.6019 46.759 58.5113 46.9387 58.3245 47.0398L56.349 48.1569L45.0283 53.7709L47.0038 52.6538C47.1905 52.5527 47.2811 52.373 47.2811 52.126C47.2811 51.879 47.1905 51.5927 47.0038 51.2783L44.3717 46.7758C44.2755 46.6074 44.1736 46.4727 44.0661 46.3604C43.9698 46.2537 43.868 46.1751 43.7661 46.1134C43.7321 46.0965 43.6981 46.0796 43.6642 46.0628C43.4831 45.9898 43.3188 45.9955 43.166 46.0797L54.4868 40.4657C54.6679 40.3646 54.8661 40.3758 55.0868 40.4994C55.3076 40.6285 55.5114 40.8474 55.6925 41.1618L58.3245 45.6643C58.5113 45.9787 58.6019 46.2594 58.6019 46.512Z" stroke="white" stroke-opacity="0.6"/>
</g>
<defs>
<clipPath id="clip0_381_2150">
<rect width="60" height="64" fill="white"/>
</clipPath>
</defs>
</svg>
