<svg width="64" height="64" viewBox="0 0 64 64" fill="none" xmlns="http://www.w3.org/2000/svg">
<path d="M45.9774 36.6459C45.7088 35.7659 45.4117 34.8916 45.0917 34.0287C44.4174 32.2058 43.6403 30.4287 42.7603 28.6916C42.7546 28.6858 42.7546 28.6802 42.7488 28.6745C42.326 27.8402 41.8803 27.0173 41.406 26.2058C41.1146 25.6973 40.8117 25.1944 40.4974 24.703C38.7774 21.9544 36.8117 19.3945 34.606 17.0345C32.006 14.2402 29.2231 11.9888 26.2631 10.2802C23.4574 8.65733 20.8231 7.71442 18.3431 7.44013C18.2003 7.42299 18.0574 7.4059 17.9146 7.39447C15.7089 7.21162 13.7489 7.50299 12.0289 8.26299L11.1203 8.72019C9.18885 9.81733 7.66885 11.5373 6.54314 13.8744C5.41742 16.2173 4.85742 19.0858 4.85742 22.4801C4.85742 25.8744 5.41742 29.3945 6.54314 33.0345C7.66885 36.6688 9.18885 40.1487 11.1203 43.4744C13.046 46.7944 15.3089 49.8516 17.9146 52.6459C20.5203 55.4402 23.2974 57.6914 26.2631 59.4C29.2231 61.1086 32.006 62.0743 34.606 62.2857C37.2117 62.4972 39.4803 62.0572 41.406 60.96C43.126 59.9772 44.5317 58.5029 45.606 56.5258C45.7374 56.2916 45.8574 56.0516 45.9774 55.8001C47.1031 53.463 47.6631 50.5944 47.6631 47.1944C47.6631 43.7944 47.1031 40.2802 45.9774 36.6459ZM18.7717 25.663C18.2803 25.383 17.8231 25.2573 17.4003 25.2973C17.3031 25.303 17.206 25.3201 17.1089 25.3487C16.9831 25.383 16.8631 25.4287 16.7488 25.4801L16.6288 25.5373C16.3317 25.6916 16.0631 25.903 15.8289 26.1773L13.1489 22.6059C13.7946 21.8288 14.606 21.3545 15.5831 21.183C15.9089 21.1259 16.246 21.1144 16.5889 21.1544C17.2803 21.223 18.006 21.4801 18.7717 21.9201C19.4574 22.3201 20.1203 22.8344 20.7546 23.4744C21.166 23.8858 21.566 24.3488 21.9546 24.863C22.7774 25.9602 23.486 27.1201 24.0746 28.3373C24.1831 28.5658 24.286 28.7944 24.3888 29.0287L21.7146 29.5144C21.3546 28.7316 20.926 27.983 20.4288 27.263C19.9317 26.5487 19.3774 26.0116 18.7717 25.663ZM32.6803 47.143L26.4574 43.5487L19.8403 39.7258V36.0458L22.4231 37.5373L23.2574 38.0173L32.6803 43.4573V47.143ZM38.1203 37.9659L36.6974 38.223C36.486 37.6973 36.2288 37.1887 35.9317 36.703C35.7831 36.4516 35.6174 36.2002 35.4403 35.9602C34.9203 35.2516 34.3603 34.7258 33.7546 34.3773C33.1488 34.023 32.5946 33.9201 32.0917 34.063C31.966 34.0973 31.846 34.143 31.7317 34.1887L31.6517 34.2287H31.646C31.3317 34.3716 31.0574 34.5716 30.8117 34.823L30.4917 34.4002L28.1317 31.2516C28.7774 30.4802 29.5888 30.0058 30.566 29.8344C31.5488 29.663 32.6117 29.9087 33.7546 30.5658C34.4574 30.9773 35.1317 31.503 35.7774 32.1601C36.1717 32.5601 36.5603 33.0116 36.9374 33.5144C36.9774 33.5658 37.0117 33.6173 37.0517 33.6687C37.8346 34.7258 38.5031 35.8459 39.0574 37.0402C39.166 37.2745 39.2746 37.5087 39.3717 37.743L38.1203 37.9659Z" stroke="#E0E0E0" stroke-opacity="0.6" stroke-linecap="round" stroke-linejoin="round"/>
<path d="M39.3716 37.7431L38.1201 37.966L36.6973 38.2231L37.6973 37.726L39.0573 37.0403C39.1658 37.2746 39.2744 37.5089 39.3716 37.7431Z" stroke="#E0E0E0" stroke-opacity="0.6" stroke-linecap="round" stroke-linejoin="round"/>
<path d="M39.0572 37.0402L37.6972 37.7259L36.6972 38.223C36.4857 37.6973 36.2286 37.1887 35.9314 36.703C35.7829 36.4516 35.6172 36.2002 35.44 35.9602C34.92 35.2516 34.36 34.7259 33.7543 34.3773C33.1486 34.023 32.5943 33.9202 32.0914 34.063C31.9657 34.0973 31.8457 34.143 31.7314 34.1887L35.0629 32.5202L35.7772 32.1602C36.1714 32.5602 36.56 33.0116 36.9372 33.5144C36.9772 33.5659 37.0114 33.6173 37.0514 33.6687C37.8343 34.7259 38.5029 35.8459 39.0572 37.0402Z" stroke="#E0E0E0" stroke-opacity="0.6" stroke-linecap="round" stroke-linejoin="round"/>
<path d="M24.0738 28.3372L21.7138 29.5144C21.3538 28.7315 20.9252 27.9829 20.428 27.2629C19.9309 26.5486 19.3766 26.0115 18.7709 25.6629C18.2795 25.3829 17.8223 25.2572 17.3995 25.2972C17.3023 25.3029 17.2052 25.3201 17.108 25.3487C16.9823 25.3829 16.8623 25.4286 16.748 25.4801L17.3652 25.1658L20.7538 23.4744C21.1652 23.8858 21.5652 24.3487 21.9538 24.8629C22.7766 25.9601 23.4852 27.1201 24.0738 28.3372Z" stroke="#E0E0E0" stroke-opacity="0.6" stroke-linecap="round" stroke-linejoin="round"/>
<path d="M23.257 38.0171L22.8284 38.2285L19.8398 39.7257V36.0457L22.4227 37.5371L23.257 38.0171Z" stroke="#E0E0E0" stroke-opacity="0.6" stroke-linecap="round" stroke-linejoin="round"/>
<path d="M32.6798 43.4573V47.143L26.457 43.5488L19.8398 39.7259L22.8284 38.2288L23.257 38.0173L32.6798 43.4573Z" stroke="#E0E0E0" stroke-opacity="0.6" stroke-linecap="round" stroke-linejoin="round"/>
<path d="M35.7766 32.1598L35.0623 32.5198L31.7309 34.1884L31.6509 34.2284H31.6451C31.3309 34.3713 31.0566 34.5713 30.8109 34.8228L30.4909 34.3999L28.1309 31.2513C28.7766 30.4799 29.588 30.0056 30.5651 29.8341C31.548 29.6627 32.6109 29.9085 33.7537 30.5656C34.4566 30.977 35.1309 31.5027 35.7766 32.1598Z" stroke="#E0E0E0" stroke-opacity="0.6" stroke-linecap="round" stroke-linejoin="round"/>
<path d="M24.3882 29.0284L21.7139 29.5141L24.0739 28.3369C24.1824 28.5655 24.2853 28.7941 24.3882 29.0284Z" stroke="#E0E0E0" stroke-opacity="0.6" stroke-linecap="round" stroke-linejoin="round"/>
<path d="M20.7542 23.4743L17.3656 25.1658L16.7484 25.48L16.6284 25.5372C16.3313 25.6915 16.0627 25.9029 15.8284 26.1772L13.1484 22.6058C13.7942 21.8286 14.6056 21.3543 15.5827 21.1829C15.9084 21.1258 16.2456 21.1143 16.5884 21.1543C17.2799 21.2228 18.0056 21.48 18.7713 21.92C19.457 22.32 20.1199 22.8343 20.7542 23.4743Z" stroke="#E0E0E0" stroke-opacity="0.6" stroke-linecap="round" stroke-linejoin="round"/>
<path d="M59.0912 41.4801C59.0912 44.8801 58.5312 47.7487 57.4055 50.0858C56.2855 52.4287 54.7597 54.1487 52.834 55.2458C52.6283 55.3658 52.4226 55.4687 52.2112 55.5658L52.034 55.6515L41.4055 60.96C43.1255 59.9772 44.5312 58.5029 45.6055 56.5258C45.7369 56.2915 45.8569 56.0515 45.9769 55.8001C47.1026 53.463 47.6626 50.5944 47.6626 47.1944C47.6626 43.7944 47.1026 40.2801 45.9769 36.6458C45.7083 35.7658 45.4112 34.8915 45.0912 34.0287C44.4169 32.2058 43.6397 30.4287 42.7597 28.6915C42.754 28.6858 42.754 28.6801 42.7483 28.6744C42.3255 27.8401 41.8797 27.0172 41.4055 26.2058C41.114 25.6972 40.8112 25.1944 40.4969 24.7029C38.7769 21.9544 36.8112 19.3944 34.6055 17.0344C32.0055 14.2401 29.2226 11.9887 26.2626 10.2801C23.4569 8.65724 20.8226 7.71438 18.3426 7.44009C18.1997 7.42295 18.0569 7.40581 17.914 7.39438C15.7083 7.21152 13.7483 7.50295 12.0283 8.26295L22.5483 3.00583C24.474 1.90869 26.7369 1.46297 29.3426 1.68011C31.9483 1.89154 34.7255 2.85153 37.6912 4.56582C40.6512 6.27438 43.434 8.52581 46.034 11.3201C48.6397 14.1087 50.9083 17.1658 52.834 20.4915C54.7597 23.8115 56.2855 27.2915 57.4055 30.9315C58.5312 34.5658 59.0912 38.0858 59.0912 41.4801Z" stroke="#E0E0E0" stroke-opacity="0.6" stroke-linecap="round" stroke-linejoin="round"/>
</svg>
