<svg width="64" height="64" viewBox="0 0 64 64" fill="none" xmlns="http://www.w3.org/2000/svg">
<path d="M8.02544 44.8793V29.7638L1.43848 25.9597V48.633L21.1923 60.0379V52.4802L8.02544 44.8793Z" stroke="#E0E0E0" stroke-opacity="0.6" stroke-linecap="round" stroke-linejoin="round"/>
<path d="M47.5393 22.3424V45.0157L40.9523 41.2188V26.1033L27.7783 18.4953V10.9375L47.5393 22.3424Z" stroke="#E0E0E0" stroke-opacity="0.6" stroke-linecap="round" stroke-linejoin="round"/>
<path d="M22.4075 22.5726L8.02544 29.7636L1.43848 25.9596L15.8205 18.7686L22.4075 22.5726Z" stroke="#E0E0E0" stroke-opacity="0.6" stroke-linecap="round" stroke-linejoin="round"/>
<path d="M61.9213 15.1516L54.9029 18.6608L47.5393 22.3426L27.7783 10.9376L42.1603 3.74658L61.9213 15.1516Z" stroke="#E0E0E0" stroke-opacity="0.6" stroke-linecap="round" stroke-linejoin="round"/>
<path d="M61.9221 15.1516V37.8249L47.54 45.0159V22.3426L54.9036 18.6608L61.9221 15.1516Z" stroke="#E0E0E0" stroke-opacity="0.6" stroke-linecap="round" stroke-linejoin="round"/>
<path d="M35.5734 45.2891V52.8468L21.1914 60.0378V52.4801L35.5734 45.2891Z" stroke="#E0E0E0" stroke-opacity="0.6" stroke-linecap="round" stroke-linejoin="round"/>
<path d="M35.5742 45.2889L21.1921 52.4799L8.02539 44.879L22.4074 37.688L35.5742 45.2889Z" stroke="#E0E0E0" stroke-opacity="0.6" stroke-linecap="round" stroke-linejoin="round"/>
<path d="M22.4074 22.5725V37.688L8.02539 44.879V29.7635L22.4074 22.5725Z" stroke="#E0E0E0" stroke-opacity="0.6" stroke-linecap="round" stroke-linejoin="round"/>
</svg>
