<svg width="64" height="64" viewBox="0 0 64 64" fill="none" xmlns="http://www.w3.org/2000/svg">
<path d="M46.7671 36.48C46.3737 35.2053 45.9278 33.941 45.4294 32.703C45.4242 32.6925 45.4242 32.6872 45.4189 32.6767C44.6793 30.7987 43.8189 28.9731 42.8484 27.1843C42.8432 27.179 42.8432 27.1685 42.838 27.1633C42.6071 26.7279 42.3606 26.2977 42.114 25.8676C40.1573 22.4944 37.8543 19.3836 35.2052 16.5456C32.5612 13.7076 29.7337 11.4203 26.7225 9.68395C23.7166 7.94231 20.8839 6.96132 18.2399 6.74624C18.1298 6.73575 18.0196 6.7305 17.9147 6.72526C17.815 6.71477 17.7206 6.70952 17.6261 6.70952C15.6537 6.62034 13.8806 6.9246 12.3068 7.60657L12.2806 7.61706L11.3311 8.09444C9.3691 9.21182 7.82154 10.9587 6.68318 13.3403C5.53433 15.7167 4.96777 18.6282 4.96777 22.0853C4.96777 25.5423 5.53433 29.1095 6.68318 32.8079C7.82154 36.5062 9.3691 40.042 11.3311 43.4203C13.2878 46.7987 15.5907 49.9043 18.2399 52.7476C20.8839 55.5856 23.7166 57.8729 26.7225 59.6092C29.7337 61.3456 32.5612 62.3266 35.2052 62.5417C37.8543 62.7568 40.1573 62.3109 42.114 61.1935C43.5986 60.3489 44.8524 59.1371 45.8701 57.5581C45.9225 57.4794 45.975 57.4007 46.017 57.3168C46.2898 56.8866 46.5311 56.4355 46.7671 55.9581C47.9055 53.5765 48.4773 50.6597 48.4773 47.2079C48.4773 43.7561 47.9055 40.1784 46.7671 36.48ZM33.8465 38.5731L33.4163 38.8197L25.3219 43.4308L24.8917 43.6774L23.6747 44.3699L14.4314 28.4223L16.5612 27.2053L16.9914 26.9587L17.474 26.6859L23.6747 37.3823L30.3737 33.5633L30.8039 33.3167L33.4163 31.8269L33.8465 31.5803L35.9711 30.3738L36.2753 30.8984L36.2911 30.9246L39.0137 35.6249L33.8465 38.5731Z" stroke="#E0E0E0" stroke-opacity="0.6" stroke-linecap="round" stroke-linejoin="round"/>
<path d="M36.2912 30.9246L34.1666 32.1364L31.0243 33.7049L23.6748 37.3823L30.3738 33.5633L30.804 33.3167L33.4164 31.8269L33.8466 31.5803L35.9712 30.3738L36.2755 30.8984L36.2912 30.9246Z" stroke="#E0E0E0" stroke-opacity="0.6" stroke-linecap="round" stroke-linejoin="round"/>
<path d="M39.0137 35.6248L33.8465 38.573L33.4163 38.8196L25.3219 43.4307L24.8917 43.6773L23.6747 44.3697L14.4314 28.4222L16.5612 27.2051L16.9914 26.9586L17.474 26.6858L23.6747 37.3822L31.0242 33.7048L34.1665 32.1363L36.2911 30.9245L39.0137 35.6248Z" stroke="#E0E0E0" stroke-opacity="0.6" stroke-linecap="round" stroke-linejoin="round"/>
<path d="M58.9692 41.962C58.9692 45.4138 58.3974 48.3305 57.259 50.7122C56.981 51.2787 56.6872 51.8138 56.362 52.3122C55.3443 53.8912 54.0905 55.103 52.6059 55.9476C52.3279 56.105 52.0446 56.2519 51.7508 56.383L51.6616 56.425L42.1141 61.1935C43.5987 60.349 44.8525 59.1371 45.8702 57.5581C45.9226 57.4794 45.9751 57.4008 46.017 57.3168C46.2898 56.8867 46.5311 56.4355 46.7672 55.9581C47.9056 53.5765 48.4774 50.6597 48.4774 47.2079C48.4774 43.7561 47.9056 40.1784 46.7672 36.48C46.3738 35.2053 45.9279 33.941 45.4295 32.703C45.4243 32.6925 45.4243 32.6873 45.419 32.6768C44.6793 30.7987 43.819 28.9732 42.8485 27.1843C42.8433 27.1791 42.8433 27.1686 42.838 27.1633C42.6072 26.7279 42.3607 26.2978 42.1141 25.8676C40.1574 22.4945 37.8544 19.3837 35.2052 16.5456C32.5613 13.7076 29.7338 11.4204 26.7226 9.68398C23.7167 7.94234 20.8839 6.96136 18.24 6.74628C18.1298 6.73579 18.0197 6.73054 17.9148 6.72529C17.8151 6.7148 17.7207 6.70956 17.6262 6.70956C15.6538 6.62038 13.8807 6.92464 12.3069 7.6066L21.8229 2.84859L22.7725 2.37121L22.7987 2.36072C24.3725 1.67875 26.1456 1.37449 28.118 1.46367C28.3174 1.46367 28.522 1.48465 28.7318 1.50039C31.3757 1.71547 34.2085 2.69646 37.2144 4.4381C40.2256 6.17447 43.0531 8.46169 45.697 11.2997C48.3462 14.1378 50.6492 17.2486 52.6059 20.6217C52.8525 21.0518 53.099 21.482 53.3298 21.9174C54.3056 23.7115 55.1659 25.5476 55.9108 27.4309C56.4144 28.6794 56.8603 29.9489 57.259 31.2341C58.3974 34.9325 58.9692 38.5102 58.9692 41.962Z" stroke="#E0E0E0" stroke-opacity="0.6" stroke-linecap="round" stroke-linejoin="round"/>
</svg>
