<svg width="40" height="40" viewBox="0 0 40 40" fill="none" xmlns="http://www.w3.org/2000/svg">
<path d="M8.65546 24.6817C7.89627 24.52 7.15114 25.0052 6.98946 25.7646L6.89807 26.1865C6.4763 25.4974 6.11076 24.7731 5.81552 24.0207C4.43773 20.554 4.501 16.7709 5.99829 13.3534C7.53073 9.85155 10.3777 7.16538 14.0049 5.78011C18.4265 4.09247 23.4105 4.64095 27.347 7.24273C27.9937 7.67167 28.8654 7.49588 29.2942 6.84192C29.723 6.19499 29.5473 5.32304 28.8935 4.8941C24.2118 1.79306 18.2719 1.13909 13.0067 3.1502C8.66952 4.80972 5.26722 8.0303 3.42548 12.2213C1.61889 16.3349 1.54156 20.8915 3.20053 25.0614C3.58716 26.0248 4.05814 26.96 4.61347 27.839L4.01596 27.5296C3.32707 27.171 2.47649 27.4382 2.11798 28.1273C1.75948 28.8164 2.0266 29.6673 2.71549 30.0259L5.74523 31.601C6.0475 31.7557 6.37086 31.8331 6.70125 31.8331C7.01758 31.8331 7.34094 31.7628 7.64321 31.6151C8.31804 31.2987 8.81011 30.6658 8.96476 29.9345L9.72395 26.3482C9.89969 25.5888 9.41465 24.8364 8.65546 24.6817ZM6.3568 28.7461L6.30759 28.725C6.32868 28.718 6.34274 28.718 6.36383 28.7109L6.3568 28.7461ZM36.865 15.1957C36.4643 14.141 35.7544 12.8823 35.1006 11.8978L35.7122 12.0525C36.4643 12.2494 37.2306 11.7923 37.4274 11.0399C37.6242 10.2875 37.1673 9.52105 36.4151 9.32416L32.7949 8.38892C32.0498 8.19906 31.2554 8.3608 30.665 8.83193C30.1307 9.25384 29.8355 9.87264 29.8566 10.5266L29.9409 13.8878C29.962 14.6543 30.5876 15.259 31.3468 15.259H31.382C32.1552 15.2379 32.7738 14.591 32.7527 13.8175L32.7457 13.4308C33.3081 14.2816 33.9196 15.3504 34.236 16.1872C35.5575 19.668 35.431 23.4582 33.8775 26.8475C32.2818 30.3212 29.3996 32.9722 25.7443 34.3013C24.1064 34.899 22.3982 35.1873 20.7041 35.1873C17.6814 35.1873 14.6938 34.2591 12.1773 32.4519C11.5446 32.0018 10.6659 32.1425 10.216 32.7753C9.76613 33.4082 9.90672 34.2872 10.5394 34.7372C13.541 36.889 17.105 38 20.7041 38C22.7216 38 24.7531 37.6484 26.7003 36.9382C31.0656 35.349 34.5172 32.1847 36.4292 28.0148C38.3061 23.9504 38.4607 19.3938 36.865 15.1957Z" fill="#FF6B35"/>
</svg>
