<svg width="64" height="64" viewBox="0 0 64 64" fill="none" xmlns="http://www.w3.org/2000/svg">
<path d="M3.4668 18.5439V24.4319L16.2988 31.8399V25.9519L3.4668 18.5439Z" stroke="#E0E0E0" stroke-opacity="0.6" stroke-linecap="round" stroke-linejoin="round"/>
<path d="M29.1258 48.0798V62.8053L23.9951 59.8399V45.1199L29.1258 48.0798Z" stroke="#E0E0E0" stroke-opacity="0.6" stroke-linecap="round" stroke-linejoin="round"/>
<path d="M39.7926 45.4028V57.4721L29.126 62.8054V48.08L37.3286 43.9788L39.7926 45.4028Z" stroke="#E0E0E0" stroke-opacity="0.6" stroke-linecap="round" stroke-linejoin="round"/>
<path d="M49.6528 45.2107V51.0987L39.7915 45.4027L37.3275 43.9787L36.8262 43.6907V37.8027L49.6528 45.2107Z" stroke="#E0E0E0" stroke-opacity="0.6" stroke-linecap="round" stroke-linejoin="round"/>
<path d="M31.69 37.7865C31.69 39.4025 31.1887 40.5012 30.186 41.0719C29.178 41.6479 27.9727 41.5251 26.5594 40.7091C25.1514 39.8931 23.9407 38.6185 22.938 36.8851C21.93 35.1518 21.4287 33.4771 21.4287 31.8558C21.4287 30.2345 21.93 29.1411 22.938 28.5705L23.178 28.4531C24.1274 28.0158 25.258 28.1811 26.5594 28.9331C27.9727 29.7491 29.178 31.0185 30.186 32.7571C31.1887 34.4905 31.69 36.1651 31.69 37.7865Z" stroke="#E0E0E0" stroke-opacity="0.6" stroke-linecap="round" stroke-linejoin="round"/>
<path d="M29.1258 9.80254V24.5225L26.9658 23.2745L24.4964 21.8505L23.9951 21.5625V6.83716L29.1258 9.80254Z" stroke="#E0E0E0" stroke-opacity="0.6" stroke-linecap="round" stroke-linejoin="round"/>
<path d="M60.3202 39.8774V45.7654L49.6533 51.0987V45.2108L54.8533 42.6081L60.3202 39.8774Z" stroke="#E0E0E0" stroke-opacity="0.6" stroke-linecap="round" stroke-linejoin="round"/>
<path d="M24.4961 21.8507L21.4988 23.3493L16.2988 25.952L3.4668 18.544L14.1335 13.2107L23.9948 18.9013V21.5626L24.4961 21.8507Z" stroke="#E0E0E0" stroke-opacity="0.6" stroke-linecap="round" stroke-linejoin="round"/>
<path d="M26.9655 23.2746V26.5066L16.2988 31.8399V25.9519L21.4988 23.3493L24.4962 21.8506L26.9655 23.2746Z" stroke="#E0E0E0" stroke-opacity="0.6" stroke-linecap="round" stroke-linejoin="round"/>
<path d="M39.7926 4.46924V19.1893L29.126 24.5226V9.80258L39.7926 4.46924Z" stroke="#E0E0E0" stroke-opacity="0.6" stroke-linecap="round" stroke-linejoin="round"/>
<path d="M39.7925 4.46927L29.1258 9.80261L23.9951 6.83723L34.6618 1.50391L39.7925 4.46927Z" stroke="#E0E0E0" stroke-opacity="0.6" stroke-linecap="round" stroke-linejoin="round"/>
<path d="M42.3574 32.4532C42.3574 34.0692 41.856 35.1678 40.8534 35.7385L40.5707 35.8772L30.1867 41.0718C31.1894 40.5012 31.6907 39.4025 31.6907 37.7865C31.6907 36.1705 31.1894 34.4905 30.1867 32.7571C29.1787 31.0185 27.9734 29.7492 26.56 28.9332C25.2587 28.1812 24.128 28.0158 23.1787 28.4532L33.6054 23.2371C34.608 22.6611 35.8187 22.7838 37.2267 23.5998C38.64 24.4158 39.8454 25.6851 40.8534 27.4238C41.856 29.1571 42.3574 30.8318 42.3574 32.4532Z" stroke="#E0E0E0" stroke-opacity="0.6" stroke-linecap="round" stroke-linejoin="round"/>
<path d="M37.3284 43.9786L29.1258 48.0799L23.9951 45.12L34.6618 39.7866L36.8271 41.0346V43.6906L37.3284 43.9786Z" stroke="#E0E0E0" stroke-opacity="0.6" stroke-linecap="round" stroke-linejoin="round"/>
<path d="M60.3196 39.8772L54.8528 42.6079L49.6528 45.2106L36.8262 37.8026L47.4928 32.4692L60.3196 39.8772Z" stroke="#E0E0E0" stroke-opacity="0.6" stroke-linecap="round" stroke-linejoin="round"/>
</svg>
