<svg width="65" height="64" viewBox="0 0 65 64" fill="none" xmlns="http://www.w3.org/2000/svg">
<path d="M14.5824 27.3208C14.5824 29.3352 13.9529 30.6992 12.7043 31.4126C11.4558 32.1261 9.95025 31.9792 8.19287 30.9615C6.43549 29.949 4.93515 28.3647 3.68138 26.2034C2.43286 24.0474 1.80859 21.9595 1.80859 19.9451C1.80859 17.9306 2.43286 16.5667 3.68138 15.8533L3.99613 15.6959C5.18171 15.1713 6.57713 15.3759 8.19287 16.3044C9.95025 17.3169 11.4558 18.9064 12.7043 21.0625C13.9529 23.2185 14.5824 25.3064 14.5824 27.3208Z" stroke="#E0E0E0" stroke-opacity="0.6" stroke-linecap="round" stroke-linejoin="round"/>
<path d="M33.7406 38.3844C33.7406 40.3988 33.1163 41.7627 31.8678 42.4762C30.614 43.1896 29.1137 43.0375 27.3563 42.025C25.5989 41.0126 24.0934 39.4231 22.8448 37.267C21.5911 35.1109 20.9668 33.0231 20.9668 31.0086C20.9668 28.9942 21.5911 27.6303 22.8448 26.9168C23.0179 26.8172 23.1963 26.7332 23.3799 26.6703C24.5183 26.2611 25.8455 26.4972 27.3563 27.368C29.1137 28.3805 30.614 29.9647 31.8678 32.126C33.1163 34.2821 33.7406 36.37 33.7406 38.3844Z" stroke="#E0E0E0" stroke-opacity="0.6" stroke-linecap="round" stroke-linejoin="round"/>
<path d="M52.9037 49.448C52.9037 51.4625 52.2794 52.8264 51.0256 53.5398C49.7771 54.2533 48.2715 54.1011 46.5141 53.0887C44.7568 52.0762 43.2564 50.4867 42.0027 48.3306C40.7541 46.1746 40.1299 44.0867 40.1299 42.0723C40.1299 40.0579 40.7541 38.6939 42.0027 37.9805C42.1181 37.9123 42.2387 37.8546 42.3594 37.8074L42.4014 37.7864C43.5712 37.309 44.9404 37.5188 46.5141 38.4316C48.2715 39.4441 49.7771 41.0284 51.0256 43.1897C52.2794 45.3457 52.9037 47.4336 52.9037 49.448Z" stroke="#E0E0E0" stroke-opacity="0.6" stroke-linecap="round" stroke-linejoin="round"/>
<path d="M25.0741 22.0747C25.0741 24.0891 24.4446 25.4531 23.1961 26.1665L22.8551 26.3396L22.8027 26.3606L12.7043 31.4124C13.9528 30.699 14.5823 29.3351 14.5823 27.3206C14.5823 25.3062 13.9528 23.2183 12.7043 21.0623C11.4558 18.9062 9.9502 17.3167 8.19282 16.3042C6.57708 15.3757 5.18167 15.1711 3.99609 15.6957L14.1731 10.6072C15.4269 9.89373 16.9272 10.0459 18.6846 11.0583C20.442 12.0708 21.9476 13.6603 23.1961 15.8164C24.4446 17.9724 25.0741 20.0603 25.0741 22.0747Z" stroke="#E0E0E0" stroke-opacity="0.6" stroke-linecap="round" stroke-linejoin="round"/>
<path d="M44.2323 33.1384C44.2323 35.1529 43.6081 36.5168 42.3596 37.2302L31.8678 42.4761C33.1163 41.7627 33.7405 40.3988 33.7405 38.3843C33.7405 36.3699 33.1163 34.282 31.8678 32.126C30.614 29.9647 29.1137 28.3804 27.3563 27.3679C25.8455 26.4971 24.5182 26.2611 23.3799 26.6702L33.3366 21.6709C34.5851 20.9575 36.0907 21.1096 37.8481 22.122C39.6055 23.1345 41.1058 24.7188 42.3596 26.8801C43.6081 29.0361 44.2323 31.124 44.2323 33.1384Z" stroke="#E0E0E0" stroke-opacity="0.6" stroke-linecap="round" stroke-linejoin="round"/>
<path d="M63.3956 44.202C63.3956 46.2165 62.7713 47.5804 61.5175 48.2938L61.1241 48.4879L51.0256 53.5397C52.2794 52.8263 52.9037 51.4624 52.9037 49.4479C52.9037 47.4335 52.2794 45.3456 51.0256 43.1896C49.7771 41.0283 48.2715 39.444 46.5142 38.4315C44.9404 37.5187 43.5712 37.3089 42.4014 37.7863L52.4945 32.7345C53.7484 32.021 55.2487 32.1679 57.0061 33.1856C58.7634 34.1981 60.269 35.7824 61.5175 37.9437C62.7713 40.0997 63.3956 42.1876 63.3956 44.202Z" stroke="#E0E0E0" stroke-opacity="0.6" stroke-linecap="round" stroke-linejoin="round"/>
</svg>
