<svg width="52" height="64" viewBox="0 0 52 64" fill="none" xmlns="http://www.w3.org/2000/svg">
<g clip-path="url(#clip0_381_2067)">
<path d="M18.6789 16.9931V21.4184L1.51343 11.4082V6.98828L18.6789 16.9931Z" stroke="#E0E0E0" stroke-opacity="0.6"/>
<path d="M18.6789 39.0976V43.5229L1.51343 33.5127V29.0928L18.6789 39.0976Z" stroke="#E0E0E0" stroke-opacity="0.6"/>
<path d="M28.4668 33.7536L24.4043 35.8049V36.2097L18.6789 39.098L1.51343 29.0931L12.3467 23.623L24.4043 30.6521V31.3852L28.4668 33.7536Z" stroke="#E0E0E0" stroke-opacity="0.6"/>
<path d="M50.4962 39.2344V56.9134L39.6628 62.3835V44.7045L50.4962 39.2344Z" stroke="#E0E0E0" stroke-opacity="0.6"/>
<path d="M50.4962 39.234L39.6629 44.7041L35.2374 42.1222L28.8404 38.3916L24.7724 36.0176L24.4041 35.8042L28.4666 33.7529L28.8349 33.9663L29.512 34.3601L35.2374 37.6969L39.6629 40.2788L46.4282 36.86L50.4962 39.234Z" stroke="#E0E0E0" stroke-opacity="0.6"/>
<path d="M50.4962 17.1299V34.8093L46.4283 36.8605L39.6628 40.2793V22.6L50.4962 17.1299Z" stroke="#E0E0E0" stroke-opacity="0.6"/>
<path d="M39.6629 22.5998V40.2791L35.2374 37.6972L29.512 34.3605L28.8349 33.9667L28.4666 33.7533L24.4041 31.3848V13.7L24.7724 13.9133L28.8404 16.2873L35.2374 20.018L39.6629 22.5998Z" stroke="#E0E0E0" stroke-opacity="0.6"/>
<path d="M50.4962 17.1293L39.6629 22.5994L35.2374 20.0176L28.8404 16.2869L24.7724 13.9129L24.4041 13.6996L25.0757 13.3604L29.1436 11.3092L35.2374 8.22949L50.4962 17.1293Z" stroke="#E0E0E0" stroke-opacity="0.6"/>
<path d="M29.1439 11.31L25.0759 13.3613L24.4043 13.7004V14.1052L18.6789 16.9934L1.51343 6.98865L12.3467 1.51855L29.1439 11.31Z" stroke="#E0E0E0" stroke-opacity="0.6"/>
<path d="M24.4043 14.1045V18.5298L18.679 21.418V16.9927L24.4043 14.1045Z" stroke="#E0E0E0" stroke-opacity="0.6"/>
<path d="M39.6629 44.7046V62.3836L24.4041 53.4895V35.8047L24.7724 36.0181L28.8404 38.392L35.2374 42.1227L39.6629 44.7046Z" stroke="#E0E0E0" stroke-opacity="0.6"/>
<path d="M24.4043 36.209V40.6343L18.679 43.5225V39.0972L24.4043 36.209Z" stroke="#E0E0E0" stroke-opacity="0.6"/>
</g>
<defs>
<clipPath id="clip0_381_2067">
<rect width="52" height="64" fill="white"/>
</clipPath>
</defs>
</svg>
