<svg width="64" height="64" viewBox="0 0 64 64" fill="none" xmlns="http://www.w3.org/2000/svg">
<path d="M37.9023 50.6785L38.0683 50.5956V50.3467C38.0149 50.4593 37.9616 50.5719 37.9023 50.6785Z" stroke="#E0E0E0" stroke-opacity="0.6" stroke-linecap="round" stroke-linejoin="round"/>
<path d="M37.9023 50.6785L38.0683 50.5956V50.3467C38.0149 50.4593 37.9616 50.5719 37.9023 50.6785Z" stroke="#E0E0E0" stroke-opacity="0.6" stroke-linecap="round" stroke-linejoin="round"/>
<path d="M26.2161 35.8933V56.5215C29.8961 57.3392 32.9657 56.5333 35.4309 54.1037C35.5198 54.0207 35.6027 53.9318 35.6857 53.8429C36.5627 52.9244 37.3035 51.8696 37.902 50.6785L38.0679 50.5955V50.3466C38.9568 48.4681 39.5139 46.2518 39.7509 43.7096L38.0679 42.7378L26.2161 35.8933ZM26.2161 35.8933L23.3598 34.2459L12.6812 28.0829C12.6041 27.5555 12.5686 27.1466 12.5686 26.8385V13.3274L19.8694 14.4L24.4205 15.0696L26.2161 15.3363V35.8933ZM38.0679 21.7363L26.2161 9.7896L24.4205 9.52294L19.8694 8.85331L8.01758 7.11108V23.04C8.01758 29.6533 9.73014 36.6577 13.1612 44.0533C16.5924 51.4548 20.9479 57.434 26.2161 62.0029C30.3761 63.2 33.9612 62.8563 36.9775 60.9718H36.9835C37.7894 60.4622 38.548 59.8518 39.2709 59.1289C40.0057 58.394 40.6635 57.5822 41.2324 56.6992C42.4176 54.9037 43.2651 52.8059 43.7806 50.4059C44.2073 48.48 44.4146 46.3644 44.4146 44.0533V28.1303L38.0679 21.7363Z" stroke="#E0E0E0" stroke-opacity="0.6" stroke-linecap="round" stroke-linejoin="round"/>
<path d="M24.5337 22.157L20.4983 24.1718L12.6819 28.0829C12.6048 27.5555 12.5693 27.1467 12.5693 26.8385V13.3274L19.8701 14.4L24.4212 15.0696V20.9126C24.4212 21.2207 24.4567 21.6296 24.5337 22.157Z" stroke="#E0E0E0" stroke-opacity="0.6" stroke-linecap="round" stroke-linejoin="round"/>
<path d="M26.2165 23.1288V35.8933L23.3602 34.2459L12.6816 28.0829L20.4981 24.1718L24.5335 22.157L26.2165 23.1288Z" stroke="#E0E0E0" stroke-opacity="0.6" stroke-linecap="round" stroke-linejoin="round"/>
<path d="M37.9027 50.6785C37.3042 51.8696 36.5635 52.9244 35.6864 53.8429C35.6035 53.9318 35.5206 54.0207 35.4317 54.1037C32.9665 56.5333 29.8968 57.3392 26.2168 56.5214L34.3531 52.4562L37.9027 50.6785Z" stroke="#E0E0E0" stroke-opacity="0.6" stroke-linecap="round" stroke-linejoin="round"/>
<path d="M38.0686 42.7378V50.3466C38.0153 50.4592 37.962 50.5718 37.9027 50.6785L34.3531 52.4563L26.2168 56.5215V35.8933L38.0686 42.7378Z" stroke="#E0E0E0" stroke-opacity="0.6" stroke-linecap="round" stroke-linejoin="round"/>
<path d="M38.0679 3.86382L29.4991 8.14827L26.2161 9.78975L24.4205 9.52308L19.8694 8.85345L8.01758 7.11123L19.8694 1.1853L38.0679 3.86382Z" stroke="#E0E0E0" stroke-opacity="0.6" stroke-linecap="round" stroke-linejoin="round"/>
<path d="M56.2672 22.2045L44.4153 28.1304L38.0686 21.7364L26.2168 9.78968L29.4998 8.1482L38.0686 3.86377L56.2672 22.2045Z" stroke="#E0E0E0" stroke-opacity="0.6" stroke-linecap="round" stroke-linejoin="round"/>
<path d="M56.2664 22.2043V38.1273C56.2664 44.7406 54.5538 49.7658 51.1227 53.2029C49.9968 54.3288 48.7701 55.194 47.4427 55.7806L47.3893 55.8043L36.9834 60.9658C37.7893 60.4621 38.5479 59.8518 39.2709 59.1288C40.0057 58.394 40.6635 57.5821 41.2323 56.6992C42.4175 54.9036 43.265 52.8058 43.7806 50.4058C44.2072 48.4799 44.4145 46.3643 44.4145 44.0532V28.1303L56.2664 22.2043Z" stroke="#E0E0E0" stroke-opacity="0.6" stroke-linecap="round" stroke-linejoin="round"/>
<path d="M47.704 55.6504L47.4434 55.7808" stroke="#E0E0E0" stroke-opacity="0.6" stroke-linecap="round" stroke-linejoin="round"/>
<path d="M36.9777 60.9719L36.5098 61.203" stroke="#E0E0E0" stroke-opacity="0.6" stroke-linecap="round" stroke-linejoin="round"/>
</svg>
