<svg width="64" height="64" viewBox="0 0 64 64" fill="none" xmlns="http://www.w3.org/2000/svg">
<g clip-path="url(#clip0_86_973)">
<path d="M46.683 37.8048C46.5876 37.4512 46.4808 37.0975 46.3742 36.7438C46.0991 35.8512 45.7959 34.9641 45.4759 34.0884C44.4653 31.3655 43.2247 28.727 41.7482 26.1838C39.8001 22.8267 37.504 19.7333 34.871 16.9038C32.238 14.0799 29.4254 11.8006 26.4275 10.0715C23.5138 8.3873 20.763 7.42174 18.1918 7.18034C18.1244 7.16911 18.0513 7.16344 17.9839 7.15783C15.7495 6.97256 13.7567 7.26449 12.0163 8.05046L11.1123 8.49964C9.15866 9.6056 7.62045 11.3459 6.4808 13.715C5.34676 16.0785 4.77411 18.981 4.77411 22.4168C4.77411 25.8526 5.34676 29.4119 6.4808 33.0947C7.62045 36.7719 9.15866 40.2919 11.1123 43.6547C13.0604 47.0119 15.3509 50.1052 17.9839 52.9291C20.6169 55.7586 23.4352 58.0322 26.4275 59.7613C29.4254 61.4905 32.238 62.4673 34.871 62.6806C37.504 62.8996 39.8001 62.4505 41.7482 61.3389C43.4324 60.3789 44.819 58.9473 45.8969 57.0441C46.0597 56.7466 46.2226 56.4434 46.3742 56.1234C47.5138 53.7599 48.0808 50.8575 48.0808 47.4217C48.0808 44.3115 47.6205 41.1115 46.683 37.8048ZM33.0858 44.7269L26.4275 33.2406L21.3075 36.16L19.7693 37.0357L16.6872 31.7754L18.7812 30.5796L26.4275 26.2231L29.5826 31.6631L36.1735 43.0259L33.0858 44.7269Z" stroke="#E0E0E0" stroke-opacity="0.6" stroke-linecap="round" stroke-linejoin="round"/>
<path d="M36.1736 43.0259L33.0859 44.7269L26.4276 33.2406L29.5828 31.6631L36.1736 43.0259Z" stroke="#E0E0E0" stroke-opacity="0.6" stroke-linecap="round" stroke-linejoin="round"/>
<path d="M29.5829 31.6631L26.4278 33.2406L21.3079 36.1599L19.7696 37.0357L16.6875 31.7754L18.7815 30.5796L26.4278 26.2231L29.5829 31.6631Z" stroke="#E0E0E0" stroke-opacity="0.6" stroke-linecap="round" stroke-linejoin="round"/>
<path d="M59.3091 41.8076C59.3091 45.2434 58.742 48.1458 57.6024 50.5094C56.4684 52.8785 54.9246 54.6133 52.9765 55.7248L52.1063 56.1627L41.7484 61.3389C43.4326 60.3789 44.8192 58.9473 45.8971 57.0441C46.0599 56.7466 46.2227 56.4434 46.3743 56.1234C47.514 53.7599 48.081 50.8574 48.081 47.4216C48.081 44.3115 47.6207 41.1115 46.6831 37.8048C46.5877 37.4511 46.481 37.0974 46.3743 36.7437C46.0992 35.8511 45.7961 34.9641 45.4761 34.0883C44.4655 31.3655 43.2249 28.727 41.7484 26.1838C39.8003 22.8266 37.5042 19.7332 34.8712 16.9037C32.2382 14.0799 29.4255 11.8006 26.4277 10.0715C23.514 8.38725 20.7631 7.42169 18.1919 7.18028C18.1246 7.16906 18.0515 7.16344 17.9841 7.15783C15.7498 6.97256 13.7568 7.26444 12.0165 8.0504L22.3406 2.88553C24.2887 1.77395 26.5792 1.32482 29.2122 1.54377C31.8452 1.7571 34.6634 2.7283 37.6557 4.45742C40.6536 6.18654 43.4663 8.46584 46.0993 11.2897C48.7323 14.1192 51.0284 17.2126 52.9765 20.5698C54.9246 23.9326 56.4684 27.4525 57.6024 31.1297C58.742 34.8125 59.3091 38.3662 59.3091 41.8076Z" stroke="#E0E0E0" stroke-opacity="0.6" stroke-linecap="round" stroke-linejoin="round"/>
</g>
<defs>
<clipPath id="clip0_86_973">
<rect width="64" height="64" fill="white"/>
</clipPath>
</defs>
</svg>
