<svg width="64" height="64" viewBox="0 0 64 64" fill="none" xmlns="http://www.w3.org/2000/svg">
<path d="M37.9023 50.6785L38.0683 50.5956V50.3467C38.0149 50.4593 37.9616 50.5719 37.9023 50.6785Z" stroke="#E0E0E0" stroke-opacity="0.6" stroke-linecap="round" stroke-linejoin="round"/>
<path d="M37.9023 50.6785L38.0683 50.5956V50.3467C38.0149 50.4593 37.9616 50.5719 37.9023 50.6785Z" stroke="#E0E0E0" stroke-opacity="0.6" stroke-linecap="round" stroke-linejoin="round"/>
<path d="M26.2164 35.8933V56.5215C29.8964 57.3392 32.9661 56.5333 35.4313 54.1037C35.5202 54.0207 35.6031 53.9318 35.6861 53.8429C36.5631 52.9244 37.3038 51.8696 37.9023 50.6785L38.0683 50.5955V50.3466C38.9572 48.4681 39.5143 46.2518 39.7513 43.7096L38.0683 42.7378L26.2164 35.8933ZM26.2164 35.8933L23.3601 34.2459L12.6815 28.0829C12.6045 27.5555 12.569 27.1466 12.569 26.8385V13.3274L19.8698 14.4L24.4209 15.0696L26.2164 15.3363V35.8933ZM38.0683 21.7363L26.2164 9.7896L24.4209 9.52294L19.8698 8.85331L8.01794 7.11108V23.04C8.01794 29.6533 9.7305 36.6577 13.1616 44.0533C16.5927 51.4548 20.9483 57.434 26.2164 62.0029C30.3764 63.2 33.9615 62.8563 36.9778 60.9718H36.9838C37.7898 60.4622 38.5483 59.8518 39.2713 59.1289C40.0061 58.394 40.6639 57.5822 41.2328 56.6992C42.418 54.9037 43.2654 52.8059 43.781 50.4059C44.2077 48.48 44.4149 46.3644 44.4149 44.0533V28.1303L38.0683 21.7363Z" stroke="#E0E0E0" stroke-opacity="0.6" stroke-linecap="round" stroke-linejoin="round"/>
<path d="M24.5334 22.157L20.498 24.1718L12.6816 28.0829C12.6045 27.5555 12.569 27.1467 12.569 26.8385V13.3274L19.8698 14.4L24.4209 15.0696V20.9126C24.4209 21.2207 24.4564 21.6296 24.5334 22.157Z" stroke="#E0E0E0" stroke-opacity="0.6" stroke-linecap="round" stroke-linejoin="round"/>
<path d="M26.2164 23.1288V35.8933L23.3601 34.2459L12.6815 28.0829L20.4979 24.1718L24.5334 22.157L26.2164 23.1288Z" stroke="#E0E0E0" stroke-opacity="0.6" stroke-linecap="round" stroke-linejoin="round"/>
<path d="M37.9024 50.6785C37.3038 51.8696 36.5631 52.9244 35.6861 53.8429C35.6031 53.9318 35.5202 54.0207 35.4313 54.1037C32.9661 56.5333 29.8964 57.3392 26.2164 56.5214L34.3527 52.4562L37.9024 50.6785Z" stroke="#E0E0E0" stroke-opacity="0.6" stroke-linecap="round" stroke-linejoin="round"/>
<path d="M38.0683 42.7378V50.3466C38.0149 50.4592 37.9616 50.5718 37.9024 50.6785L34.3527 52.4563L26.2164 56.5215V35.8933L38.0683 42.7378Z" stroke="#E0E0E0" stroke-opacity="0.6" stroke-linecap="round" stroke-linejoin="round"/>
<path d="M38.0683 3.86382L29.4994 8.14827L26.2164 9.78975L24.4209 9.52308L19.8698 8.85345L8.01794 7.11123L19.8698 1.1853L38.0683 3.86382Z" stroke="#E0E0E0" stroke-opacity="0.6" stroke-linecap="round" stroke-linejoin="round"/>
<path d="M56.2668 22.2045L44.4149 28.1304L38.0683 21.7364L26.2164 9.78968L29.4995 8.1482L38.0683 3.86377L56.2668 22.2045Z" stroke="#E0E0E0" stroke-opacity="0.6" stroke-linecap="round" stroke-linejoin="round"/>
<path d="M56.2668 22.2043V38.1273C56.2668 44.7406 54.5543 49.7658 51.1231 53.2029C49.9972 54.3288 48.7706 55.194 47.4431 55.7806L47.3898 55.8043L36.9838 60.9658C37.7898 60.4621 38.5483 59.8518 39.2713 59.1288C40.0061 58.394 40.6639 57.5821 41.2328 56.6992C42.418 54.9036 43.2654 52.8058 43.781 50.4058C44.2076 48.4799 44.4149 46.3643 44.4149 44.0532V28.1303L56.2668 22.2043Z" stroke="#E0E0E0" stroke-opacity="0.6" stroke-linecap="round" stroke-linejoin="round"/>
<path d="M47.7038 55.6504L47.4431 55.7808" stroke="#E0E0E0" stroke-opacity="0.6" stroke-linecap="round" stroke-linejoin="round"/>
<path d="M36.9779 60.9719L36.5099 61.203" stroke="#E0E0E0" stroke-opacity="0.6" stroke-linecap="round" stroke-linejoin="round"/>
</svg>
