<svg width="64" height="66" viewBox="0 0 64 66" fill="none" xmlns="http://www.w3.org/2000/svg">
<g clip-path="url(#clip0_381_951)">
<path d="M46.36 66.0673L53.7132 61.7997C54.5314 61.3278 55.0349 60.3212 55.0349 58.9056V57.6683L55.0874 39.4023L47.7342 43.67L47.6817 61.9464V63.1733C47.6817 64.5993 47.1782 65.5955 46.36 66.0673Z" stroke="#E0E0E0" stroke-opacity="0.6" stroke-miterlimit="10" stroke-linecap="round" stroke-linejoin="round"/>
<path d="M47.7394 42.4405L47.7287 43.6674L55.0822 39.3998L55.0924 38.1625C55.0924 35.3103 53.0785 31.8186 50.5926 30.3821L43.2393 34.6497C45.7252 36.0863 47.7394 39.578 47.7394 42.4405Z" stroke="#E0E0E0" stroke-opacity="0.6" stroke-miterlimit="10" stroke-linecap="round" stroke-linejoin="round"/>
<path d="M9.85084 16.9185C10.6691 16.4467 11.8125 16.5096 13.0607 17.2331L43.2394 34.6497L50.5927 30.382L20.414 12.9654C19.1655 12.2419 18.0223 12.179 17.2041 12.6509L9.85084 16.9185Z" stroke="#E0E0E0" stroke-opacity="0.6" stroke-miterlimit="10" stroke-linecap="round" stroke-linejoin="round"/>
<path d="M13.0607 17.2359C10.5714 15.7992 8.54183 16.9554 8.53372 19.8147L8.53022 21.047L8.47841 39.3182L8.47491 40.5506C8.4668 43.4098 10.4831 46.901 12.9725 48.3377L43.1489 65.7534C45.6417 67.1921 47.6678 66.0339 47.6759 63.1746L47.6794 61.9423L47.7312 43.671L47.7347 42.4387C47.7428 39.5794 45.7299 36.0902 43.2371 34.6516L13.0607 17.2359Z" stroke="#E0E0E0" stroke-opacity="0.6" stroke-miterlimit="10" stroke-linecap="round" stroke-linejoin="round"/>
<path d="M34.8324 41.3145C32.5359 39.9891 30.6682 41.0531 30.6607 43.6829C30.6532 46.3247 32.5088 49.5375 34.8053 50.8629C37.1017 52.1883 38.9695 51.1243 38.977 48.4825C38.9845 45.8527 37.1288 42.6398 34.8324 41.3145Z" stroke="#E0E0E0" stroke-opacity="0.6" stroke-miterlimit="10" stroke-linecap="round" stroke-linejoin="round"/>
<path d="M20.2238 33.4476C17.9238 32.1202 16.056 33.1842 16.0485 35.814C16.041 38.4558 17.8967 41.6687 20.1967 42.9961C22.493 44.3214 24.3608 43.2574 24.3683 40.6156C24.3758 37.9858 22.5201 34.7729 20.2238 33.4476Z" stroke="#E0E0E0" stroke-opacity="0.6" stroke-miterlimit="10" stroke-linecap="round" stroke-linejoin="round"/>
<path d="M29.1569 23.1222C29.1569 25.6095 34.7859 25.6095 34.7859 23.1222L31.9714 4.36816L29.1569 23.1222Z" stroke="#E0E0E0" stroke-opacity="0.6" stroke-miterlimit="10" stroke-linecap="round" stroke-linejoin="round"/>
<path d="M26.7739 6.81833C26.7739 9.69138 29.1026 12.0087 31.9768 12.0087C34.8404 12.0087 37.1691 9.69138 37.1691 6.81833C37.1691 3.94528 34.8404 1.62793 31.9768 1.62793C29.1026 1.62793 26.7739 3.94528 26.7739 6.81833Z" stroke="#E0E0E0" stroke-opacity="0.6" stroke-miterlimit="10" stroke-linecap="round" stroke-linejoin="round"/>
</g>
<defs>
<clipPath id="clip0_381_951">
<rect width="64" height="66" fill="white" transform="matrix(-1 0 0 1 64 0)"/>
</clipPath>
</defs>
</svg>
