<svg width="40" height="40" viewBox="0 0 40 40" fill="none" xmlns="http://www.w3.org/2000/svg">
<path d="M8.02541 3V17.0739L5.95874 18.3106V37H36.9587V9.43237L28.7396 15.7436V9.36863L20.4295 15.7436V9.63425L14.2254 13.3551V3H8.02541ZM10.0921 5.125H12.1587V14.5961L10.0921 15.8329V5.125ZM18.3629 13.3381V19.9788L26.6729 13.6037V19.9788L34.8921 13.6696V34.875H8.02541V19.5346L18.3629 13.3381ZM10.0921 26.3644V32.7394H16.2921V26.3644H10.0921ZM18.3587 26.3644V32.7394H24.5587V26.3644H18.3587ZM26.6254 26.3644V32.7394H32.8254V26.3644H26.6254ZM12.1587 28.4894H14.2254V30.6144H12.1587V28.4894ZM20.4254 28.4894H22.4921V30.6144H20.4254V28.4894ZM28.6921 28.4894H30.7587V30.6144H28.6921V28.4894Z" fill="#FF6B35"/>
</svg>
