<svg width="57" height="64" viewBox="0 0 57 64" fill="none" xmlns="http://www.w3.org/2000/svg">
<g clip-path="url(#clip0_381_1292)">
<path d="M39.8439 8.24027L29.0892 13.5736L17.173 6.75227L20.6951 5.00295L27.9277 1.41895L39.8439 8.24027Z" stroke="#E0E0E0" stroke-opacity="0.6"/>
<path d="M50.1361 38.2986V39.6319C50.1361 39.8986 50.1038 40.1439 50.0285 40.3946L39.2792 45.7333H39.2738C39.3491 45.4826 39.3814 45.2319 39.3814 44.9653V43.2959C39.3814 43.0293 39.3653 42.7413 39.3276 42.4319L44.9093 40.8213C45.3395 40.6933 47.7216 39.5146 50.1361 38.2986Z" stroke="#E0E0E0" stroke-opacity="0.6"/>
<path d="M40.7096 16.6296L33.0415 20.4322H33.0361L29.9549 21.9629L29.772 20.2082L29.7451 19.9256L29.0891 13.5736L39.8438 8.24023L40.5268 14.8749L40.7096 16.6296Z" stroke="#E0E0E0" stroke-opacity="0.6"/>
<path d="M43.2585 19.7546L36.6928 23.0133L32.5038 25.088C32.1059 24.5333 31.7026 23.9946 31.2885 23.4666C30.8691 22.9386 30.4228 22.4373 29.955 21.968L33.0362 20.4373H33.0416L40.7097 16.6346C41.1775 17.104 41.6238 17.6053 42.0433 18.1333C42.4573 18.6613 42.8606 19.2 43.2585 19.7546Z" stroke="#E0E0E0" stroke-opacity="0.6"/>
<path d="M49.7007 20.3629L38.946 25.6962L38.8438 25.6909L37.7845 25.5895L32.5039 25.0882L36.6929 23.0082L43.2586 19.7549L48.5392 20.2562L49.7007 20.3629Z" stroke="#E0E0E0" stroke-opacity="0.6"/>
<path d="M55.6643 35.4933C55.6643 35.4933 52.884 36.9226 50.1362 38.3039C47.7218 39.5199 45.3396 40.6986 44.9094 40.8266L41.4141 31.9626L39.0965 26.0906L38.9459 25.7013L49.7006 20.3679L55.6643 35.4933Z" stroke="#E0E0E0" stroke-opacity="0.6"/>
<path d="M55.6051 48.4053L49.6522 56.6987L38.8975 62.032L44.8556 53.7333C45.0169 53.6853 45.5277 53.4507 46.2483 53.1039C49.136 51.7173 55.3631 48.5279 55.6051 48.4053Z" stroke="#E0E0E0" stroke-opacity="0.6"/>
<path d="M55.6105 48.4H55.6051C55.3631 48.528 49.136 51.7173 46.2484 53.104C45.5278 53.4507 45.0169 53.6854 44.8556 53.7334L42.4842 50.336L42.3444 50.1333L39.2793 45.7333L50.0286 40.3947L53.2389 45.0027L55.6105 48.4Z" stroke="#E0E0E0" stroke-opacity="0.6"/>
<path d="M42.3444 50.1337L39.2793 45.7337H39.2739C39.3492 45.4831 39.3815 45.2324 39.3815 44.9657V43.2964C39.3815 43.0297 39.3653 42.7417 39.3277 42.4324L44.9094 40.8217L41.4141 31.9577L39.0964 26.0857L38.9459 25.6964L38.8437 25.6857L37.7844 25.5844L32.5038 25.0831C32.1059 24.5284 31.7026 23.9897 31.2885 23.4617C30.8691 22.9337 30.4228 22.4324 29.9549 21.9631L29.7721 20.2084L29.7452 19.9257L29.0892 13.5737L17.173 6.74707L16.3018 14.1444C15.8716 14.1017 15.4361 14.1017 15.0059 14.1391C14.8822 14.1497 14.7639 14.1657 14.6456 14.1871C14.3391 14.2244 14.0433 14.2777 13.7583 14.3471V14.3364L7.31089 7.57907L1.35278 15.8777L6.93447 23.8831C6.89683 24.1497 6.8807 24.4164 6.8807 24.6831V26.3524C6.8807 26.6191 6.89683 26.9071 6.93447 27.2164L1.35278 28.8271L7.31089 43.9524L13.7583 44.5604C14.1563 45.1204 14.5596 45.6591 14.979 46.1871C15.3931 46.7097 15.8394 47.2111 16.3018 47.6857L17.173 56.0698L29.0892 62.8965L29.9549 55.4991C30.3905 55.5471 30.8261 55.5471 31.2563 55.4991C31.6918 55.4618 32.1059 55.3925 32.5038 55.2911L36.3164 59.3071H36.3217L38.8975 62.0325L44.8556 53.7338L42.4842 50.3364L42.3444 50.1337ZM28.6052 44.0591C28.1912 44.2937 27.7502 44.4484 27.2824 44.5177C27.0297 44.5657 26.7715 44.5817 26.5027 44.5711C25.5132 44.5444 24.427 44.1924 23.2386 43.5204C21.4641 42.5017 19.9208 41.0351 18.6087 39.1097C18.5012 38.9551 18.399 38.8004 18.3022 38.6404C18.1463 38.4004 17.9957 38.1497 17.8505 37.8991C17.7698 37.7604 17.6946 37.6217 17.6193 37.4884C16.8342 36.0697 16.2857 34.6671 15.9684 33.2911C15.7587 32.3631 15.6512 31.4457 15.6512 30.5391C15.6512 28.1551 16.3879 26.5444 17.8505 25.6964C19.3078 24.8484 21.1092 25.0351 23.2386 26.2511C24.2227 26.8164 25.1476 27.5364 25.9972 28.4004C26.465 28.8751 26.9167 29.3924 27.3469 29.9577C27.7879 30.5391 28.2073 31.1737 28.6052 31.8511C29.1268 32.7471 29.557 33.6324 29.8904 34.5071C30.1485 35.1524 30.3475 35.7977 30.4981 36.4324C30.7131 37.3764 30.8261 38.3097 30.8261 39.2271C30.8261 41.6111 30.084 43.2217 28.6052 44.0591Z" stroke="#E0E0E0" stroke-opacity="0.6"/>
<path d="M30.826 39.2271C30.826 41.6111 30.084 43.2218 28.6052 44.0591C28.1911 44.2938 27.7502 44.4484 27.2823 44.5178C27.0296 44.5658 26.7715 44.5818 26.5026 44.5711C25.5132 44.5444 24.427 44.1924 23.2386 43.5204C21.464 42.5018 19.9207 41.0351 18.6087 39.1098C18.5011 38.9551 18.399 38.8004 18.3022 38.6404C18.1462 38.4004 17.9957 38.1498 17.8505 37.8991C17.7698 37.7604 17.6945 37.6218 17.6192 37.4884C16.8341 36.0698 16.2857 34.6671 15.9684 33.2911C15.7587 32.3631 15.6511 31.4458 15.6511 30.5391C15.6511 28.1551 16.3878 26.5444 17.8505 25.6964C19.3077 24.8484 21.1091 25.0351 23.2386 26.2511C24.2226 26.8164 25.1475 27.5364 25.9972 28.4004C26.465 28.8751 26.9167 29.3924 27.3469 29.9578C27.6749 30.8218 28.0943 31.6911 28.6052 32.5658C28.8472 32.9871 29.0999 33.3924 29.3634 33.7764C29.5355 34.0271 29.7129 34.2724 29.8904 34.5071C30.1485 35.1524 30.3474 35.7978 30.498 36.4324C30.7131 37.3764 30.826 38.3098 30.826 39.2271Z" stroke="#E0E0E0" stroke-opacity="0.6"/>
<path d="M20.695 5.00298L17.1729 6.74697L16.3017 14.1443C15.8715 14.1016 15.436 14.1016 15.0058 14.139C14.8821 14.1496 14.7638 14.1656 14.6455 14.187C14.339 14.2243 14.0432 14.2776 13.7582 14.347V14.3363L7.31079 7.57897L18.0655 2.25098L20.695 5.00831V5.00298Z" stroke="#E0E0E0" stroke-opacity="0.6"/>
<path d="M36.3217 59.3174L29.0891 62.9014L29.9549 55.504C30.3904 55.552 30.826 55.552 31.2562 55.504C31.6918 55.4667 32.1058 55.3974 32.5037 55.296L36.3163 59.312H36.3217V59.3174Z" stroke="#E0E0E0" stroke-opacity="0.6"/>
</g>
<defs>
<clipPath id="clip0_381_1292">
<rect width="57" height="64" fill="white"/>
</clipPath>
</defs>
</svg>
