<svg width="64" height="64" viewBox="0 0 64 64" fill="none" xmlns="http://www.w3.org/2000/svg">
<path d="M45.8317 4.61182L43.2418 26.8922L31.2792 32.8735L33.8691 10.5931L45.8317 4.61182Z" stroke="#E0E0E0" stroke-opacity="0.6" stroke-linecap="round" stroke-linejoin="round"/>
<path d="M58.7812 35.8641L46.8186 41.8454L31.2792 32.8734L43.2418 26.8921L58.7812 35.8641Z" stroke="#E0E0E0" stroke-opacity="0.6" stroke-linecap="round" stroke-linejoin="round"/>
<path d="M58.7813 35.8643L32.8822 56.5716L20.9196 62.5526L30.2803 55.0702L46.8186 41.8456L58.7813 35.8643Z" stroke="#E0E0E0" stroke-opacity="0.6" stroke-linecap="round" stroke-linejoin="round"/>
<path d="M46.8186 41.8455L30.2803 55.0702L20.9196 62.5526L15.7398 59.5622L18.3297 40.2546L5.38011 32.7779L28.6893 7.60254L32.8762 10.019L33.8691 10.5932L31.2792 32.8736L46.8186 41.8455Z" stroke="#E0E0E0" stroke-opacity="0.6" stroke-linecap="round" stroke-linejoin="round"/>
<path d="M45.8317 4.61175L33.869 10.593L32.8761 10.0189L28.6892 7.60237L40.6518 1.62109L45.8317 4.61175Z" stroke="#E0E0E0" stroke-opacity="0.6" stroke-linecap="round" stroke-linejoin="round"/>
</svg>
