<svg width="13" height="12" viewBox="0 0 13 12" fill="none" xmlns="http://www.w3.org/2000/svg">
<path d="M10.8203 6.26528L7.44531 9.64028C7.37494 9.71064 7.2795 9.75017 7.17999 9.75017C7.08048 9.75017 6.98505 9.71064 6.91468 9.64028C6.84431 9.56991 6.80478 9.47448 6.80478 9.37496C6.80478 9.27545 6.84431 9.18002 6.91468 9.10965L9.64984 6.37496H2.30499C2.20554 6.37496 2.11015 6.33546 2.03983 6.26513C1.9695 6.1948 1.92999 6.09942 1.92999 5.99996C1.92999 5.90051 1.9695 5.80513 2.03983 5.7348C2.11015 5.66447 2.20554 5.62496 2.30499 5.62496H9.64984L6.91468 2.89028C6.84431 2.81991 6.80478 2.72448 6.80478 2.62496C6.80478 2.52545 6.84431 2.43002 6.91468 2.35965C6.98505 2.28929 7.08048 2.24976 7.17999 2.24976C7.2795 2.24976 7.37494 2.28929 7.44531 2.35965L10.8203 5.73465C10.8552 5.76948 10.8828 5.81084 10.9017 5.85636C10.9206 5.90189 10.9303 5.95068 10.9303 5.99996C10.9303 6.04925 10.9206 6.09804 10.9017 6.14357C10.8828 6.18909 10.8552 6.23045 10.8203 6.26528Z" fill="#FF6B35"/>
</svg>
