<svg width="64" height="64" viewBox="0 0 64 64" fill="none" xmlns="http://www.w3.org/2000/svg">
<path d="M48.3829 17.3843V33.5582L48.195 33.4469L45.8507 32.0974L36.7864 26.8661L34.442 25.5095L34.282 25.419V9.24512L48.195 17.273L48.3829 17.3843Z" stroke="#E0E0E0" stroke-opacity="0.6" stroke-linecap="round" stroke-linejoin="round"/>
<path d="M31.9378 26.7617V42.9356L31.75 42.8243L20.3344 36.2365L17.8369 34.7965V18.6226L29.4055 25.3008L31.75 26.6504L31.9378 26.7617Z" stroke="#E0E0E0" stroke-opacity="0.6" stroke-linecap="round" stroke-linejoin="round"/>
<path d="M31.9378 45.6279V61.8088L17.8369 53.6696V37.4888L31.75 45.5166L31.9378 45.6279Z" stroke="#E0E0E0" stroke-opacity="0.6" stroke-linecap="round" stroke-linejoin="round"/>
<path d="M45.8505 50.9706V54.8524L31.9375 61.8089V45.628L34.4348 44.3828L45.8505 50.9706Z" stroke="#E0E0E0" stroke-opacity="0.6" stroke-linecap="round" stroke-linejoin="round"/>
<path d="M48.3829 36.2573V52.4312L45.8507 50.9704L34.435 44.3825L34.282 44.2921V28.1182L45.8507 34.7965L48.195 36.146L48.3829 36.2573Z" stroke="#E0E0E0" stroke-opacity="0.6" stroke-linecap="round" stroke-linejoin="round"/>
<path d="M62.2955 29.301V45.4749L48.3824 52.4315V36.2575L62.2955 29.301Z" stroke="#E0E0E0" stroke-opacity="0.6" stroke-linecap="round" stroke-linejoin="round"/>
<path d="M62.2959 29.301L48.3829 36.2575L48.195 36.1462L45.8507 34.7966L34.282 28.1184L36.7864 26.8662L45.8507 32.0975L48.195 33.4471L48.3829 33.5584L59.7916 27.854L62.2959 29.301Z" stroke="#E0E0E0" stroke-opacity="0.6" stroke-linecap="round" stroke-linejoin="round"/>
<path d="M36.7861 26.866L34.2817 28.1182V41.7669L31.9375 42.9356V26.7617L34.4417 25.5095L36.7861 26.866Z" stroke="#E0E0E0" stroke-opacity="0.6" stroke-linecap="round" stroke-linejoin="round"/>
<path d="M34.4421 25.5095L31.9378 26.7617L31.75 26.6504L29.4055 25.3008L17.8369 18.6225L29.4055 12.8417L31.75 11.666L34.2821 13.1269V25.4191L34.4421 25.5095Z" stroke="#E0E0E0" stroke-opacity="0.6" stroke-linecap="round" stroke-linejoin="round"/>
<path d="M62.2955 10.428V26.6019L59.7913 27.8541L48.3824 33.5584V17.3845L62.2955 10.428Z" stroke="#E0E0E0" stroke-opacity="0.6" stroke-linecap="round" stroke-linejoin="round"/>
<path d="M62.2959 10.428L48.3829 17.3845L48.195 17.2732L34.282 9.24531L48.195 2.28882L62.2959 10.428Z" stroke="#E0E0E0" stroke-opacity="0.6" stroke-linecap="round" stroke-linejoin="round"/>
<path d="M15.4922 17.2661V33.44L1.39136 25.3009V9.12695L15.3044 17.1548L15.4922 17.2661Z" stroke="#E0E0E0" stroke-opacity="0.6" stroke-linecap="round" stroke-linejoin="round"/>
<path d="M29.4049 10.3098V12.842L17.8362 18.6229V32.2716L15.4918 33.4402V17.2663L29.4049 10.3098Z" stroke="#E0E0E0" stroke-opacity="0.6" stroke-linecap="round" stroke-linejoin="round"/>
<path d="M29.4053 10.3095L15.4922 17.266L15.3044 17.1547L1.39136 9.12692L15.3044 2.17041L29.4053 10.3095Z" stroke="#E0E0E0" stroke-opacity="0.6" stroke-linecap="round" stroke-linejoin="round"/>
<path d="M34.4351 44.3825L31.9378 45.6276L31.75 45.5164L17.8369 37.4886L20.3344 36.2363L31.75 42.8242L31.9378 42.9355L34.2821 41.7668V44.292L34.4351 44.3825Z" stroke="#E0E0E0" stroke-opacity="0.6" stroke-linecap="round" stroke-linejoin="round"/>
</svg>
