<svg width="65" height="64" viewBox="0 0 65 64" fill="none" xmlns="http://www.w3.org/2000/svg">
<path d="M8.29126 12.2043V41.2937L17.5072 46.6141V17.5247L8.29126 12.2043Z" stroke="#E0E0E0" stroke-opacity="0.6" stroke-linecap="round" stroke-linejoin="round"/>
<path d="M31.3369 12.2881V54.5949L22.1152 49.2745V6.96216L31.3369 12.2881Z" stroke="#E0E0E0" stroke-opacity="0.6" stroke-linecap="round" stroke-linejoin="round"/>
<path d="M56.2913 38.5056V57.0156L45.1609 62.5808V44.0708L47.0753 43.1136L56.2913 38.5056Z" stroke="#E0E0E0" stroke-opacity="0.6" stroke-linecap="round" stroke-linejoin="round"/>
<path d="M45.1611 44.0708V62.5808L35.9451 57.2604V38.7449L42.4675 42.5125L45.1611 44.0708Z" stroke="#E0E0E0" stroke-opacity="0.6" stroke-linecap="round" stroke-linejoin="round"/>
<path d="M42.4673 6.72266V35.4837L35.9449 38.7449V52.2907L31.3369 54.5947V12.2879L33.2457 11.3362L42.4673 6.72266Z" stroke="#E0E0E0" stroke-opacity="0.6" stroke-linecap="round" stroke-linejoin="round"/>
<path d="M22.1153 8.19186V15.2207L19.4218 16.5675L17.5072 17.5247L8.29126 12.2044L19.4218 6.63916L22.1153 8.19186Z" stroke="#E0E0E0" stroke-opacity="0.6" stroke-linecap="round" stroke-linejoin="round"/>
<path d="M22.1151 15.2209V44.3103L17.5071 46.6143V17.5249L19.4216 16.5677L22.1151 15.2209Z" stroke="#E0E0E0" stroke-opacity="0.6" stroke-linecap="round" stroke-linejoin="round"/>
<path d="M42.4673 6.72288L33.2457 11.3364L31.3369 12.2881L22.1152 6.96218L33.2457 1.39697L42.4673 6.72288Z" stroke="#E0E0E0" stroke-opacity="0.6" stroke-linecap="round" stroke-linejoin="round"/>
<path d="M56.2916 38.5058L47.0755 43.1138L45.1611 44.0711L42.4675 42.5128L35.9451 38.7452L42.4675 35.4839L47.0755 33.1799L56.2916 38.5058Z" stroke="#E0E0E0" stroke-opacity="0.6" stroke-linecap="round" stroke-linejoin="round"/>
</svg>
