<svg width="64" height="64" viewBox="0 0 64 64" fill="none" xmlns="http://www.w3.org/2000/svg">
<path d="M28.5 29.7107L28.5496 15.5662C28.5496 14.3617 30.3454 15.2739 30.3355 16.4873L30.2859 30.6319C30.2859 31.8364 28.5 30.933 28.5 29.7107ZM43.5611 29.5425C43.571 29.5336 43.571 29.5336 43.5611 29.5425L45.6248 28.4708C45.7141 28.4265 45.8232 28.4265 45.9225 28.4708L46.7261 28.887C47.1627 29.1085 47.5 29.6399 47.5 30.0827L47.4901 32.111C47.4901 32.3855 47.3611 32.5981 47.1627 32.6955C44.8807 33.8824 44.8906 34.0064 44.3548 33.7318L43.5413 33.3155C43.452 33.2712 43.3924 33.1827 43.3924 33.0941L43.4023 29.7727C43.4222 29.6665 43.4718 29.5867 43.5611 29.5425ZM44.6525 33.2801C44.8112 33.3598 44.8509 33.3421 44.8509 33.1915C44.8608 30.7293 44.8608 31.2076 44.841 31.0836C44.7616 30.5256 44.2358 30.3396 43.9976 30.2156L43.9877 32.9347L44.6525 33.2801ZM35.5741 36.9823C35.5741 36.9911 35.5642 37 35.5444 37C35.5345 37 35.5345 37 35.5741 36.9823ZM35.5741 36.9823C35.5741 36.9911 35.5642 37 35.5444 37C35.5345 37 35.5345 37 35.5741 36.9823Z" fill="#E0E0E0" fill-opacity="0.6"/>
<path d="M15.2967 15.615V14.2049C15.2967 13.5549 15.6568 13.2948 16.0279 13.0948L19.935 11.0247C19.935 11.0247 19.935 11.0247 19.935 11.0147C19.9459 8.47456 20.9172 6.58444 22.6743 5.71439L32.3001 0.57408C34.0353 -0.345976 36.3053 -0.155964 38.7063 1.11411C43.4974 3.65426 47.3062 9.62462 47.3717 14.7049C47.3935 15.315 47.3608 15.345 47.3608 23.0954C47.59 23.0954 47.841 23.1554 48.092 23.2854C48.8887 23.7155 49.5108 24.6955 49.4999 25.5156L49.478 33.6961C49.4671 37.6263 47.9829 40.5865 45.309 42.0166C38.2589 45.7768 38.2261 45.8468 36.6327 46.0668C35.967 46.7669 34.7884 47.5469 32.7475 47.8569V48.617L42.6134 53.8373C43.0499 54.0773 43.3773 54.6073 43.3773 55.0774C43.3664 57.5175 43.4537 57.6375 43.0281 57.8675L31.678 63.9079C31.4161 64.0479 31.1541 64.0179 30.9031 63.8879L17.7522 56.9275C16.8028 56.4274 16.9665 55.6674 16.9774 53.5073C16.9774 53.3873 17.0865 52.9972 17.3375 52.8872L27.6072 47.4169V47.3169C26.1775 46.7469 24.8024 45.7068 24.475 43.7867V41.0365C19.1055 36.1662 15.253 28.7258 15.264 22.3754L15.2749 18.8952L15.1002 18.7952C14.751 18.6152 14.5 18.2051 14.5 17.8551V16.385C14.5109 15.965 14.8492 15.845 15.2967 15.615ZM34.7883 18.2151L37.3094 19.5552L46.7278 14.5549C46.575 9.76463 42.8862 3.99429 38.3789 1.62414C36.1962 0.464073 34.1444 0.264061 32.6275 1.07411L22.9799 6.22442C21.441 6.99446 20.5898 8.69457 20.5789 11.0247C20.5789 11.0247 20.5789 11.0347 20.5789 11.0447L22.9799 12.3148C24.6387 13.1848 24.5514 15.725 22.9689 14.8749L20.5789 13.6149C20.5789 14.3549 20.568 15.195 20.568 16.095L22.958 17.3551C24.5951 18.2251 24.5732 20.7653 22.958 19.9252L20.557 18.6552V21.1453L22.958 22.4154C24.5732 23.2654 24.5514 25.8356 22.9471 24.9855L20.557 23.7255C20.6989 28.5258 24.3768 34.2761 28.895 36.6562C33.195 38.9164 34.7993 37.1163 40.2779 34.2061C40.2888 32.566 40.2888 33.226 40.2888 31.2959L37.4403 32.816C37.3312 32.876 37.2112 32.876 37.1129 32.816L34.4282 31.3959C32.3546 30.2959 32.7912 27.2957 34.7556 28.3257L37.3094 29.6858L37.6804 29.4858L37.1675 29.2358C37.0693 29.1858 36.9929 29.0858 36.9929 28.9758L37.0038 27.6857L34.4391 26.3356C32.3983 25.2656 32.7803 22.2254 34.7774 23.2654L37.3312 24.6155L46.7169 19.6252L46.7278 17.8251L37.5058 22.7254C37.4076 22.7854 37.2548 22.7754 37.1893 22.7254L34.45 21.2953C32.3874 20.1953 32.8785 17.2051 34.7883 18.2151ZM44.9816 41.5165C47.459 40.1865 48.8232 37.4063 48.8341 33.6961L48.856 25.5156C48.8669 24.9055 48.3648 24.1155 47.7755 23.7955C47.6118 23.7055 47.3717 23.6355 47.2189 23.7155L42.0022 26.4956C42.7662 26.8557 43.4319 27.8757 43.4319 28.7558L43.421 33.146C43.4101 36.6462 43.7811 40.4565 41.4675 43.3867L44.9816 41.5165ZM40.3106 27.4257C40.3106 27.2657 40.3434 26.6957 40.8454 26.4256C42.9735 25.2956 41.8385 25.9056 46.2149 23.5655V23.1254L38.0843 27.4557C40.3543 28.5458 39.8523 28.3057 40.2997 28.5158L40.3106 27.4257ZM40.2888 34.8861C37.364 36.4362 36.1744 37.0763 35.7487 37.3063L35.716 37.3263C35.716 37.3263 35.716 37.3263 35.7051 37.3263L35.6942 37.3363C35.6833 37.3463 35.6505 37.3563 35.6287 37.3663C35.585 37.3863 35.5632 37.3963 35.5741 37.3963C35.5632 37.3963 35.5632 37.3963 35.5632 37.3963C35.5305 37.4163 35.5305 37.4163 35.5305 37.4163C35.4104 37.4863 35.2467 37.5763 35.0066 37.6963C36.4145 38.5164 37.8769 39.1364 39.5576 39.3264C40.267 37.7663 40.2888 36.3662 40.2888 34.8861ZM18.3088 53.0472C28.4148 58.3976 25.5991 56.9075 31.2305 59.8876C32.1473 60.3677 32.0054 61.2977 32.0054 62.1978V63.0578C43.4756 56.9575 42.7334 57.4175 42.7334 57.2375L42.7444 55.0774C42.7444 54.8173 42.5261 54.4773 42.286 54.3473L32.7475 49.297V54.1073C32.1582 55.8574 27.9783 55.7474 27.6072 54.1073V48.0969L18.3088 53.0472ZM35.6505 46.1368C31.8089 46.2068 27.9455 44.0067 25.1298 41.6165L25.1189 43.7467C25.7846 47.6669 32.6493 48.417 35.6505 46.1368ZM18.7454 26.7156C21.1573 38.2463 34.8102 47.5369 39.252 39.8864C37.484 39.6464 35.8033 38.9264 34.3082 37.9863C32.4092 38.6464 30.3356 38.0963 28.5785 37.1663C23.7765 34.6361 19.8913 28.4658 19.9022 23.4055C19.9131 22.3554 19.9131 21.2353 19.9131 20.1153L18.418 19.3252C18.418 23.6955 18.3088 24.5955 18.7454 26.7156ZM19.9241 17.8751V16.615L18.7454 17.2451L19.9241 17.8751ZM18.4398 15.515V16.7351L19.9459 15.935V11.7047L16.9992 13.2748C17.7632 13.6449 18.4398 14.6549 18.4398 15.515ZM15.1439 17.8551C15.133 17.9551 15.1985 18.0751 15.2858 18.1751V16.515L15.1439 16.435V17.8551Z" fill="#E0E0E0" fill-opacity="0.6"/>
</svg>
