<svg width="53" height="64" viewBox="0 0 53 64" fill="none" xmlns="http://www.w3.org/2000/svg">
<g clip-path="url(#clip0_381_2057)">
<path d="M39.6743 56.0185V62.3253L1.16479 40.1175V33.8105L39.6743 56.0185Z" stroke="#E0E0E0" stroke-opacity="0.6"/>
<path d="M51.3227 50.2V56.5069L39.6743 62.3249V56.0181L45.4635 53.1265L51.3227 50.2Z" stroke="#E0E0E0" stroke-opacity="0.6"/>
<path d="M38.7134 49.1581L12.8133 34.2229L7.02411 30.8832L2.13184 28.0614L20.4197 7.08105L22.6096 12.1138L31.439 32.4251L35.0966 40.844L38.7134 49.1581Z" stroke="#E0E0E0" stroke-opacity="0.6"/>
<path d="M50.362 43.3408L44.5029 46.2673L38.7137 49.1589L35.0968 40.8448L31.4393 32.4259L22.6099 12.1146L20.4199 7.08185L32.0683 1.26367L50.362 43.3408Z" stroke="#E0E0E0" stroke-opacity="0.6"/>
<path d="M51.3227 50.1999L45.4635 53.1265L39.6743 56.0181L1.16479 33.8101L7.02397 30.8835L12.8131 34.2232L38.7133 49.1585L44.5026 46.2668L51.3227 50.1999Z" stroke="#E0E0E0" stroke-opacity="0.6"/>
</g>
<defs>
<clipPath id="clip0_381_2057">
<rect width="53" height="64" fill="white"/>
</clipPath>
</defs>
</svg>
