<svg width="64" height="64" viewBox="0 0 64 64" fill="none" xmlns="http://www.w3.org/2000/svg">
<g clip-path="url(#clip0_126_1452)">
<path d="M35.0315 4.5805L23.8034 10.1945C23.343 9.71171 22.8715 9.26259 22.3887 8.85276C21.9115 8.44294 21.4174 8.08925 20.9178 7.80294C19.9016 7.21346 18.9585 6.87095 18.0827 6.77551C17.8694 6.74183 17.656 6.73627 17.4539 6.73627C16.8364 6.7475 16.2637 6.88785 15.7248 7.15171L26.9529 1.53767C28.4125 0.819072 30.1472 1.03242 32.1458 2.18891C32.6455 2.47523 33.1395 2.82891 33.6167 3.23874C34.0995 3.64856 34.5711 4.09769 35.0315 4.5805Z" stroke="#E0E0E0" stroke-opacity="0.6" stroke-linecap="round" stroke-linejoin="round"/>
<path d="M23.8035 10.1946V56.4934C23.3432 56.4429 22.8716 56.3418 22.3888 56.1734C21.9116 56.005 21.4175 55.7749 20.9179 55.4886C18.953 54.3545 17.2632 52.5918 15.8372 50.2058C14.4168 47.8142 13.6084 45.4619 13.4175 43.1433C11.1046 41.4535 9.18456 39.1742 7.6407 36.2998C6.10245 33.4254 5.33333 30.6409 5.33333 27.9461C5.33333 27.0198 5.43999 26.1664 5.65333 25.3805C5.86105 24.6001 6.18105 23.9321 6.6021 23.3819C6.18105 22.3433 5.86105 21.3215 5.65333 20.3166C5.43999 19.3117 5.33333 18.3181 5.33333 17.3469C5.33333 14.6577 6.10245 12.7714 7.6407 11.6935C7.74736 11.6149 7.85964 11.5475 7.97192 11.4801L8.40982 11.2612C9.8021 10.6268 11.4526 10.7111 13.3558 11.5195C13.4288 10.1609 13.76 9.08299 14.3495 8.29141C14.7088 7.80299 15.1691 7.42679 15.7249 7.15171C16.2639 6.88785 16.8365 6.7475 17.454 6.73627C17.6561 6.73627 17.8695 6.74188 18.0828 6.77557C18.9586 6.871 19.9017 7.21352 20.9179 7.80299C21.4175 8.08931 21.9116 8.44299 22.3888 8.85281C22.8716 9.26264 23.3432 9.71176 23.8035 10.1946Z" stroke="#E0E0E0" stroke-opacity="0.6" stroke-linecap="round" stroke-linejoin="round"/>
<path d="M35.0318 4.58051V9.4928L28.4241 12.7939V54.1861L23.8037 56.4934V10.1946L35.0318 4.58051Z" stroke="#E0E0E0" stroke-opacity="0.6" stroke-linecap="round" stroke-linejoin="round"/>
<path d="M46.574 49.0044C46.7873 50.0318 46.8884 51.0142 46.8884 51.9406C46.8884 54.1076 46.3999 55.7524 45.4175 56.8752C45.1649 57.1671 44.8785 57.4254 44.5529 57.6443C44.4631 57.7061 44.3733 57.7622 44.2834 57.8127L44.0084 57.9531C42.5543 58.6997 40.8084 58.638 38.7536 57.7734C38.5627 59.8675 37.7599 61.2934 36.3564 62.0513C34.9529 62.8092 33.2687 62.6183 31.3094 61.4843C30.8041 61.198 30.3157 60.8611 29.8329 60.4682C29.3557 60.0808 28.8841 59.6429 28.4238 59.1601V12.7939C28.8841 12.8444 29.3557 12.951 29.8329 13.1138C30.3157 13.2822 30.8041 13.5124 31.3094 13.7987C32.6792 14.5903 33.9199 15.6738 35.0315 17.038C35.5368 17.6668 36.0196 18.3518 36.4743 19.0984C37.9171 21.4788 38.6975 23.8254 38.8098 26.144C39.0961 26.3517 39.3768 26.5707 39.6519 26.8008C41.555 28.3952 43.1887 30.45 44.5529 32.9707C46.1136 35.8563 46.8884 38.6465 46.8884 41.3413C46.8884 42.3125 46.7873 43.177 46.574 43.9406C46.3606 44.6984 46.0463 45.3553 45.6196 45.9055C46.0463 46.9441 46.3606 47.977 46.574 49.0044Z" stroke="#E0E0E0" stroke-opacity="0.6" stroke-linecap="round" stroke-linejoin="round"/>
<path d="M48.6006 55.6627C48.3087 55.9714 47.9662 56.2296 47.5845 56.4373C47.5227 56.471 47.4553 56.5047 47.3936 56.5271L47.2476 56.6001L36.3564 62.0513C37.7599 61.2934 38.5627 59.8675 38.7536 57.7734C40.8083 58.638 42.5543 58.6997 44.0083 57.9531L44.2834 57.8127L46.1753 56.8696H46.1809L48.6006 55.6627Z" stroke="#E0E0E0" stroke-opacity="0.6" stroke-linecap="round" stroke-linejoin="round"/>
<path d="M58.1164 46.3265C58.1164 49.0606 57.3417 50.9637 55.781 52.0304C55.607 52.1483 55.4329 52.2549 55.2477 52.3391L55.0399 52.4402L48.6063 55.6571H48.6006L46.181 56.8696H46.1754L44.2834 57.8127C44.3733 57.7622 44.4631 57.7061 44.5529 57.6443C44.8785 57.4254 45.1649 57.1671 45.4175 56.8752C46.3999 55.7524 46.8884 54.1076 46.8884 51.9406C46.8884 51.0142 46.7873 50.0318 46.574 49.0044C46.3606 47.9771 46.0463 46.9441 45.6196 45.9055L56.8477 40.2914C57.2743 41.33 57.5887 42.363 57.802 43.3904C58.0154 44.4178 58.1164 45.4002 58.1164 46.3265Z" stroke="#E0E0E0" stroke-opacity="0.6" stroke-linecap="round" stroke-linejoin="round"/>
<path d="M58.1164 35.7272C58.1164 36.6984 58.0154 37.563 57.8021 38.3265C57.5887 39.0844 57.2743 39.7413 56.8477 40.2914L45.6196 45.9055C46.0463 45.3553 46.3606 44.6984 46.574 43.9406C46.7873 43.177 46.8884 42.3125 46.8884 41.3413C46.8884 38.6465 46.1136 35.8563 44.5529 32.9707C43.1887 30.45 41.555 28.3952 39.6519 26.8008C39.3768 26.5707 39.0961 26.3517 38.8098 26.144L50.0378 20.53C52.3059 22.1973 54.2203 24.471 55.781 27.3566C57.3417 30.2422 58.1164 33.0325 58.1164 35.7272Z" stroke="#E0E0E0" stroke-opacity="0.6" stroke-linecap="round" stroke-linejoin="round"/>
<path d="M50.0378 20.53L38.8098 26.144C38.6975 23.8254 37.9171 21.4788 36.4743 19.0985C36.0196 18.3518 35.5368 17.6668 35.0315 17.0381C33.9199 15.6738 32.6792 14.5903 31.3094 13.7988C30.8041 13.5124 30.3157 13.2823 29.8329 13.1138C29.3557 12.951 28.8841 12.8444 28.4238 12.7939L35.0315 9.49285L39.6519 7.17987C40.1122 7.2304 40.5838 7.33701 41.061 7.49981C41.5438 7.66824 42.0322 7.89841 42.5375 8.18473C44.5361 9.34122 46.2596 11.1097 47.7024 13.4844C49.1452 15.8648 49.9256 18.2114 50.0378 20.53Z" stroke="#E0E0E0" stroke-opacity="0.6" stroke-linecap="round" stroke-linejoin="round"/>
<path d="M14.3498 8.29144C13.7603 9.08302 13.4291 10.1609 13.3561 11.5195C11.4529 10.7111 9.80238 10.6268 8.4101 11.2612L14.3498 8.29144Z" stroke="#E0E0E0" stroke-opacity="0.6" stroke-linecap="round" stroke-linejoin="round"/>
</g>
<defs>
<clipPath id="clip0_126_1452">
<rect width="64" height="64" fill="white"/>
</clipPath>
</defs>
</svg>
