<svg width="65" height="64" viewBox="0 0 65 64" fill="none" xmlns="http://www.w3.org/2000/svg">
<path d="M39.0615 56.4027C39.0615 58.8633 38.3097 60.5223 36.8122 61.3798C35.3086 62.2311 33.488 62.0447 31.3443 60.8019C29.1944 59.5654 27.3737 57.6516 25.87 55.0606C24.3726 52.4695 23.6208 49.9468 23.6208 47.4862C23.6208 45.0256 24.3726 43.3666 25.87 42.5091L26.2243 42.3351C27.6534 41.6889 29.3621 41.9375 31.3443 43.0808C33.488 44.3235 35.3086 46.2373 36.8122 48.8221C38.3097 51.4132 39.0615 53.9421 39.0615 56.4027Z" stroke="#E0E0E0" stroke-opacity="0.6" stroke-linecap="round" stroke-linejoin="round"/>
<path d="M22.3345 34.9285C22.3345 38.1782 21.3217 40.3779 19.3085 41.5274C17.2891 42.6769 14.8657 42.4346 12.0385 40.8004C9.20508 39.16 6.78184 36.6062 4.76239 33.1266C2.74919 29.6532 1.74268 26.2854 1.74268 23.0419C1.74268 19.7984 2.74919 17.5926 4.76239 16.4431L5.24085 16.207C7.16087 15.3371 9.42255 15.6602 12.0385 17.1701C12.8214 17.6175 13.5733 18.1394 14.2879 18.7359C16.1706 20.2831 17.8483 22.3212 19.3085 24.8377C20.9302 27.64 21.9058 30.3678 22.2165 33.021C22.2972 33.661 22.3345 34.301 22.3345 34.9285Z" stroke="#E0E0E0" stroke-opacity="0.6" stroke-linecap="round" stroke-linejoin="round"/>
<path d="M50.6434 35.0279C50.6434 35.9786 50.5813 36.8671 50.457 37.6873C50.2085 39.4209 49.6802 40.8624 48.8787 42.012C48.2635 42.9067 47.4806 43.6275 46.53 44.1681C43.7835 45.7339 40.4345 45.3797 36.4889 43.0993C36.377 43.0372 36.2651 42.9689 36.1595 42.9005C34.6123 41.9809 33.1583 40.8625 31.8037 39.5452C30.8593 38.6442 29.9645 37.6438 29.1195 36.5564C28.9766 36.3762 28.8399 36.196 28.7032 36.0158C27.914 34.9533 27.1623 33.81 26.4478 32.5797C23.7076 27.845 22.3342 23.2096 22.3342 18.6799C22.3342 15.3184 23.0923 12.7708 24.6084 11.0434C25.1303 10.4407 25.7394 9.94362 26.4478 9.53973L27.1623 9.18556C29.3867 8.21624 31.984 8.42129 34.9479 9.80692C35.4512 10.0368 35.9607 10.304 36.4889 10.6085C40.4345 12.8889 43.7835 16.3995 46.53 21.1343C49.2702 25.8691 50.6434 30.4982 50.6434 35.0279Z" stroke="#E0E0E0" stroke-opacity="0.6" stroke-linecap="round" stroke-linejoin="round"/>
<path d="M22.3346 34.9286C22.3346 34.3011 22.2974 33.6611 22.2166 33.0211C21.9059 30.3679 20.9304 27.6401 19.3086 24.8378C17.8484 22.3213 16.1707 20.2832 14.288 18.736C13.5734 18.1395 12.8215 17.6176 12.0386 17.1702C9.42266 15.6603 7.16098 15.3372 5.24097 16.2071L17.1897 10.2296C19.2091 9.0801 21.6324 9.32243 24.4658 10.9566C24.5155 10.9815 24.559 11.0125 24.6087 11.0436C23.0926 12.771 22.3346 15.3185 22.3346 18.6801C22.3346 23.2098 23.7078 27.8451 26.448 32.5799C27.1626 33.8102 27.9144 34.9535 28.7035 36.016C28.8402 36.1962 28.9768 36.3764 29.1198 36.5566L19.3086 41.5275C21.3218 40.378 22.3346 38.1783 22.3346 34.9286Z" stroke="#E0E0E0" stroke-opacity="0.6" stroke-linecap="round" stroke-linejoin="round"/>
<path d="M63.0708 28.8145C63.0708 33.3442 61.6977 36.3951 58.9575 37.9547L58.243 38.3089L49.3326 42.7702L46.5303 44.1683C47.481 43.6277 48.2639 42.9069 48.879 42.0122C49.6806 40.8627 50.2088 39.4211 50.4573 37.6875C50.5816 36.8673 50.6438 35.9788 50.6438 35.0281C50.6438 30.4984 49.2705 25.8693 46.5303 21.1345C43.7839 16.3998 40.4348 12.8891 36.4892 10.6087C35.961 10.3042 35.4515 10.037 34.9482 9.80714C31.9843 8.42151 29.3871 8.21646 27.1626 9.18578L38.8753 3.32633C41.6217 1.76051 44.9708 2.1209 48.9164 4.39507C52.862 6.67546 56.2111 10.1862 58.9575 14.9209C61.6977 19.6557 63.0708 24.2848 63.0708 28.8145Z" stroke="#E0E0E0" stroke-opacity="0.6" stroke-linecap="round" stroke-linejoin="round"/>
<path d="M51.489 50.1893C51.489 52.6499 50.7372 54.3089 49.2398 55.1664L48.8359 55.3652L36.8126 61.38C38.31 60.5225 39.0618 58.8635 39.0618 56.4029C39.0618 53.9423 38.31 51.4134 36.8126 48.8223C35.3089 46.2374 33.4883 44.3237 31.3446 43.0809C29.3625 41.9376 27.6537 41.6891 26.2246 42.3353L31.8044 39.5454C33.159 40.8627 34.613 41.9811 36.1601 42.9007C36.2658 42.9691 36.3776 43.0374 36.4895 43.0996C40.4351 45.38 43.7842 45.7341 46.5306 44.1683L49.3329 42.7703C50.7682 45.3054 51.489 47.7784 51.489 50.1893Z" stroke="#E0E0E0" stroke-opacity="0.6" stroke-linecap="round" stroke-linejoin="round"/>
</svg>
