<svg width="64" height="64" viewBox="0 0 64 64" fill="none" xmlns="http://www.w3.org/2000/svg">
<path d="M56.1986 54.2251L51.93 56.6584L39.8545 62.6963L44.1232 60.2628L51.7971 56.4289L56.1986 54.2251Z" stroke="#E0E0E0" stroke-opacity="0.6" stroke-linecap="round" stroke-linejoin="round"/>
<path d="M26.1741 39.1793L23.8919 40.4653L11.8164 46.5031L23.5538 39.8856L25.836 38.5996L26.1741 39.1793Z" stroke="#E0E0E0" stroke-opacity="0.6" stroke-linecap="round" stroke-linejoin="round"/>
<path d="M44.1235 60.263L39.8548 62.6965L26.1733 39.1793L25.8352 38.5996L23.5529 39.8856L11.8156 46.5031L7.54688 39.1431L25.8352 28.7219L26.2035 29.3559L30.4903 36.7461L44.1235 60.263Z" stroke="#E0E0E0" stroke-opacity="0.6" stroke-linecap="round" stroke-linejoin="round"/>
<path d="M56.1997 54.2251L51.7982 56.429L44.1242 60.2629L30.491 36.7459L26.2042 29.3557L25.8359 28.7218L30.8412 26.2161L31.0586 26.5905L35.3695 33.9927L39.8556 41.709L42.4699 40.3988L46.9016 38.1829L56.1997 54.2251Z" stroke="#E0E0E0" stroke-opacity="0.6" stroke-linecap="round" stroke-linejoin="round"/>
<path d="M26.1741 18.198L23.8919 19.4841L11.8164 25.5218L23.5538 18.8983L25.836 17.6123L26.1741 18.198Z" stroke="#E0E0E0" stroke-opacity="0.6" stroke-linecap="round" stroke-linejoin="round"/>
<path d="M56.1986 33.238L51.93 35.6713L46.9005 38.183L42.4688 40.3989L39.8545 41.709L42.3903 40.266L44.1232 39.2758L46.7677 37.9536L51.7971 35.4419L56.1986 33.238Z" stroke="#E0E0E0" stroke-opacity="0.6" stroke-linecap="round" stroke-linejoin="round"/>
<path d="M44.1235 39.2758L42.3906 40.266L39.8548 41.709L35.3688 33.9927L31.0578 26.5905L30.8405 26.2161L26.1733 18.1981L25.8352 17.6124L23.5529 18.8984L11.8156 25.5218L7.54688 18.1618L25.8352 7.73462L26.2035 8.36864L30.4903 15.7588L35.2661 24.0064L35.3506 24.1452L44.1235 39.2758Z" stroke="#E0E0E0" stroke-opacity="0.6" stroke-linecap="round" stroke-linejoin="round"/>
<path d="M56.1997 33.2381L51.7982 35.442L46.7688 37.9537L44.1242 39.2759L35.3514 24.1454L35.2669 24.0065L30.491 15.7589L26.2042 8.36875L25.8359 7.73473L37.9114 1.69702L56.1997 33.2381Z" stroke="#E0E0E0" stroke-opacity="0.6" stroke-linecap="round" stroke-linejoin="round"/>
</svg>
