<svg width="64" height="64" viewBox="0 0 64 64" fill="none" xmlns="http://www.w3.org/2000/svg">
<path d="M30.4482 36.6782L30.4879 36.7462L30.5275 36.7235L30.4482 36.6782Z" stroke="#E0E0E0" stroke-opacity="0.6" stroke-linecap="round" stroke-linejoin="round"/>
<path d="M33.2514 27.6956L33.2061 27.7182L33.2967 27.7748L33.2514 27.6956Z" stroke="#E0E0E0" stroke-opacity="0.6" stroke-linecap="round" stroke-linejoin="round"/>
<path d="M50.9171 18.4126L44.5341 22.0544L38.3663 25.1354L33.252 27.6954V27.6898L38.2077 24.8636L39.5897 24.0763L50.9171 18.4126Z" stroke="#E0E0E0" stroke-opacity="0.6" stroke-linecap="round" stroke-linejoin="round"/>
<path d="M50.9167 18.4127L39.5892 24.0764L36.4629 18.6166L36.123 18.0219L47.4505 12.3582L50.9167 18.4127Z" stroke="#E0E0E0" stroke-opacity="0.6" stroke-linecap="round" stroke-linejoin="round"/>
<path d="M50.9964 37.9863V43.6727L46.6863 41.1863L46.3918 41.0164L38.2587 36.3212L33.2066 33.4044L37.4091 40.6539L37.4884 40.7899L39.5897 44.4146L36.1235 46.4649L33.9882 42.7835L33.8013 42.4607L30.4881 36.746L30.5277 36.7233L30.4484 36.678L25.487 28.1201L23.7256 25.0844L26.2459 23.6458L29.7518 21.6522L36.1235 18.0217L36.4633 18.6164L39.5897 24.0762L38.2077 24.8635L33.252 27.6897V27.6954L33.2066 27.718L33.2973 27.7746L43.2144 33.495L50.2091 37.5332L50.9964 37.9863Z" stroke="#E0E0E0" stroke-opacity="0.6" stroke-linecap="round" stroke-linejoin="round"/>
<path d="M62.3235 32.3228V38.0091L50.9961 43.6728V37.9865L57.0449 34.962L62.3235 32.3228Z" stroke="#E0E0E0" stroke-opacity="0.6" stroke-linecap="round" stroke-linejoin="round"/>
<path d="M33.9882 42.7835L27.6165 46.4196L16.2891 52.0833L27.271 45.8193L28.6869 45.0151L33.8013 42.4607L33.9882 42.7835Z" stroke="#E0E0E0" stroke-opacity="0.6" stroke-linecap="round" stroke-linejoin="round"/>
<path d="M28.6868 45.0151L27.2709 45.8193L16.2889 52.0834L12.8171 46.0232L19.2001 42.3871L1.41602 32.1188V26.4267L19.2001 36.6951L13.525 26.9082L12.8171 25.6848L16.2889 23.6345L20.5311 30.952L25.5321 39.5722L28.6868 45.0151Z" stroke="#E0E0E0" stroke-opacity="0.6" stroke-linecap="round" stroke-linejoin="round"/>
<path d="M19.2001 36.6952L1.41602 26.4269L12.7434 20.7632L17.0535 23.2496L16.2889 23.6347L12.8171 25.6849L13.525 26.9083L19.2001 36.6952Z" stroke="#E0E0E0" stroke-opacity="0.6" stroke-linecap="round" stroke-linejoin="round"/>
<path d="M33.8013 42.4609L28.6869 45.0152L25.5322 39.5724L20.5312 30.9522L16.2891 23.6347L17.0537 23.2495L27.6165 17.9709L29.7517 21.6524L26.2459 23.646L23.7255 25.0846L25.4869 28.1203L30.4484 36.6782L30.488 36.7462L33.8013 42.4609Z" stroke="#E0E0E0" stroke-opacity="0.6" stroke-linecap="round" stroke-linejoin="round"/>
<path d="M62.3238 32.3228L57.0452 34.9621L50.9964 37.9865L50.2091 37.5334L43.2144 33.4952L33.2973 27.7748L33.252 27.6955L38.3663 25.1355L44.5341 22.0544L62.3238 32.3228Z" stroke="#E0E0E0" stroke-opacity="0.6" stroke-linecap="round" stroke-linejoin="round"/>
<path d="M46.3912 41.0166L39.5891 44.4148L37.4878 40.79L37.4085 40.6541L33.2061 33.4045L38.2581 36.3214L46.3912 41.0166Z" stroke="#E0E0E0" stroke-opacity="0.6" stroke-linecap="round" stroke-linejoin="round"/>
<path d="M46.6859 41.1865L36.123 46.4651L39.5892 44.4148L46.3914 41.0166L46.6859 41.1865Z" stroke="#E0E0E0" stroke-opacity="0.6" stroke-linecap="round" stroke-linejoin="round"/>
</svg>
