<svg width="64" height="64" viewBox="0 0 64 64" fill="none" xmlns="http://www.w3.org/2000/svg">
<path d="M15.2229 34.2483C13.4553 30.1899 12.5715 26.3042 12.5715 22.5962C12.5715 21.4128 12.6629 20.3156 12.8458 19.315C13.0286 18.3093 13.308 17.4001 13.6737 16.5772L16.3708 23.5258L19.7689 23.2667L19.8705 23.2566L19.6115 22.5912L14.3696 9.18164L4.82544 9.9791L6.82163 15.0889L9.12258 14.8705C8.92449 15.6731 8.78227 16.5264 8.701 17.4356C8.61465 18.3448 8.57401 19.2947 8.57401 20.2902C8.57401 24.9531 9.65592 29.7683 11.8248 34.7258C13.9886 39.6832 16.8026 44.082 20.2718 47.922L22.268 45.0572C19.3372 41.9131 16.9905 38.3118 15.2229 34.2483Z" stroke="#E0E0E0" stroke-opacity="0.6" stroke-linecap="round" stroke-linejoin="round"/>
<path d="M48.5637 43.32C48.5637 44.6407 48.4774 45.8699 48.2996 47.0178C47.9847 49.075 47.3904 50.8577 46.5117 52.3612C46.2374 52.8285 45.9377 53.2754 45.6075 53.6869C45.2774 54.1034 44.9218 54.4894 44.5409 54.85C44.099 55.2666 43.6367 55.6272 43.1542 55.9472C43.0323 56.0285 42.9155 56.0996 42.7885 56.1758L42.7377 56.2062C42.3974 56.4043 42.0469 56.577 41.6812 56.7294C39.5123 57.6539 36.9726 57.7554 34.0672 57.0342L36.2666 59.7923L34.2653 62.5961L24.7212 50.7765L30.2171 43.0508L33.666 47.3378L30.8164 51.3148C34.2348 52.7218 37.1555 52.7878 39.5783 51.518C39.944 51.325 40.2996 51.1015 40.6399 50.8475C41.9148 49.908 42.885 48.6432 43.5352 47.0585C44.2209 45.3975 44.5663 43.381 44.5663 41.0089C44.5663 40.5873 44.5561 40.1912 44.5409 39.8204C44.5206 39.4445 44.4799 39.0483 44.4139 38.6267L48.4621 40.9683C48.4977 41.3696 48.5231 41.7556 48.5383 42.1264C48.5536 42.5023 48.5637 42.8985 48.5637 43.32Z" stroke="#E0E0E0" stroke-opacity="0.6" stroke-linecap="round" stroke-linejoin="round"/>
<path d="M19.6116 22.5911C19.6624 22.8146 19.7132 23.0431 19.769 23.2666L19.8706 23.2565L19.6116 22.5911Z" stroke="#E0E0E0" stroke-opacity="0.6" stroke-linecap="round" stroke-linejoin="round"/>
<path d="M58.6208 35.889L54.6386 37.8801L48.4623 40.9683L44.4141 38.6267L54.5728 33.5474L58.6208 35.889Z" stroke="#E0E0E0" stroke-opacity="0.6" stroke-linecap="round" stroke-linejoin="round"/>
<path d="M46.4254 54.7129L44.4241 57.5167L34.2654 62.5961L36.2667 59.7923L46.4254 54.7129Z" stroke="#E0E0E0" stroke-opacity="0.6" stroke-linecap="round" stroke-linejoin="round"/>
<path d="M46.4255 54.713L36.2667 59.7924L34.0674 57.0343C36.9728 57.7555 39.5125 57.654 41.6814 56.7295C42.0471 56.5771 42.3975 56.4044 42.7379 56.2063L42.7887 56.1759L43.1848 55.9828L46.2274 54.4641L46.4255 54.713Z" stroke="#E0E0E0" stroke-opacity="0.6" stroke-linecap="round" stroke-linejoin="round"/>
<path d="M43.5351 47.0585C42.885 48.6432 41.9148 49.9079 40.6399 50.8475C40.2996 51.1014 39.944 51.3249 39.5783 51.5179C37.1555 52.7878 34.2348 52.7217 30.8164 51.3148L36.9421 48.2521L40.9751 46.2356C41.864 46.6013 42.7174 46.8756 43.5351 47.0585Z" stroke="#E0E0E0" stroke-opacity="0.6" stroke-linecap="round" stroke-linejoin="round"/>
<path d="M43.8247 42.2585L40.9751 46.2357L36.9421 48.2522L30.8164 51.3149L33.6659 47.3379L35.4742 46.4338L43.8247 42.2585Z" stroke="#E0E0E0" stroke-opacity="0.6" stroke-linecap="round" stroke-linejoin="round"/>
<path d="M43.8249 42.2585L35.4744 46.4337L33.6662 47.3378L30.2173 43.0508L40.376 37.9714L43.8249 42.2585Z" stroke="#E0E0E0" stroke-opacity="0.6" stroke-linecap="round" stroke-linejoin="round"/>
<path d="M16.8737 6.37783L17.3766 7.67815L16.2845 8.22672L14.3696 9.18164L4.82544 9.9791L14.9842 4.89974L20.8 4.41211L16.8737 6.37783Z" stroke="#E0E0E0" stroke-opacity="0.6" stroke-linecap="round" stroke-linejoin="round"/>
<path d="M30.0293 18.177L23.0858 21.6513L19.8706 23.2564L19.6115 22.591L14.3696 9.18147L16.2845 8.22655L17.3766 7.67798L18.2299 9.89258L18.8699 11.5485C18.9004 11.5383 18.9258 11.5332 18.9563 11.5231C20.2972 11.1523 21.7703 11.1066 23.3703 11.391C24.8484 11.6602 26.4128 12.2392 28.0585 13.1383L30.0293 18.177Z" stroke="#E0E0E0" stroke-opacity="0.6" stroke-linecap="round" stroke-linejoin="round"/>
<path d="M56.7212 17.5828L50.311 20.7879L49.2697 21.3111L46.5624 22.6622L45.7243 22.1797L42.5649 20.3511L48.264 17.5016L51.2202 16.0235L52.7237 15.2717L56.7212 17.5828Z" stroke="#E0E0E0" stroke-opacity="0.6" stroke-linecap="round" stroke-linejoin="round"/>
<path d="M56.7213 17.5828V30.1999L46.5625 35.2793V22.6621L49.2698 21.311L50.3111 20.7878L56.7213 17.5828Z" stroke="#E0E0E0" stroke-opacity="0.6" stroke-linecap="round" stroke-linejoin="round"/>
<path d="M58.7224 38.2407C58.7224 43.4013 57.3815 47.2464 54.6996 49.7708C53.9581 50.4667 53.1556 51.0253 52.287 51.4469L52.1905 51.4926L46.2273 54.4641L43.1848 55.9828L42.7886 56.1758C42.9156 56.0996 43.0324 56.0285 43.1543 55.9472C43.6368 55.6272 44.0991 55.2666 44.541 54.8501C44.9219 54.4895 45.2775 54.1034 45.6076 53.6869C45.9378 53.2755 46.2375 52.8285 46.5117 52.3612C47.3905 50.8577 47.9848 49.075 48.2997 47.0178C48.4775 45.8699 48.5638 44.6407 48.5638 43.32C48.5638 42.8984 48.5537 42.5023 48.5384 42.1264C48.5232 41.7556 48.4978 41.3696 48.4622 40.9683L54.6386 37.88L58.6209 35.8889C58.6564 36.2902 58.6818 36.6762 58.697 37.047C58.7123 37.4229 58.7224 37.8191 58.7224 38.2407Z" stroke="#E0E0E0" stroke-opacity="0.6" stroke-linecap="round" stroke-linejoin="round"/>
<path d="M51.2202 16.0235L48.264 17.5016L42.565 20.3511V23.5054C40.6653 20.2699 38.5167 17.3949 36.1142 14.8807C33.7167 12.3664 31.2024 10.3499 28.5662 8.83113C27.6367 8.29272 26.7275 7.83558 25.8386 7.4597C24.6246 6.94669 23.4513 6.58605 22.3186 6.37272C21.6837 6.25589 21.064 6.16955 20.4646 6.13399C19.1999 6.04256 18.0012 6.12383 16.8735 6.3778L20.7999 4.41207L27.0323 1.29841C28.6983 0.922542 30.5116 0.922537 32.4773 1.29333C34.4431 1.65904 36.5256 2.48192 38.725 3.75176C41.3612 5.2705 43.8754 7.28701 46.2729 9.80129C48.0659 11.6756 49.7116 13.748 51.2202 16.0235Z" stroke="#E0E0E0" stroke-opacity="0.6" stroke-linecap="round" stroke-linejoin="round"/>
<path d="M46.5624 22.6622V35.2794L35.5656 28.9302V24.3434L41.0158 27.4876C39.4818 24.4247 37.6329 21.6666 35.464 19.2082C33.3002 16.7549 30.9993 14.8247 28.5662 13.4177C28.3935 13.3212 28.2259 13.2247 28.0583 13.1384C26.4126 12.2393 24.8481 11.6603 23.37 11.3911C21.77 11.1066 20.297 11.1523 18.9561 11.5231C18.9256 11.5333 18.9002 11.5384 18.8697 11.5485L18.2297 9.89265L17.3764 7.67804L16.8735 6.37773C18.0012 6.12376 19.1999 6.04254 20.4646 6.13397C21.064 6.16952 21.6837 6.25582 22.3186 6.37265C23.4513 6.58598 24.6246 6.94662 25.8386 7.45963C26.7275 7.8355 27.6367 8.2927 28.5662 8.83111C31.2024 10.3498 33.7167 12.3663 36.1142 14.8806C38.5167 17.3949 40.6653 20.2698 42.565 23.5054V20.3511L45.7243 22.1796L46.5624 22.6622Z" stroke="#E0E0E0" stroke-opacity="0.6" stroke-linecap="round" stroke-linejoin="round"/>
<path d="M32.4268 39.9778L29.303 41.5422L22.268 45.0571C19.3372 41.913 16.9906 38.3118 15.223 34.2483C13.4553 30.1898 12.5715 26.3041 12.5715 22.5962C12.5715 21.4127 12.663 20.3156 12.8458 19.3149C13.0287 18.3092 13.308 17.4 13.6738 16.5771L16.3709 23.5257L19.769 23.2667L19.8706 23.2565L23.0858 21.6514C23.4922 24.0845 24.2592 26.5937 25.3817 29.1689C27.1493 33.2324 29.496 36.8337 32.4268 39.9778Z" stroke="#E0E0E0" stroke-opacity="0.6" stroke-linecap="round" stroke-linejoin="round"/>
<path d="M32.4267 39.9778L30.4305 42.8425L20.2717 47.9219L22.2679 45.0571L29.3028 41.5422L32.4267 39.9778Z" stroke="#E0E0E0" stroke-opacity="0.6" stroke-linecap="round" stroke-linejoin="round"/>
</svg>
