<svg width="64" height="64" viewBox="0 0 64 64" fill="none" xmlns="http://www.w3.org/2000/svg">
<path d="M6.83496 7.87036V40.4793L16.3107 45.9473V13.3383L6.83496 7.87036Z" stroke="#E0E0E0" stroke-opacity="0.6" stroke-linecap="round" stroke-linejoin="round"/>
<path d="M44.7195 18.8746V62.3508L35.25 56.8832V13.4067L44.7195 18.8746Z" stroke="#E0E0E0" stroke-opacity="0.6" stroke-linecap="round" stroke-linejoin="round"/>
<path d="M57.1467 12.6611L44.7195 18.8747L35.25 13.4067L47.6772 7.19312L57.1467 12.6611Z" stroke="#E0E0E0" stroke-opacity="0.6" stroke-linecap="round" stroke-linejoin="round"/>
<path d="M35.2494 24.4731V30.2145L31.105 32.2836L28.7376 33.4704L28.1411 33.7624L19.2619 28.63L18.6778 28.2945L19.2619 28.0024L28.7376 23.2677L31.105 22.0809L35.2494 24.4731Z" stroke="#E0E0E0" stroke-opacity="0.6" stroke-linecap="round" stroke-linejoin="round"/>
<path d="M28.7379 7.12476V23.2677L19.2621 28.0024L18.678 28.2945V44.7667L16.3107 45.9473V13.3383L19.2621 11.8657L28.7379 7.12476Z" stroke="#E0E0E0" stroke-opacity="0.6" stroke-linecap="round" stroke-linejoin="round"/>
<path d="M28.7379 7.12476L19.2621 11.8657L16.3107 13.3384L6.83496 7.87039L19.2621 1.6568L28.7379 7.12476Z" stroke="#E0E0E0" stroke-opacity="0.6" stroke-linecap="round" stroke-linejoin="round"/>
<path d="M28.1411 33.7624V52.7822L18.6778 47.3142V28.2944L19.2619 28.63L28.1411 33.7624Z" stroke="#E0E0E0" stroke-opacity="0.6" stroke-linecap="round" stroke-linejoin="round"/>
<path d="M35.2497 30.2145V49.2343L28.1414 52.7822V33.7624L28.7379 33.4704L31.1052 32.2836L35.2497 30.2145Z" stroke="#E0E0E0" stroke-opacity="0.6" stroke-linecap="round" stroke-linejoin="round"/>
<path d="M57.1462 12.6611V56.1376L44.7191 62.3509V18.8747L57.1462 12.6611Z" stroke="#E0E0E0" stroke-opacity="0.6" stroke-linecap="round" stroke-linejoin="round"/>
</svg>
