<svg width="65" height="64" viewBox="0 0 65 64" fill="none" xmlns="http://www.w3.org/2000/svg">
<path d="M38.4023 50.6785L38.5683 50.5956V50.3467C38.5149 50.4593 38.4616 50.5719 38.4023 50.6785Z" stroke="#E0E0E0" stroke-opacity="0.6" stroke-linecap="round" stroke-linejoin="round"/>
<path d="M38.4023 50.6785L38.5683 50.5956V50.3467C38.5149 50.4593 38.4616 50.5719 38.4023 50.6785Z" stroke="#E0E0E0" stroke-opacity="0.6" stroke-linecap="round" stroke-linejoin="round"/>
<path d="M26.7165 35.8933V56.5215C30.3965 57.3392 33.4662 56.5333 35.9314 54.1037C36.0203 54.0207 36.1032 53.9318 36.1862 53.8429C37.0632 52.9244 37.804 51.8696 38.4025 50.6785L38.5684 50.5955V50.3466C39.4573 48.4681 40.0144 46.2518 40.2514 43.7096L38.5684 42.7378L26.7165 35.8933ZM26.7165 35.8933L23.8602 34.2459L13.1817 28.0829C13.1046 27.5555 13.0691 27.1466 13.0691 26.8385V13.3274L20.3699 14.4L24.921 15.0696L26.7165 15.3363V35.8933ZM38.5684 21.7363L26.7165 9.7896L24.921 9.52294L20.3699 8.85331L8.51807 7.11108V23.04C8.51807 29.6533 10.2306 36.6577 13.6617 44.0533C17.0928 51.4548 21.4484 57.434 26.7165 62.0029C30.8765 63.2 34.4617 62.8563 37.478 60.9718H37.484C38.2899 60.4622 39.0485 59.8518 39.7714 59.1289C40.5062 58.394 41.164 57.5822 41.7329 56.6992C42.9181 54.9037 43.7656 52.8059 44.2811 50.4059C44.7078 48.48 44.9151 46.3644 44.9151 44.0533V28.1303L38.5684 21.7363Z" stroke="#E0E0E0" stroke-opacity="0.6" stroke-linecap="round" stroke-linejoin="round"/>
<path d="M25.0332 22.157L20.9978 24.1718L13.1814 28.0829C13.1043 27.5555 13.0688 27.1467 13.0688 26.8385V13.3274L20.3696 14.4L24.9207 15.0696V20.9126C24.9207 21.2207 24.9562 21.6296 25.0332 22.157Z" stroke="#E0E0E0" stroke-opacity="0.6" stroke-linecap="round" stroke-linejoin="round"/>
<path d="M26.7165 23.1288V35.8933L23.8602 34.2459L13.1816 28.0829L20.9981 24.1718L25.0335 22.157L26.7165 23.1288Z" stroke="#E0E0E0" stroke-opacity="0.6" stroke-linecap="round" stroke-linejoin="round"/>
<path d="M38.4022 50.6785C37.8037 51.8696 37.063 52.9244 36.1859 53.8429C36.103 53.9318 36.0201 54.0207 35.9312 54.1037C33.466 56.5333 30.3963 57.3392 26.7163 56.5214L34.8526 52.4562L38.4022 50.6785Z" stroke="#E0E0E0" stroke-opacity="0.6" stroke-linecap="round" stroke-linejoin="round"/>
<path d="M38.5682 42.7378V50.3466C38.5148 50.4592 38.4615 50.5718 38.4022 50.6785L34.8526 52.4563L26.7163 56.5215V35.8933L38.5682 42.7378Z" stroke="#E0E0E0" stroke-opacity="0.6" stroke-linecap="round" stroke-linejoin="round"/>
<path d="M38.5684 3.86382L29.9996 8.14827L26.7165 9.78975L24.921 9.52308L20.3699 8.85345L8.51807 7.11123L20.3699 1.1853L38.5684 3.86382Z" stroke="#E0E0E0" stroke-opacity="0.6" stroke-linecap="round" stroke-linejoin="round"/>
<path d="M56.7667 22.2045L44.9148 28.1304L38.5682 21.7364L26.7163 9.78968L29.9993 8.1482L38.5682 3.86377L56.7667 22.2045Z" stroke="#E0E0E0" stroke-opacity="0.6" stroke-linecap="round" stroke-linejoin="round"/>
<path d="M56.7669 22.2043V38.1273C56.7669 44.7406 55.0543 49.7658 51.6232 53.2029C50.4973 54.3288 49.2706 55.194 47.9432 55.7806L47.8898 55.8043L37.4839 60.9658C38.2898 60.4621 39.0484 59.8518 39.7714 59.1288C40.5062 58.394 41.1639 57.5821 41.7328 56.6992C42.918 54.9036 43.7655 52.8058 44.281 50.4058C44.7077 48.4799 44.915 46.3643 44.915 44.0532V28.1303L56.7669 22.2043Z" stroke="#E0E0E0" stroke-opacity="0.6" stroke-linecap="round" stroke-linejoin="round"/>
<path d="M48.204 55.6504L47.9434 55.7808" stroke="#E0E0E0" stroke-opacity="0.6" stroke-linecap="round" stroke-linejoin="round"/>
<path d="M37.4777 60.9719L37.0098 61.203" stroke="#E0E0E0" stroke-opacity="0.6" stroke-linecap="round" stroke-linejoin="round"/>
</svg>
