<svg width="55" height="64" viewBox="0 0 55 64" fill="none" xmlns="http://www.w3.org/2000/svg">
<g clip-path="url(#clip0_381_2105)">
<path d="M40.9128 36.6257L36.4246 34.024L33.5605 32.3642L32.6213 31.8231L27.3341 28.7635L24.4128 15.8647L22.244 6.2959L20.0751 13.3515L18.5496 18.3362L17.1539 22.8735L1.03784 13.5388L14.0822 31.8283L9.14775 47.5161L22.244 43.6292L35.3402 62.6835L30.411 41.2826L33.986 40.4084L37.5402 39.5395L37.6492 39.5135L41.3694 38.6029L43.4501 38.093L40.9128 36.6257ZM26.286 40.3044L27.3341 44.9925L24.501 40.8351L22.244 37.531V23.1336L22.3737 23.7008L23.6449 29.211L24.2572 31.8647L28.569 34.3622L29.036 34.6328L30.1982 35.304L25.4246 36.4435L26.286 40.3044Z" stroke="#E0E0E0" stroke-opacity="0.6"/>
<path d="M28.5688 34.3624L22.249 37.5312V23.1338L22.3787 23.7009L23.6448 29.2112L24.257 31.8648L28.5688 34.3624Z" stroke="#E0E0E0" stroke-opacity="0.6"/>
<path d="M26.2858 40.3044L27.3339 44.9925L24.5009 40.8352L22.249 37.5311L28.5688 34.3623L29.041 34.6329L25.4245 36.4436L26.2858 40.3044Z" stroke="#E0E0E0" stroke-opacity="0.6"/>
<path d="M30.1981 35.304L25.4246 36.4435L29.0411 34.6328L30.1981 35.304Z" stroke="#E0E0E0" stroke-opacity="0.6"/>
<path d="M53.8273 32.8897L43.4498 38.093L40.9125 36.6257L36.4243 34.024L33.5602 32.3642L32.6262 31.8231L27.3337 28.7636L32.6262 26.1151L34.3177 25.267L37.7111 23.5603L53.8273 32.8897Z" stroke="#E0E0E0" stroke-opacity="0.6"/>
<path d="M20.0803 13.3519L18.5496 18.3366L17.1539 22.8738L1.03784 13.5392L11.4152 8.33594L20.0803 13.3519Z" stroke="#E0E0E0" stroke-opacity="0.6"/>
<path d="M37.7113 23.5604L34.3179 25.2671L32.6264 26.1152L27.3339 28.7637L24.4127 15.8648L22.249 6.29603L32.6264 1.09277L37.7113 23.5604Z" stroke="#E0E0E0" stroke-opacity="0.6"/>
<path d="M45.7226 57.4799L35.3453 62.6831L30.416 41.2822L33.9858 40.4081L37.5401 39.5391L37.649 39.5131L41.3693 38.6025L45.7226 57.4799Z" stroke="#E0E0E0" stroke-opacity="0.6"/>
</g>
<defs>
<clipPath id="clip0_381_2105">
<rect width="55" height="64" fill="white"/>
</clipPath>
</defs>
</svg>
