<svg width="64" height="64" viewBox="0 0 64 64" fill="none" xmlns="http://www.w3.org/2000/svg">
<path d="M36.7125 41.2798C36.6689 41.3089 36.6301 41.3332 36.5864 41.3574C36.5622 41.372 36.5379 41.3816 36.5186 41.3961L36.7319 41.2895L36.7125 41.2798Z" stroke="#E0E0E0" stroke-opacity="0.6" stroke-linecap="round" stroke-linejoin="round"/>
<path d="M20.2178 23.7864L20.276 23.8155C20.276 23.8155 20.276 23.7718 20.2857 23.7524L20.2178 23.7864ZM36.7123 41.2797C36.6687 41.3088 36.6298 41.333 36.5862 41.3573C36.562 41.3718 36.5378 41.3815 36.5184 41.3961L36.7317 41.2894L36.7123 41.2797Z" stroke="#E0E0E0" stroke-opacity="0.6" stroke-linecap="round" stroke-linejoin="round"/>
<path d="M59.884 56.2522L56.6452 58.0995L46.9482 62.948L50.187 61.1007L56.5433 57.9249L59.884 56.2522Z" stroke="#E0E0E0" stroke-opacity="0.6" stroke-linecap="round" stroke-linejoin="round"/>
<path d="M41.2748 45.7259C41.9293 45.0422 42.419 44.1598 42.7487 43.0883C42.8457 42.7731 42.9281 42.4434 42.9912 42.1089C43.1609 41.3089 43.2384 40.4604 43.2384 39.5537C43.2384 38.6471 43.1657 37.6822 43.0202 36.7368C42.5936 33.9537 41.5415 31.1028 39.8542 28.1986C38.3512 25.6047 36.6396 23.4665 34.7148 21.784C33.7548 20.9404 32.7366 20.2083 31.6651 19.5877C31.0978 19.258 30.5451 18.9816 30.0069 18.7537C27.7766 17.7986 25.8033 17.6968 24.0821 18.4386L23.4712 18.744C23.0251 19.001 22.6227 19.3016 22.2639 19.6507C21.2457 20.6398 20.5863 22.0071 20.2857 23.7525C20.276 23.7719 20.276 23.7962 20.276 23.8156C20.1499 24.5428 20.0869 25.3331 20.0869 26.1865C20.0869 27.1319 20.1596 28.0871 20.3148 29.0519C20.4796 30.1089 20.7318 31.1804 21.0857 32.2568C21.6384 33.9925 22.4336 35.7574 23.4712 37.5416C23.9269 38.3271 24.3972 39.0689 24.8918 39.7671C26.3221 41.8034 27.9172 43.4859 29.6675 44.824C30.3124 45.3137 30.9766 45.7598 31.6651 46.1525C32.7705 46.7925 33.8566 47.2386 34.9427 47.4956H34.9475C34.9475 47.4956 34.9766 47.5053 34.9912 47.5101C36.0918 47.7719 37.1051 47.7913 38.0312 47.5731L46.9475 62.9479L50.1863 61.1007L41.2748 45.7259ZM38.3075 39.1077C38.0118 40.0774 37.4784 40.8047 36.7124 41.2798L36.7318 41.2895L36.5184 41.3962L36.3245 41.4931C35.0251 42.104 33.4736 41.881 31.6651 40.8386C29.7354 39.7283 28.0966 38.0071 26.7439 35.675C26.7002 35.6022 26.6566 35.5247 26.6178 35.4519C25.3475 33.2022 24.7172 31.001 24.7172 28.858C24.7172 28.0483 24.8093 27.3356 24.9887 26.715C24.9936 26.715 24.9936 26.7101 24.9936 26.7101C25.0033 26.6616 25.0178 26.6131 25.0372 26.5647C25.0712 26.4531 25.1099 26.3465 25.1536 26.2447C25.4881 25.4156 26.0166 24.795 26.7439 24.3828C27.6893 23.8447 28.7754 23.7671 30.0021 24.155C30.5306 24.315 31.0833 24.5671 31.6651 24.9016C32.9257 25.6289 34.0651 26.6131 35.0736 27.864C35.6118 28.5234 36.116 29.2604 36.5863 30.0653C37.1633 31.0592 37.6142 32.0434 37.9439 33.018C38.3851 34.3222 38.6081 35.6119 38.6081 36.8822C38.6081 37.7307 38.5063 38.4725 38.3075 39.1077Z" stroke="#E0E0E0" stroke-opacity="0.6" stroke-linecap="round" stroke-linejoin="round"/>
<path d="M38.6087 36.8822C38.6087 37.7306 38.5069 38.4725 38.3081 39.1076C38.0123 40.0773 37.479 40.8046 36.7129 41.2797C36.6693 41.3088 36.6305 41.3331 36.5869 41.3573C36.5626 41.3719 36.5384 41.3816 36.519 41.3961L36.325 41.4931C35.0257 42.104 33.4741 41.8809 31.6657 40.8385C29.736 39.7282 28.0972 38.007 26.7444 35.6749C26.7008 35.6022 26.6572 35.5246 26.6184 35.4519C25.3481 33.2022 24.7178 31.0009 24.7178 28.8579C24.7178 28.0482 24.8099 27.3355 24.9893 26.7149C24.9941 26.7149 24.9941 26.71 24.9941 26.71C25.0038 26.6616 25.0184 26.6131 25.0378 26.5646C25.0717 26.4531 25.1105 26.3464 25.1541 26.2446C25.4887 25.4155 26.0172 24.7949 26.7444 24.3828C27.6899 23.8446 28.776 23.767 30.0026 24.1549C30.5311 24.3149 31.0838 24.567 31.6657 24.9016C32.9263 25.6288 34.0657 26.6131 35.0741 27.864C35.4087 28.8434 35.8596 29.8276 36.4414 30.8264C36.9069 31.6313 37.4111 32.3634 37.9444 33.0179C38.3857 34.3222 38.6087 35.6119 38.6087 36.8822Z" stroke="#E0E0E0" stroke-opacity="0.6" stroke-linecap="round" stroke-linejoin="round"/>
<path d="M25.154 8.03857V13.3525L17.7601 17.0519L15.457 18.201V12.8871L20.2231 10.5065L25.154 8.03857Z" stroke="#E0E0E0" stroke-opacity="0.6" stroke-linecap="round" stroke-linejoin="round"/>
<path d="M22.5 35.5L24 38L25 40L17.7601 43.0133L15.457 44.1624V38.8485L20.2231 36.4679L22.5 35.5Z" stroke="#E0E0E0" stroke-opacity="0.6" stroke-linecap="round" stroke-linejoin="round"/>
<path d="M20.3152 29.0518C19.4182 29.4979 18.5261 29.944 17.7504 30.3318C16.4898 30.9621 15.5492 31.4324 15.457 31.4809V26.167L20.2182 23.7864L20.2764 23.8155C20.1504 24.5427 20.0873 25.333 20.0873 26.1864C20.0873 27.1318 20.1601 28.087 20.3152 29.0518Z" stroke="#E0E0E0" stroke-opacity="0.6" stroke-linecap="round" stroke-linejoin="round"/>
<path d="M52.9354 34.7054C52.9354 35.9902 52.7754 37.1684 52.4457 38.2399C52.116 39.3114 51.6263 40.1939 50.9717 40.8775L47.0493 42.8411H47.0445L41.2748 45.726C41.9293 45.0424 42.419 44.1599 42.7487 43.0884C42.8457 42.7733 42.9281 42.4436 42.9911 42.109C43.1608 41.309 43.2384 40.4605 43.2384 39.5539C43.2384 38.6472 43.1657 37.6823 43.0202 36.7369C42.5935 33.9539 41.5414 31.103 39.8542 28.1987C38.3511 25.6048 36.6396 23.4666 34.7148 21.7842C33.7548 20.9405 32.7366 20.2084 31.6651 19.5878C31.0978 19.2581 30.5451 18.9817 30.0069 18.7539C27.7766 17.7987 25.8032 17.6969 24.082 18.4387L33.1681 13.8957C35.4275 12.606 38.1572 12.8872 41.362 14.7393C44.562 16.5866 47.2917 19.4569 49.5511 23.3502C51.8106 27.2436 52.9354 31.0302 52.9354 34.7054Z" stroke="#E0E0E0" stroke-opacity="0.6" stroke-linecap="round" stroke-linejoin="round"/>
<path d="M59.8839 56.2522L56.5433 57.9249L50.1869 61.1007L41.2754 45.7259L47.0451 42.8411H47.0499L50.9724 40.8774L59.8839 56.2522Z" stroke="#E0E0E0" stroke-opacity="0.6" stroke-linecap="round" stroke-linejoin="round"/>
</svg>
