<svg width="24" height="18" viewBox="0 0 24 18" fill="none" xmlns="http://www.w3.org/2000/svg">
<path fill-rule="evenodd" clip-rule="evenodd" d="M7.875 9.66646C8.02586 9.66649 8.17254 9.6184 8.29243 9.52961C8.41232 9.44082 8.49876 9.31625 8.53844 9.17511L9.93991 4.20833L13.3991 16.5086C13.5795 17.1496 14.5101 17.1686 14.7177 16.5353L16.9672 9.66646H22.3125C22.4948 9.66646 22.6697 9.59622 22.7986 9.47119C22.9276 9.34617 23 9.17659 23 8.99978C23 8.82296 22.9276 8.65339 22.7986 8.52836C22.6697 8.40333 22.4948 8.33309 22.3125 8.33309H16.4688C16.3228 8.33309 16.1807 8.37812 16.0629 8.46166C15.9451 8.5452 15.8578 8.66291 15.8136 8.79777L14.1147 13.9846L10.6009 1.49126C10.4167 0.836246 9.45831 0.836246 9.27406 1.49126L7.35938 8.33309H1.6875C1.50516 8.33309 1.3303 8.40333 1.20136 8.52836C1.07243 8.65339 1 8.82296 1 8.99978C1 9.17659 1.07243 9.34617 1.20136 9.47119C1.3303 9.59622 1.50516 9.66646 1.6875 9.66646H7.875Z" fill="#FF6B35"/>
</svg>
