<svg width="18" height="15" viewBox="0 0 18 15" fill="none" xmlns="http://www.w3.org/2000/svg">
<path d="M16.9947 7.89554L10.6949 14.1953C10.5636 14.3267 10.3855 14.4005 10.1997 14.4005C10.014 14.4005 9.83581 14.3267 9.70447 14.1953C9.57312 14.064 9.49934 13.8858 9.49934 13.7001C9.49934 13.5144 9.57312 13.3362 9.70447 13.2049L14.8099 8.10028H1.1C0.914356 8.10028 0.736314 8.02654 0.605043 7.89527C0.473772 7.76399 0.400024 7.58595 0.400024 7.40031C0.400024 7.21466 0.473772 7.03662 0.605043 6.90535C0.736314 6.77408 0.914356 6.70033 1.1 6.70033H14.8099L9.70447 1.59575C9.57312 1.4644 9.49934 1.28626 9.49934 1.10051C9.49934 0.914764 9.57312 0.736623 9.70447 0.605279C9.83581 0.473935 10.014 0.400146 10.1997 0.400146C10.3855 0.400146 10.5636 0.473935 10.6949 0.605279L16.9947 6.90507C17.0598 6.97008 17.1114 7.04728 17.1467 7.13226C17.1819 7.21723 17.2 7.30832 17.2 7.40031C17.2 7.49229 17.1819 7.58338 17.1467 7.66836C17.1114 7.75333 17.0598 7.83053 16.9947 7.89554Z" fill="white"/>
</svg>
