<svg width="64" height="64" viewBox="0 0 64 64" fill="none" xmlns="http://www.w3.org/2000/svg">
<path d="M10.7041 8.74866L11.5261 8.33765C11.2443 8.45508 10.9742 8.596 10.7041 8.74866Z" stroke="#E0E0E0" stroke-opacity="0.6" stroke-linecap="round" stroke-linejoin="round"/>
<path d="M45.7919 36.8558C44.6587 33.1919 43.1263 29.6924 41.1886 26.3456C40.1259 24.5137 38.9575 22.764 37.6892 21.0906C36.6441 19.7107 35.5285 18.3838 34.3483 17.1156C32.1053 14.7024 29.7215 12.6942 27.2085 11.0854C26.7916 10.8212 26.3688 10.5629 25.9461 10.3163C23.1923 8.72506 20.5912 7.78561 18.1428 7.48029C17.9431 7.45093 17.7435 7.43332 17.5439 7.4157C15.2833 7.22781 13.2811 7.53313 11.5255 8.33754L10.7035 8.74861C8.76589 9.85246 7.23341 11.5845 6.1002 13.939C4.97286 16.2935 4.40332 19.1823 4.40332 22.5996C4.40332 26.0168 4.97286 29.5574 6.1002 33.2212C7.23341 36.8792 8.76589 40.3845 10.7035 43.7254C12.647 47.0722 14.9252 50.1489 17.5439 52.9614C20.1685 55.768 22.9692 58.0345 25.9461 59.7548C28.9288 61.4752 31.7296 62.444 34.3483 62.6613C36.967 62.8785 39.251 62.4323 41.1886 61.3284C42.9619 60.3126 44.3945 58.7802 45.4925 56.7251C45.5982 56.5372 45.698 56.3375 45.7919 56.1379C46.9252 53.7834 47.4888 50.8946 47.4888 47.4774C47.4888 44.0601 46.9252 40.5137 45.7919 36.8558ZM25.9461 35.0355L16.1817 18.1959L13.7215 13.9507C14.5494 13.4752 15.4419 13.1581 16.4048 12.9937C17.3149 12.8293 18.2896 12.8117 19.323 12.9232C21.4426 13.1581 23.6503 13.9331 25.9461 15.2601V35.0355Z" stroke="#E0E0E0" stroke-opacity="0.6" stroke-linecap="round" stroke-linejoin="round"/>
<path d="M25.9463 15.2601V35.0354L16.1819 18.1959L13.7217 13.9507C14.5496 13.4751 15.442 13.1581 16.405 12.9937C17.3151 12.8293 18.2898 12.8116 19.3231 12.9232C21.4428 13.1581 23.6505 13.9331 25.9463 15.2601Z" stroke="#E0E0E0" stroke-opacity="0.6" stroke-linecap="round" stroke-linejoin="round"/>
<path d="M59.2318 41.6057C59.2318 45.023 58.6681 47.9118 57.5349 50.2663C56.4017 52.6208 54.8692 54.347 52.9316 55.4567L52.0861 55.8795L41.1885 61.3283C42.9617 60.3126 44.3944 58.7801 45.4924 56.725C45.598 56.5371 45.6979 56.3375 45.7918 56.1378C46.925 53.7833 47.4887 50.8945 47.4887 47.4773C47.4887 44.06 46.925 40.5137 45.7918 36.8557C44.6586 33.1918 43.1261 29.6924 41.1885 26.3456C40.1258 24.5137 38.9573 22.7639 37.6891 21.0905C36.6439 19.7107 35.5283 18.3837 34.3481 17.1155C32.1052 14.7023 29.7214 12.6942 27.2083 11.0854C26.7914 10.8212 26.3687 10.5628 25.9459 10.3162C23.1922 8.72498 20.5911 7.78558 18.1426 7.48026C17.943 7.45091 17.7434 7.43329 17.5437 7.41568C15.2832 7.22779 13.281 7.53305 11.5254 8.33745L22.4465 2.87695C24.39 1.7731 26.6681 1.32685 29.2869 1.5441C31.9114 1.76135 34.7122 2.72425 37.6891 4.44461C40.6718 6.16497 43.4725 8.43146 46.0913 11.2439C48.71 14.0564 50.994 17.1331 52.9316 20.474C54.8692 23.8208 56.4017 27.3203 57.5349 30.9841C58.6681 34.6421 59.2318 38.1826 59.2318 41.6057Z" stroke="#E0E0E0" stroke-opacity="0.6" stroke-linecap="round" stroke-linejoin="round"/>
</svg>
